<svg width="303" height="286" viewBox="0 0 303 286" fill="none" xmlns="http://www.w3.org/2000/svg">
<path d="M210.388 246.096C200.247 246.096 190.334 243.092 181.899 237.465C173.463 231.837 166.883 223.837 162.989 214.474C159.095 205.111 158.061 194.805 160.018 184.855C161.974 174.905 166.834 165.758 173.984 158.566C181.133 151.375 190.252 146.462 200.19 144.448C210.129 142.433 220.441 143.407 229.827 147.247C239.212 151.087 247.25 157.62 252.927 166.022C258.603 174.425 261.664 184.321 261.723 194.461C261.763 201.228 260.464 207.935 257.902 214.198C255.34 220.461 251.565 226.156 246.794 230.954C242.023 235.753 236.35 239.561 230.103 242.16C223.855 244.758 217.155 246.096 210.388 246.096Z" fill="#3A4662"/>
<path d="M302.445 194.032L299.921 175.808C299.783 174.81 299.255 173.908 298.454 173.299C297.652 172.689 296.641 172.422 295.643 172.556L277.419 171.743C276.798 171.873 276.158 171.873 275.537 171.743C273.972 167.644 271.964 163.727 269.548 160.065C269.309 159.347 269.251 158.581 269.378 157.835C269.505 157.089 269.813 156.386 270.275 155.787L278.489 139.53C278.8 139.131 279.028 138.673 279.16 138.184C279.292 137.695 279.325 137.185 279.257 136.683C279.19 136.181 279.022 135.697 278.766 135.261C278.509 134.824 278.167 134.443 277.761 134.14L257.869 121.306C257.468 121.004 257.011 120.784 256.525 120.659C256.038 120.534 255.532 120.507 255.035 120.579C254.538 120.65 254.06 120.819 253.628 121.076C253.197 121.333 252.821 121.673 252.521 122.076L239.046 134.397C238.659 134.897 238.18 135.318 237.634 135.637C235.39 134.371 232.919 133.558 230.362 133.242C229.719 132.902 229.167 132.415 228.751 131.82C228.334 131.225 228.065 130.539 227.966 129.819L222.319 112.151C222.18 111.151 221.654 110.245 220.854 109.629C220.054 109.013 219.044 108.736 218.041 108.857L199.817 111.381C199.319 111.445 198.839 111.606 198.403 111.855C197.968 112.105 197.586 112.438 197.28 112.835C196.974 113.233 196.75 113.687 196.62 114.172C196.49 114.656 196.457 115.162 196.523 115.659L195.71 134.226C195.819 134.834 195.819 135.457 195.71 136.065C191.613 137.653 187.697 139.675 184.031 142.097C183.312 142.328 182.548 142.383 181.803 142.256C181.059 142.13 180.356 141.826 179.753 141.37L158.149 130.761C157.338 130.143 156.314 129.873 155.304 130.01C154.293 130.146 153.378 130.678 152.759 131.488L141.636 146.161C141.024 146.978 140.761 148.005 140.905 149.016C141.05 150.027 141.59 150.939 142.406 151.551L160.032 167.38C160.545 167.753 160.969 168.235 161.272 168.792C159.478 172.796 158.13 176.985 157.251 181.283C156.908 181.914 156.425 182.458 155.839 182.873C155.253 183.288 154.58 183.564 153.872 183.679L136.503 189.326C135.507 189.475 134.608 190.003 133.994 190.801C133.38 191.599 133.098 192.603 133.209 193.604L135.733 211.828C135.871 212.826 136.399 213.728 137.201 214.337C138.002 214.946 139.013 215.213 140.011 215.079L158.278 215.892C158.884 215.759 159.511 215.759 160.117 215.892C161.682 219.992 163.69 223.908 166.106 227.571C166.354 228.285 166.422 229.05 166.302 229.796C166.183 230.543 165.88 231.248 165.422 231.849L153.829 252.041C153.222 252.857 152.959 253.877 153.095 254.884C153.231 255.891 153.755 256.805 154.556 257.431L169.229 268.939C169.629 269.25 170.087 269.478 170.576 269.61C171.065 269.742 171.575 269.775 172.077 269.708C172.579 269.64 173.063 269.473 173.499 269.216C173.936 268.959 174.317 268.618 174.62 268.212L191.389 251.955C191.767 251.458 192.249 251.049 192.801 250.758C196.807 252.537 200.996 253.871 205.293 254.736C205.931 255.081 206.479 255.57 206.895 256.164C207.311 256.758 207.583 257.441 207.688 258.158L213.549 275.27C213.612 275.768 213.773 276.248 214.023 276.684C214.273 277.119 214.606 277.501 215.003 277.807C215.401 278.113 215.855 278.337 216.34 278.467C216.824 278.597 217.33 278.63 217.827 278.564L236.094 276.04C237.092 275.902 237.994 275.374 238.603 274.573C239.212 273.771 239.479 272.76 239.345 271.762L239.944 253.923C239.836 253.315 239.836 252.692 239.944 252.084C243.141 251.095 246.181 249.654 248.971 247.806C250.34 247.421 250.639 248.49 251.837 249.389L268.136 257.602C268.948 258.22 269.971 258.49 270.981 258.353C271.992 258.217 272.907 257.685 273.526 256.875L288.499 239.763C288.81 239.363 289.039 238.906 289.171 238.417C289.303 237.928 289.336 237.417 289.268 236.915C289.2 236.413 289.033 235.93 288.776 235.493C288.519 235.057 288.178 234.676 287.772 234.373L275.751 220.384C275.272 219.971 274.867 219.479 274.553 218.929C276.352 214.928 277.701 210.738 278.574 206.438C278.924 205.808 279.415 205.268 280.009 204.859C280.603 204.451 281.283 204.186 281.997 204.085L299.322 198.395C300.303 198.207 301.174 197.65 301.756 196.837C302.337 196.025 302.584 195.021 302.445 194.032ZM217.998 245.367C207.858 245.367 197.944 242.364 189.509 236.736C181.074 231.108 174.494 223.108 170.6 213.745C166.705 204.383 165.672 194.076 167.628 184.126C169.585 174.176 174.444 165.029 181.594 157.838C188.743 150.646 197.862 145.734 207.801 143.719C217.739 141.705 228.051 142.679 237.437 146.518C246.822 150.358 254.86 156.891 260.537 165.294C266.214 173.696 269.275 183.592 269.334 193.732C269.373 200.499 268.075 207.207 265.512 213.47C262.95 219.732 259.175 225.427 254.404 230.226C249.633 235.024 243.961 238.833 237.713 241.431C231.465 244.03 224.765 245.367 217.998 245.367Z" fill="#0F1D40"/>
<path d="M294.834 194.762L292.31 176.538C292.172 175.537 291.646 174.631 290.846 174.015C290.045 173.399 289.035 173.122 288.033 173.244L269.808 172.474C269.186 172.581 268.549 172.581 267.926 172.474C266.371 168.37 264.362 164.453 261.937 160.795C261.695 160.077 261.635 159.311 261.761 158.564C261.888 157.818 262.199 157.114 262.664 156.517L270.878 140.218C271.495 139.406 271.765 138.383 271.629 137.372C271.493 136.362 270.961 135.447 270.151 134.828L255.477 123.748C254.666 123.13 253.642 122.86 252.632 122.997C251.621 123.133 250.706 123.665 250.087 124.475L236.654 136.795C236.269 137.297 235.79 137.719 235.242 138.036C231.238 136.242 227.049 134.894 222.751 134.015C222.114 133.679 221.565 133.199 221.149 132.611C220.732 132.024 220.461 131.347 220.355 130.635L214.665 113.267C214.517 112.271 213.988 111.372 213.19 110.757C212.393 110.143 211.388 109.862 210.388 109.973L192.163 112.497C191.163 112.635 190.257 113.161 189.641 113.961C189.025 114.762 188.748 115.772 188.869 116.775L188.099 135.041C188.206 135.65 188.206 136.272 188.099 136.881C183.996 138.436 180.078 140.445 176.42 142.87C175.706 143.118 174.942 143.185 174.195 143.066C173.449 142.947 172.744 142.644 172.142 142.186L155.972 134.015C155.16 133.398 154.137 133.127 153.126 133.264C152.116 133.4 151.201 133.932 150.582 134.742L139.502 149.415C138.884 150.227 138.614 151.25 138.751 152.261C138.887 153.271 139.419 154.187 140.229 154.806L152.592 168.239C153.07 168.636 153.475 169.114 153.79 169.65C151.996 173.654 150.648 177.843 149.769 182.142C149.439 182.783 148.96 183.336 148.372 183.753C147.783 184.17 147.103 184.439 146.389 184.538L129.021 190.227C128.02 190.366 127.114 190.892 126.498 191.692C125.882 192.492 125.605 193.503 125.727 194.505L128.251 212.729C128.314 213.227 128.475 213.707 128.724 214.143C128.974 214.578 129.307 214.96 129.705 215.266C130.102 215.572 130.556 215.796 131.041 215.926C131.526 216.056 132.031 216.089 132.528 216.023L150.795 216.793C151.402 216.666 152.028 216.666 152.635 216.793C154.208 220.889 156.216 224.804 158.624 228.472C158.861 229.152 158.923 229.882 158.803 230.592C158.684 231.303 158.387 231.971 157.94 232.536L149.683 248.835C149.066 249.647 148.796 250.67 148.932 251.681C149.068 252.691 149.6 253.607 150.41 254.226L165.084 265.348C165.905 265.95 166.928 266.206 167.936 266.062C168.943 265.918 169.855 265.386 170.474 264.578L183.907 252.258C184.293 251.757 184.773 251.336 185.319 251.017C189.323 252.811 193.512 254.16 197.81 255.038C198.453 255.378 199.005 255.865 199.421 256.46C199.838 257.055 200.107 257.741 200.206 258.461L205.896 275.787C206.034 276.787 206.56 277.693 207.361 278.309C208.161 278.925 209.171 279.202 210.174 279.081L228.398 276.557C229.398 276.418 230.304 275.892 230.92 275.092C231.536 274.292 231.814 273.281 231.692 272.279L232.462 254.054C232.328 253.449 232.328 252.821 232.462 252.215C236.551 250.609 240.464 248.588 244.141 246.183C244.828 245.981 245.553 245.941 246.258 246.067C246.964 246.194 247.63 246.482 248.205 246.91L264.504 255.124C265.315 255.741 266.339 256.011 267.349 255.875C268.36 255.739 269.275 255.207 269.894 254.397L280.974 239.723C281.285 239.324 281.513 238.866 281.645 238.377C281.777 237.888 281.81 237.377 281.743 236.875C281.675 236.373 281.508 235.89 281.251 235.453C280.994 235.017 280.653 234.636 280.247 234.333L267.883 220.9C267.406 220.502 267 220.025 266.686 219.489C268.479 215.484 269.828 211.295 270.707 206.997C271.054 206.361 271.544 205.814 272.138 205.398C272.731 204.983 273.413 204.71 274.129 204.601L291.455 198.911C292.446 198.793 293.353 198.294 293.984 197.52C294.614 196.746 294.919 195.757 294.834 194.762Z" fill="#192648"/>
<path d="M209.999 143.639C199.909 143.698 190.062 146.747 181.705 152.4C173.347 158.053 166.852 166.057 163.042 175.4C159.231 184.743 158.276 195.006 160.296 204.892C162.316 214.778 167.222 223.844 174.392 230.943C181.563 238.042 190.677 242.856 200.583 244.777C210.489 246.697 220.742 245.639 230.046 241.735C239.35 237.83 247.289 231.256 252.858 222.841C258.427 214.427 261.376 204.551 261.334 194.461C261.306 187.751 259.956 181.113 257.359 174.926C254.763 168.739 250.973 163.125 246.205 158.405C241.437 153.684 235.785 149.951 229.572 147.417C223.359 144.883 216.708 143.599 209.999 143.639Z" fill="#0F1D40"/>
<path d="M226.259 60.1304L224.505 47.2965C224.399 46.5806 224.018 45.9343 223.443 45.495C222.868 45.0556 222.144 44.8579 221.425 44.9436L208.591 44.4303C208.153 44.5168 207.703 44.5168 207.265 44.4303C206.133 41.5354 204.7 38.7679 202.987 36.1738C202.837 35.6898 202.805 35.177 202.895 34.6782C202.984 34.1794 203.192 33.7094 203.501 33.3076L209.319 21.7998C209.75 21.2249 209.938 20.5034 209.842 19.791C209.746 19.0787 209.374 18.4327 208.805 17.9925L194.774 9.00877C194.199 8.57743 193.477 8.38947 192.765 8.48552C192.052 8.58156 191.406 8.95389 190.966 9.52211L181.426 18.078C181.161 18.4284 180.826 18.7198 180.442 18.9336C178.845 18.0664 177.107 17.4872 175.309 17.2225C174.855 16.9859 174.464 16.6457 174.167 16.2294C173.869 15.8131 173.674 15.3326 173.598 14.8268L169.619 2.33509C169.572 1.9838 169.456 1.6453 169.277 1.33897C169.099 1.03264 168.862 0.764559 168.58 0.549974C168.298 0.335389 167.976 0.178545 167.633 0.0884691C167.29 -0.00160635 166.933 -0.0231683 166.582 0.0250203L153.748 1.779C153.032 1.88525 152.386 2.26643 151.946 2.84157C151.507 3.41672 151.309 4.14049 151.395 4.85914L150.839 17.9925C150.923 18.4161 150.923 18.8522 150.839 19.2759C147.944 20.4075 145.176 21.8414 142.582 23.5538C142.1 23.6997 141.591 23.7331 141.095 23.6515C140.598 23.57 140.126 23.3755 139.716 23.0832L124.444 15.5541C123.864 15.1273 123.139 14.9464 122.426 15.0505C121.713 15.1546 121.07 15.5353 120.636 16.1101L112.765 26.4629C112.338 27.0431 112.157 27.768 112.261 28.4807C112.365 29.1934 112.746 29.8363 113.321 30.2703L125.813 41.4358C126.163 41.7008 126.454 42.0359 126.668 42.4197C125.388 45.2562 124.427 48.2262 123.802 51.275C123.563 51.7228 123.221 52.1075 122.805 52.3975C122.389 52.6875 121.909 52.8746 121.406 52.9434L109.129 56.9647C108.424 57.0709 107.789 57.4475 107.357 58.0146C106.926 58.5818 106.733 59.2948 106.819 60.0021L108.615 72.836C108.711 73.5484 109.084 74.1944 109.652 74.6346C110.22 75.0748 110.939 75.274 111.653 75.1889L124.487 75.745C124.908 75.6381 125.349 75.6381 125.77 75.745C126.902 78.6399 128.336 81.4074 130.048 84.0015C130.197 84.483 130.232 84.9926 130.151 85.4901C130.069 85.9875 129.873 86.4591 129.577 86.8677L121.364 101.156C120.937 101.736 120.756 102.461 120.86 103.174C120.964 103.887 121.345 104.53 121.92 104.963L132.272 112.792C132.555 113.011 132.878 113.172 133.224 113.265C133.569 113.358 133.929 113.381 134.284 113.333C134.638 113.285 134.979 113.167 135.288 112.986C135.596 112.805 135.865 112.565 136.08 112.279L147.93 100.814C148.183 100.452 148.521 100.159 148.914 99.9583C151.759 101.206 154.727 102.152 157.769 102.782C158.213 103.026 158.594 103.369 158.883 103.785C159.173 104.2 159.362 104.677 159.438 105.177L163.716 117.156C163.763 117.511 163.88 117.854 164.061 118.163C164.242 118.473 164.483 118.743 164.77 118.958C165.057 119.173 165.384 119.329 165.732 119.416C166.08 119.503 166.441 119.52 166.796 119.466L179.63 117.712C180.231 117.547 180.759 117.181 181.125 116.676C181.49 116.17 181.672 115.554 181.64 114.931L182.068 102.354C181.961 101.918 181.961 101.463 182.068 101.028C184.316 100.331 186.449 99.3078 188.399 97.9904C189.383 97.7337 189.597 98.461 190.453 99.1027L201.961 104.921C202.535 105.352 203.257 105.54 203.969 105.444C204.682 105.348 205.328 104.976 205.768 104.407L216.377 92.2152C216.809 91.6402 216.997 90.9186 216.9 90.2063C216.804 89.4939 216.432 88.848 215.864 88.4078L207.308 78.9535C206.955 78.6742 206.663 78.3246 206.452 77.9268C207.694 75.094 208.64 72.1408 209.276 69.1141C209.518 68.6647 209.859 68.2767 210.275 67.9801C210.69 67.6834 211.168 67.486 211.671 67.403L223.949 63.3817C224.325 63.3432 224.688 63.2249 225.014 63.0349C225.34 62.8448 225.622 62.5872 225.841 62.2794C226.06 61.9716 226.21 61.6207 226.282 61.2501C226.354 60.8795 226.347 60.4978 226.259 60.1304ZM166.582 96.3648C159.388 96.3902 152.349 94.2813 146.354 90.3049C140.359 86.3286 135.678 80.6635 132.904 74.0263C130.13 67.3892 129.386 60.0782 130.768 53.0185C132.149 45.9587 135.594 39.4674 140.666 34.3658C145.737 29.2641 152.208 25.7814 159.26 24.3583C166.311 22.9351 173.626 23.6355 180.28 26.3708C186.933 29.106 192.626 33.7533 196.637 39.7246C200.649 45.6959 202.799 52.7229 202.816 59.9165C202.839 64.6913 201.918 69.4235 200.108 73.8418C198.298 78.2602 195.633 82.2777 192.267 85.6639C188.9 89.0501 184.899 91.7384 180.491 93.5747C176.083 95.4111 171.357 96.3592 166.582 96.3648Z" fill="#0F1D40"/>
<path d="M220.868 60.6032L219.114 47.7694C219.008 47.0564 218.626 46.4139 218.049 45.9814C217.472 45.5489 216.748 45.3613 216.034 45.4592L203.2 44.9031C202.765 45.0101 202.31 45.0101 201.874 44.9031C200.76 42.0004 199.325 39.2311 197.596 36.6466C197.446 36.1556 197.414 35.6361 197.503 35.1304C197.593 34.6248 197.8 34.1475 198.11 33.7376L203.928 22.2299C204.356 21.6618 204.543 20.9471 204.447 20.2418C204.351 19.5365 203.98 18.8978 203.414 18.4653L193.062 10.5938C192.487 10.1625 191.765 9.97453 191.053 10.0706C190.34 10.1666 189.694 10.5389 189.254 11.1072L179.757 19.6631C179.478 20.0163 179.128 20.3077 178.73 20.5187C175.9 19.2711 172.946 18.3248 169.918 17.6953C169.468 17.4534 169.08 17.1117 168.784 16.6963C168.487 16.281 168.29 15.8032 168.206 15.2996L164.228 3.02182C164.181 2.66636 164.063 2.32393 163.882 2.01447C163.701 1.70501 163.46 1.4348 163.173 1.21966C162.886 1.00453 162.56 0.848764 162.212 0.76155C161.864 0.674337 161.502 0.657417 161.148 0.711744L148.314 2.46573C147.959 2.51281 147.616 2.63032 147.307 2.81143C146.997 2.99254 146.727 3.23355 146.512 3.5204C146.297 3.80724 146.141 4.13413 146.054 4.48192C145.967 4.82971 145.95 5.19138 146.004 5.5458L145.448 18.3797C145.513 18.8194 145.513 19.2663 145.448 19.7059C142.548 20.8277 139.78 22.2621 137.191 23.9839C136.7 24.1341 136.181 24.1659 135.675 24.0766C135.17 23.9874 134.692 23.7797 134.282 23.4705L122.775 17.6524C122.2 17.2211 121.478 17.0332 120.766 17.1293C120.053 17.2253 119.407 17.5976 118.967 18.1658L111.138 28.5185C110.919 28.8011 110.759 29.1245 110.666 29.4698C110.573 29.8151 110.55 30.1754 110.598 30.5298C110.645 30.8841 110.763 31.2254 110.944 31.5338C111.125 31.8421 111.366 32.1114 111.652 32.3259L120.208 41.8657C120.558 42.1308 120.85 42.4659 121.063 42.8497C119.803 45.6751 118.856 48.6304 118.24 51.6623C117.989 52.1129 117.639 52.5008 117.217 52.7971C116.794 53.0934 116.311 53.2905 115.801 53.3735L103.567 57.3948C103.213 57.4366 102.871 57.5492 102.562 57.7259C102.253 57.9025 101.982 58.1397 101.767 58.4231C101.551 58.7066 101.395 59.0306 101.307 59.3757C101.219 59.7209 101.202 60.0801 101.256 60.4321L103.01 73.266C103.057 73.6214 103.175 73.9639 103.356 74.2734C103.537 74.5829 103.778 74.8531 104.065 75.0682C104.352 75.2833 104.679 75.439 105.027 75.5262C105.374 75.6135 105.736 75.6305 106.091 75.5761L118.924 76.1322C119.348 76.0458 119.784 76.0458 120.208 76.1322C121.341 79.0266 122.775 81.794 124.486 84.3887C124.626 84.8739 124.652 85.3847 124.563 85.8817C124.474 86.3786 124.272 86.8485 123.972 87.2549L118.154 98.7627C117.935 99.0453 117.775 99.3687 117.682 99.714C117.589 100.059 117.566 100.42 117.614 100.774C117.661 101.128 117.779 101.47 117.96 101.778C118.141 102.086 118.382 102.356 118.668 102.57L129.02 110.442C129.601 110.868 130.326 111.049 131.038 110.945C131.751 110.841 132.394 110.46 132.828 109.885L142.325 101.329C142.601 101.001 142.934 100.726 143.309 100.517C146.154 101.764 149.122 102.71 152.164 103.34C152.619 103.57 153.009 103.91 153.3 104.328C153.591 104.746 153.774 105.23 153.833 105.736L157.854 117.971C157.96 118.687 158.341 119.333 158.916 119.772C159.492 120.212 160.215 120.409 160.934 120.324L173.768 118.527C174.119 118.48 174.458 118.363 174.764 118.185C175.07 118.007 175.339 117.77 175.553 117.487C175.768 117.205 175.925 116.884 176.015 116.541C176.105 116.198 176.126 115.841 176.078 115.49L176.634 102.656C176.57 102.23 176.57 101.798 176.634 101.372C179.525 100.232 182.292 98.7986 184.891 97.0943C185.38 96.948 185.895 96.9143 186.399 96.9958C186.903 97.0773 187.382 97.2719 187.8 97.5649L199.307 103.426C199.888 103.852 200.613 104.033 201.325 103.929C202.038 103.825 202.681 103.444 203.115 102.869L210.943 92.5168C211.375 91.9419 211.563 91.2203 211.467 90.508C211.371 89.7957 210.998 89.1496 210.43 88.7094L201.874 79.2124C201.524 78.9473 201.232 78.6122 201.019 78.2284C202.285 75.3905 203.232 72.4205 203.842 69.3731C204.091 68.9336 204.436 68.5556 204.85 68.2668C205.265 67.9781 205.739 67.786 206.238 67.7047L218.515 63.6834C218.875 63.6415 219.222 63.5277 219.536 63.3489C219.851 63.1701 220.126 62.9298 220.345 62.6424C220.565 62.355 220.724 62.0263 220.814 61.676C220.904 61.3257 220.922 60.9608 220.868 60.6032ZM161.234 96.8804C154.04 96.9142 146.998 94.8135 140.998 90.8442C134.999 86.875 130.312 81.2154 127.53 74.5815C124.747 67.9476 123.995 60.6376 125.369 53.5762C126.742 46.5149 130.179 40.0195 135.245 34.9119C140.31 29.8043 146.777 26.314 153.827 24.8825C160.877 23.4511 168.193 24.1429 174.849 26.8703C181.506 29.5977 187.204 34.2382 191.222 40.2048C195.241 46.1713 197.4 53.1957 197.425 60.3893C197.448 65.1625 196.529 69.8934 194.722 74.3113C192.915 78.7293 190.254 82.7476 186.893 86.1367C183.532 89.5258 179.536 92.2191 175.133 94.0626C170.73 95.9061 166.007 96.8636 161.234 96.8804Z" fill="#192648"/>
<path d="M161.061 23.6831C153.844 23.6831 146.789 25.8233 140.788 29.833C134.787 33.8426 130.11 39.5418 127.348 46.2097C124.586 52.8775 123.864 60.2146 125.272 67.2932C126.68 74.3718 130.155 80.8739 135.258 85.9773C140.362 91.0806 146.864 94.556 153.942 95.964C161.021 97.3721 168.358 96.6494 175.026 93.8875C181.694 91.1255 187.393 86.4484 191.403 80.4475C195.412 74.4466 197.552 67.3914 197.552 60.1741C197.558 55.3805 196.618 50.6328 194.786 46.203C192.954 41.7732 190.267 37.7482 186.877 34.3586C183.487 30.9689 179.462 28.2812 175.033 26.4493C170.603 24.6175 165.855 23.6775 161.061 23.6831Z" fill="#A673EF"/>
<path d="M161.058 29.8458C155.061 29.8543 149.201 31.6403 144.219 34.9783C139.237 38.3162 135.356 43.0562 133.067 48.5991C130.778 54.1421 130.183 60.2392 131.358 66.12C132.533 72.0008 135.425 77.4012 139.669 81.6388C143.913 85.8763 149.317 88.7608 155.199 89.9277C161.082 91.0945 167.178 90.4914 172.718 88.1945C178.258 85.8975 182.992 82.01 186.323 77.023C189.654 72.0361 191.432 66.1736 191.432 60.1766C191.432 56.1899 190.646 52.2423 189.119 48.5596C187.592 44.8769 185.354 41.5314 182.533 38.7144C179.712 35.8973 176.363 33.6641 172.678 32.1423C168.994 30.6206 165.045 29.8402 161.058 29.8458Z" fill="#6433C4"/>
<path d="M147.842 40.1962H164.526C166.029 39.9848 167.561 40.115 169.007 40.5773C170.453 41.0395 171.776 41.8218 172.878 42.8661C173.979 43.9103 174.831 45.1895 175.37 46.6086C175.91 48.0276 176.122 49.5499 175.991 51.0623C176.189 52.9104 175.744 54.7701 174.731 56.3284C173.718 57.8868 172.199 59.0486 170.43 59.6182C172.388 60.1551 174.091 61.3706 175.235 63.0477C176.379 64.7248 176.89 66.7542 176.676 68.7731C176.676 76.3451 173.253 80.7086 164.697 80.7086H147.585L147.842 40.1962ZM164.184 56.3242C164.788 56.3698 165.394 56.2786 165.957 56.0574C166.52 55.8362 167.027 55.4906 167.438 55.0465C167.849 54.6023 168.155 54.071 168.332 53.4923C168.509 52.9136 168.554 52.3023 168.462 51.704C168.462 47.9394 166.152 47.041 164.184 47.041H155.628V56.3242H164.184ZM164.483 73.9921C166.836 73.9921 168.975 72.8799 168.975 68.5592C168.975 65.5646 167.777 62.8695 164.483 62.8695H155.671V73.9921H164.483Z" fill="#A673EF"/>
<g style="mix-blend-mode:screen" opacity="0.3">
<g style="mix-blend-mode:screen">
<path d="M152.291 24.7528L125.682 51.3618C124.992 54.1622 124.634 57.0337 124.612 59.9177L161.018 23.5122C158.069 23.5708 155.139 23.9873 152.291 24.7528Z" fill="#A673EF"/>
</g>
<g style="mix-blend-mode:screen">
<path d="M173.767 25.9518L126.71 73.0094C129.05 79.2957 133.076 84.8164 138.346 88.9662L189.681 37.6307C185.538 32.3623 180.036 28.3244 173.767 25.9518Z" fill="#A673EF"/>
</g>
</g>
<path d="M64.9375 175.082L62.713 168.665C62.5867 168.303 62.3225 168.006 61.978 167.837C61.6335 167.669 61.2365 167.644 60.8734 167.767L54.2426 168.836C54.0161 168.875 53.7846 168.875 53.5581 168.836C52.6653 167.476 51.6486 166.201 50.5208 165.029C50.3934 164.8 50.3265 164.542 50.3265 164.28C50.3265 164.018 50.3934 163.76 50.5208 163.531L52.3174 157.029C52.4793 156.683 52.4983 156.286 52.3702 155.926C52.2421 155.566 51.9772 155.27 51.6329 155.104L43.077 151.853C42.7306 151.691 42.3344 151.672 41.9741 151.8C41.6138 151.928 41.3185 152.193 41.152 152.537C41.152 152.537 37.6868 158.569 37.5157 158.74C36.578 158.431 35.5938 158.286 34.6067 158.312C34.3505 158.234 34.1164 158.096 33.9232 157.91C33.73 157.724 33.5831 157.496 33.4944 157.243L30.1148 151.125C29.98 150.771 29.7125 150.484 29.3689 150.324C29.0254 150.164 28.633 150.145 28.2753 150.27L22.115 152.452C21.7353 152.603 21.4206 152.883 21.2253 153.243C21.03 153.602 20.9664 154.018 21.0455 154.419L22.115 161.221C22.16 161.447 22.16 161.68 22.115 161.906C20.7344 162.77 19.457 163.789 18.3077 164.943C18.0721 165.048 17.8169 165.102 17.559 165.102C17.301 165.102 17.046 165.048 16.8104 164.943L7.48445 162.633C7.13802 162.471 6.74169 162.452 6.38141 162.58C6.02112 162.709 5.72581 162.973 5.55932 163.318L2.60751 169.435C2.52825 169.604 2.48308 169.786 2.47461 169.972C2.46613 170.158 2.49454 170.344 2.55816 170.519C2.62178 170.694 2.7193 170.854 2.84525 170.991C2.97119 171.128 3.12306 171.239 3.292 171.317L11.5484 175.595C11.7585 175.703 11.947 175.848 12.1046 176.023C11.7624 177.612 11.5903 179.232 11.5913 180.857C11.5042 181.109 11.3634 181.339 11.1787 181.531C10.9941 181.723 10.7699 181.873 10.5218 181.97L4.66098 185.306C4.48334 185.364 4.31896 185.457 4.17741 185.579C4.03587 185.701 3.91997 185.85 3.83641 186.017C3.75284 186.184 3.70325 186.366 3.69058 186.553C3.67791 186.739 3.70246 186.926 3.76264 187.103L6.02996 193.52C6.15577 193.871 6.4153 194.158 6.75192 194.318C7.08854 194.479 7.47486 194.499 7.82663 194.376L14.5002 193.306C14.7263 193.262 14.9587 193.262 15.1847 193.306C16.0516 194.672 17.0705 195.935 18.2221 197.071C18.3281 197.314 18.3828 197.576 18.3828 197.841C18.3828 198.106 18.3281 198.368 18.2221 198.611L15.1847 207.167C15.0229 207.513 15.004 207.909 15.1321 208.27C15.2602 208.63 15.525 208.925 15.8692 209.092L21.9867 212.044C22.1551 212.123 22.3376 212.168 22.5235 212.176C22.7095 212.185 22.8953 212.157 23.0703 212.093C23.2452 212.029 23.4058 211.932 23.5429 211.806C23.68 211.68 23.7908 211.528 23.869 211.359L29.0453 203.787C29.1635 203.584 29.3073 203.397 29.4731 203.231C31.0598 203.59 32.6806 203.776 34.3072 203.787C34.559 203.874 34.7889 204.015 34.9809 204.2C35.1729 204.384 35.3227 204.608 35.4196 204.857L38.7564 210.546C38.8985 210.892 39.172 211.167 39.5168 211.312C39.8617 211.456 40.2498 211.458 40.5959 211.316L47.0128 209.092C47.3669 208.957 47.6545 208.689 47.8143 208.346C47.9741 208.002 47.9935 207.61 47.8685 207.252L46.7561 200.878C46.7379 200.65 46.7379 200.421 46.7561 200.194C47.85 199.61 48.846 198.86 49.7079 197.969C50.1785 197.712 50.1357 198.44 50.6063 198.696L57.1089 200.493C57.4553 200.655 57.8515 200.674 58.2118 200.546C58.5721 200.418 58.8674 200.153 59.0339 199.809L63.3118 192.108C63.4749 191.773 63.4989 191.388 63.3787 191.035C63.2585 190.682 63.0038 190.392 62.6702 190.226L57.1944 186.247C56.9821 186.144 56.7929 185.998 56.6382 185.82C56.9967 184.247 57.1832 182.641 57.1944 181.028C57.2591 180.765 57.392 180.524 57.5798 180.329C57.7676 180.133 58.0035 179.991 58.2639 179.916L64.1247 176.579C64.4047 176.452 64.6357 176.237 64.7824 175.967C64.9291 175.697 64.9836 175.386 64.9375 175.082ZM38.1147 199.851C34.436 200.602 30.6174 200.246 27.1411 198.828C23.6648 197.409 20.6867 194.993 18.5832 191.883C16.4796 188.773 15.345 185.109 15.3225 181.355C15.2999 177.6 16.3906 173.924 18.4567 170.789C20.5227 167.654 23.4714 165.201 26.9305 163.742C30.3895 162.282 34.2037 161.88 37.8911 162.586C41.5785 163.293 44.9738 165.076 47.6481 167.712C50.3224 170.347 52.1556 173.716 52.9164 177.392C53.4227 179.839 53.4412 182.362 52.971 184.816C52.5007 187.27 51.551 189.607 50.176 191.693C48.801 193.779 47.0278 195.574 44.9582 196.974C42.8885 198.374 40.5629 199.352 38.1147 199.851Z" fill="#0F1D40"/>
<path d="M61.383 176.064L59.1584 169.647C59.0321 169.285 58.768 168.988 58.4235 168.82C58.0791 168.651 57.6821 168.626 57.3189 168.749L50.6881 169.818C50.4619 169.86 50.2299 169.86 50.0036 169.818C49.1213 168.464 48.1035 167.203 46.9662 166.054C46.849 165.814 46.7881 165.551 46.7881 165.284C46.7881 165.017 46.849 164.754 46.9662 164.514L48.763 158.011C48.9249 157.665 48.9437 157.269 48.8156 156.908C48.6875 156.548 48.4227 156.253 48.0785 156.086L41.961 153.134C41.6182 152.996 41.2361 152.989 40.8885 153.116C40.541 153.242 40.2526 153.492 40.0787 153.819L36.1003 159.252C36.024 159.468 35.891 159.66 35.7153 159.808C34.1267 159.466 32.5062 159.294 30.8811 159.295C30.6249 159.216 30.3908 159.078 30.1976 158.892C30.0044 158.707 29.8575 158.478 29.7688 158.225L26.432 152.364C26.3747 152.187 26.2818 152.023 26.159 151.883C26.0363 151.743 25.8862 151.63 25.718 151.549C25.5498 151.469 25.367 151.424 25.1808 151.417C24.9946 151.41 24.809 151.441 24.6352 151.509L18.2183 153.733C18.041 153.791 17.8773 153.883 17.7372 154.006C17.5971 154.129 17.4834 154.279 17.4034 154.447C17.3233 154.616 17.2784 154.798 17.2714 154.984C17.2644 155.171 17.2955 155.356 17.3628 155.53L18.3894 162.204C18.4514 162.428 18.4514 162.664 18.3894 162.888C17.0154 163.743 15.7511 164.763 14.6248 165.925C14.3819 166.031 14.1198 166.086 13.8548 166.086C13.5898 166.086 13.3277 166.031 13.0848 165.925L6.5822 164.129C6.24725 163.966 5.8615 163.942 5.50892 164.062C5.15634 164.182 4.86563 164.437 4.70001 164.77L1.74821 170.888C1.58327 171.229 1.55799 171.621 1.67784 171.981C1.79769 172.34 2.05319 172.639 2.38987 172.813L7.86566 176.749C8.06323 176.856 8.23766 177.002 8.379 177.177C8.03675 178.765 7.86468 180.386 7.86566 182.011C7.77858 182.262 7.63777 182.492 7.45312 182.684C7.26846 182.876 7.04435 183.026 6.79617 183.123L0.935382 186.46C0.584408 186.586 0.297477 186.845 0.13718 187.182C-0.0231168 187.518 -0.043815 187.905 0.0797369 188.256L2.30423 194.673C2.43004 195.024 2.6897 195.311 3.02632 195.472C3.36294 195.632 3.74926 195.653 4.10103 195.529L10.7746 194.502C10.9986 194.44 11.2352 194.44 11.4591 194.502C12.3281 195.867 13.3468 197.129 14.4965 198.267C14.6136 198.507 14.6745 198.77 14.6745 199.037C14.6745 199.304 14.6136 199.567 14.4965 199.807L12.6998 206.309C12.5368 206.644 12.5127 207.03 12.6329 207.383C12.7531 207.735 13.0078 208.026 13.3415 208.192L19.4589 211.144C19.8001 211.309 20.1923 211.334 20.5519 211.214C20.9115 211.094 21.21 210.839 21.384 210.502L25.3197 205.026C25.4379 204.823 25.5817 204.636 25.7475 204.47C27.331 204.847 28.9539 205.034 30.5816 205.026C30.8411 205.098 31.0786 205.234 31.2728 205.42C31.4669 205.607 31.6117 205.839 31.694 206.096L35.0308 211.956C35.1566 212.307 35.4161 212.594 35.7527 212.755C36.0893 212.915 36.4757 212.936 36.8274 212.812L43.2444 210.587C43.5985 210.453 43.8861 210.185 44.0458 209.841C44.2056 209.498 44.2251 209.106 44.1 208.748L43.0732 202.117C43.0133 201.893 43.0133 201.657 43.0732 201.433C44.4277 200.55 45.6891 199.533 46.8379 198.395C47.0746 198.268 47.3392 198.201 47.608 198.201C47.8768 198.201 48.1413 198.268 48.378 198.395L54.8805 200.192C55.0478 200.277 55.2309 200.327 55.4185 200.339C55.606 200.35 55.7939 200.323 55.9704 200.259C56.147 200.195 56.3086 200.095 56.4449 199.966C56.5812 199.836 56.6894 199.68 56.7628 199.508L59.7146 193.39C59.8776 193.055 59.9016 192.669 59.7814 192.317C59.6612 191.964 59.4066 191.673 59.0729 191.508L53.5971 187.529C53.3901 187.436 53.2126 187.288 53.0838 187.101C53.4282 185.528 53.6003 183.921 53.5971 182.31C53.6758 182.054 53.8136 181.82 53.9993 181.627C54.1851 181.433 54.4137 181.287 54.6666 181.198L60.5274 177.861C60.8784 177.735 61.1653 177.476 61.3256 177.139C61.4859 176.802 61.5066 176.416 61.383 176.064ZM34.6029 200.834C30.9246 201.593 27.1036 201.245 23.6232 199.833C20.1427 198.421 17.159 196.009 15.0492 192.901C12.9394 189.794 11.7982 186.131 11.7699 182.375C11.7415 178.619 12.8273 174.939 14.8899 171.8C16.9526 168.662 19.8996 166.205 23.3583 164.74C26.817 163.276 30.6322 162.87 34.3216 163.574C38.011 164.277 41.4091 166.059 44.0862 168.693C46.7633 171.328 48.5991 174.697 49.3618 178.374C50.3737 183.309 49.3887 188.443 46.6223 192.653C43.856 196.863 39.5339 199.804 34.6029 200.834Z" fill="#192648"/>
<path d="M136.163 148.259L135.051 140.345C135.025 140.125 134.955 139.913 134.846 139.72C134.736 139.528 134.59 139.359 134.415 139.224C134.239 139.088 134.039 138.989 133.825 138.932C133.611 138.875 133.388 138.861 133.169 138.891L125.212 138.549C124.957 138.591 124.697 138.591 124.442 138.549C123.738 136.763 122.849 135.057 121.789 133.458C121.697 133.153 121.679 132.83 121.739 132.517C121.799 132.204 121.933 131.91 122.131 131.661L125.725 124.56C125.984 124.199 126.093 123.753 126.029 123.314C125.965 122.875 125.734 122.478 125.383 122.207L116.014 116.431C115.659 116.168 115.216 116.052 114.777 116.107C114.339 116.163 113.939 116.387 113.661 116.731C113.661 116.731 108.228 122.934 108.014 123.062C106.994 122.476 105.879 122.07 104.72 121.864C104.439 121.719 104.198 121.506 104.019 121.244C103.84 120.983 103.728 120.682 103.693 120.367L101.212 112.538C101.186 112.319 101.116 112.106 101.007 111.914C100.898 111.721 100.751 111.552 100.576 111.417C100.401 111.281 100.2 111.182 99.9864 111.125C99.7725 111.068 99.5493 111.054 99.33 111.084L91.6724 112.153C91.1855 112.244 90.7465 112.505 90.4333 112.888C90.1201 113.272 89.9528 113.754 89.9612 114.25L89.6189 122.335C89.6841 122.588 89.6841 122.853 89.6189 123.105C87.8429 123.799 86.1499 124.689 84.5709 125.757C84.2661 125.85 83.9434 125.867 83.6304 125.808C83.3175 125.748 83.0237 125.613 82.7743 125.415L72.507 120.624C72.3368 120.489 72.1413 120.39 71.9321 120.332C71.7229 120.274 71.5042 120.258 71.2889 120.286C71.0735 120.314 70.8659 120.385 70.6784 120.494C70.4909 120.604 70.3273 120.75 70.197 120.923L65.3201 127.34C65.0611 127.7 64.9519 128.147 65.0158 128.586C65.0796 129.025 65.3115 129.422 65.6624 129.693L74.2183 136.752C74.4254 136.93 74.6118 137.131 74.7744 137.351C73.9982 139.109 73.4103 140.944 73.0204 142.826C72.8688 143.103 72.6543 143.34 72.3942 143.518C72.1341 143.697 71.8358 143.811 71.5232 143.853L63.9511 146.334C63.5148 146.398 63.1215 146.632 62.8569 146.984C62.5924 147.337 62.4783 147.78 62.5394 148.217L63.6518 156.174C63.6777 156.392 63.7477 156.603 63.8575 156.794C63.9673 156.984 64.1146 157.151 64.2906 157.283C64.4665 157.415 64.6676 157.509 64.8813 157.561C65.095 157.614 65.317 157.622 65.5339 157.585L73.4482 157.928C73.7152 157.862 73.994 157.862 74.261 157.928C74.9496 159.712 75.8243 161.418 76.8707 163.018C76.9693 163.313 76.9935 163.627 76.9413 163.933C76.889 164.239 76.7618 164.527 76.5712 164.772L71.0954 174.056C70.9594 174.229 70.8593 174.428 70.8007 174.641C70.7421 174.854 70.7263 175.076 70.7541 175.295C70.782 175.513 70.853 175.724 70.963 175.916C71.073 176.107 71.2197 176.274 71.3949 176.408L77.769 181.243C78.1291 181.502 78.5757 181.611 79.0146 181.547C79.4535 181.483 79.8505 181.251 80.1218 180.9L87.9077 173.371C88.0759 173.166 88.2786 172.993 88.5067 172.858C90.2712 173.607 92.1054 174.18 93.9825 174.569C94.2549 174.726 94.4886 174.942 94.6664 175.201C94.8441 175.46 94.9612 175.756 95.0092 176.066L97.576 183.467C97.6118 183.677 97.6893 183.877 97.8042 184.056C97.9191 184.235 98.0689 184.389 98.2445 184.509C98.4202 184.628 98.6183 184.712 98.8268 184.753C99.0353 184.795 99.2501 184.794 99.4583 184.751L107.415 183.681C107.852 183.617 108.245 183.384 108.509 183.031C108.774 182.678 108.888 182.235 108.827 181.799L109.084 174.141C109.04 173.872 109.04 173.597 109.084 173.328C110.486 172.911 111.814 172.276 113.019 171.446C113.618 171.446 113.362 172.088 113.875 172.516L120.976 176.109C121.337 176.368 121.783 176.477 122.222 176.413C122.661 176.349 123.058 176.118 123.329 175.767L130.26 167.895C130.519 167.535 130.628 167.089 130.564 166.65C130.5 166.211 130.268 165.814 129.917 165.542L124.527 159.682C124.322 159.514 124.149 159.311 124.014 159.083C124.79 157.339 125.378 155.518 125.768 153.65C125.917 153.367 126.13 153.124 126.39 152.938C126.65 152.752 126.95 152.63 127.265 152.58L134.794 150.099C135.214 150.025 135.59 149.794 135.845 149.452C136.099 149.11 136.213 148.683 136.163 148.259ZM99.3727 170.633C94.9391 170.65 90.6002 169.352 86.9044 166.903C83.2087 164.454 80.3223 160.964 78.61 156.874C76.8978 152.785 76.4367 148.279 77.285 143.927C78.1334 139.576 80.253 135.574 83.376 132.427C86.499 129.28 90.4852 127.129 94.8302 126.248C99.1752 125.366 103.684 125.793 107.787 127.474C111.889 129.155 115.401 132.015 117.878 135.692C120.356 139.369 121.687 143.698 121.704 148.131C121.692 154.058 119.339 159.74 115.156 163.939C110.973 168.138 105.3 170.514 99.3727 170.548V170.633Z" fill="#192648"/>
<path d="M131.845 148.559L130.733 140.602C130.706 140.382 130.636 140.17 130.527 139.978C130.418 139.785 130.271 139.616 130.096 139.481C129.921 139.345 129.721 139.246 129.507 139.189C129.293 139.132 129.07 139.118 128.85 139.148L120.893 138.806C120.626 138.869 120.348 138.869 120.08 138.806C119.409 137.014 118.534 135.306 117.471 133.715C117.378 133.41 117.361 133.087 117.421 132.774C117.48 132.461 117.615 132.167 117.813 131.918L121.364 124.817C121.505 124.649 121.609 124.454 121.67 124.244C121.732 124.034 121.749 123.813 121.721 123.596C121.693 123.379 121.62 123.17 121.507 122.982C121.394 122.795 121.243 122.633 121.064 122.507L114.69 117.63C114.33 117.371 113.884 117.261 113.445 117.325C113.006 117.389 112.609 117.621 112.337 117.972L106.477 123.49C106.303 123.707 106.084 123.882 105.835 124.004C104.094 123.222 102.272 122.633 100.402 122.25C100.126 122.108 99.889 121.902 99.7102 121.648C99.5315 121.395 99.4165 121.102 99.3751 120.795L96.894 113.223C96.8304 112.787 96.5968 112.394 96.2441 112.129C95.8914 111.865 95.4482 111.75 95.0116 111.812L87.0547 112.881C86.6184 112.945 86.225 113.178 85.9605 113.531C85.696 113.884 85.5818 114.327 85.6429 114.763L85.3007 122.72C85.3643 122.988 85.3643 123.266 85.3007 123.533C83.5168 124.222 81.8104 125.096 80.2099 126.143C79.9146 126.234 79.6018 126.255 79.2971 126.203C78.9924 126.151 78.7042 126.028 78.4559 125.843L71.3545 122.25C70.9996 121.986 70.5564 121.87 70.1178 121.926C69.6791 121.982 69.2792 122.205 69.0017 122.549L64.1675 128.966C64.0327 129.136 63.9334 129.332 63.8754 129.541C63.8174 129.75 63.8019 129.969 63.8298 130.184C63.8577 130.4 63.9285 130.607 64.0379 130.795C64.1473 130.982 64.2932 131.146 64.4669 131.276L69.8572 137.137C70.0735 137.311 70.2487 137.53 70.3705 137.779C69.6023 139.521 69.0285 141.343 68.6594 143.212C68.5078 143.488 68.2933 143.725 68.0332 143.904C67.7731 144.082 67.4747 144.197 67.162 144.239L59.5901 146.72C59.1538 146.783 58.7604 147.017 58.4959 147.37C58.2314 147.722 58.1173 148.165 58.1784 148.602L59.2479 156.559C59.3116 157.007 59.5498 157.411 59.9105 157.683C60.2712 157.956 60.725 158.075 61.1729 158.014L69.0872 158.313C69.3563 158.268 69.6309 158.268 69.9 158.313C70.5885 160.097 71.4632 161.803 72.5095 163.404C72.598 163.707 72.617 164.025 72.5651 164.336C72.5133 164.648 72.392 164.943 72.2101 165.201L68.6165 172.259C68.4829 172.436 68.3857 172.637 68.3305 172.851C68.2753 173.065 68.2633 173.288 68.2951 173.507C68.327 173.726 68.4021 173.937 68.516 174.126C68.63 174.316 68.7805 174.481 68.9588 174.612L75.333 179.446C75.6879 179.71 76.1311 179.826 76.5697 179.77C77.0083 179.714 77.4084 179.491 77.6859 179.147L83.5467 173.757C83.7148 173.552 83.9175 173.378 84.1456 173.243C85.8891 174.019 87.7105 174.607 89.5787 174.997C89.8601 175.137 90.104 175.341 90.2901 175.595C90.4761 175.848 90.5989 176.141 90.6482 176.452L93.1293 184.024C93.1929 184.46 93.4265 184.853 93.7792 185.118C94.1319 185.382 94.575 185.496 95.0116 185.435L102.926 184.366C103.146 184.34 103.358 184.27 103.551 184.16C103.743 184.051 103.912 183.905 104.047 183.729C104.183 183.554 104.282 183.354 104.339 183.14C104.396 182.926 104.41 182.703 104.38 182.484L104.723 174.527C104.679 174.257 104.679 173.983 104.723 173.714C106.506 173.025 108.213 172.151 109.813 171.104C110.116 171.013 110.435 170.992 110.747 171.044C111.058 171.096 111.354 171.219 111.61 171.404L118.712 174.997C119.066 175.261 119.51 175.377 119.948 175.321C120.387 175.265 120.787 175.042 121.064 174.698L125.899 168.281C126.158 167.921 126.267 167.474 126.203 167.035C126.139 166.596 125.907 166.199 125.556 165.928L120.166 160.11C119.95 159.936 119.775 159.717 119.653 159.468C120.435 157.727 121.023 155.905 121.407 154.035C121.553 153.754 121.766 153.513 122.027 153.334C122.288 153.155 122.589 153.043 122.904 153.008L130.433 150.527C130.655 150.491 130.868 150.411 131.059 150.292C131.25 150.174 131.416 150.019 131.547 149.836C131.678 149.653 131.772 149.446 131.823 149.227C131.874 149.008 131.882 148.781 131.845 148.559ZM95.0545 170.933C90.6209 170.95 86.282 169.652 82.5862 167.203C78.8905 164.754 76.0039 161.264 74.2917 157.174C72.5794 153.084 72.1183 148.579 72.9667 144.227C73.815 139.876 75.9348 135.873 79.0578 132.726C82.1808 129.579 86.1668 127.429 90.5119 126.548C94.8569 125.666 99.3657 126.093 103.468 127.774C107.571 129.455 111.083 132.315 113.56 135.992C116.037 139.668 117.368 143.997 117.385 148.431C117.402 151.376 116.838 154.296 115.723 157.023C114.609 159.749 112.968 162.229 110.893 164.319C108.818 166.41 106.351 168.071 103.633 169.205C100.915 170.34 97.9999 170.927 95.0545 170.933Z" fill="#3A4662"/>
<path d="M210.003 148.217C200.815 148.251 191.842 151.008 184.221 156.142C176.6 161.275 170.672 168.552 167.187 177.054C163.702 185.557 162.817 194.901 164.642 203.907C166.468 212.912 170.923 221.174 177.445 227.647C183.966 234.121 192.26 238.515 201.279 240.274C210.297 242.034 219.635 241.079 228.112 237.532C236.588 233.984 243.822 228.003 248.898 220.344C253.975 212.685 256.667 203.693 256.633 194.504C256.611 188.403 255.387 182.366 253.031 176.738C250.676 171.11 247.235 166.001 242.905 161.703C238.575 157.405 233.441 154.002 227.795 151.688C222.15 149.374 216.104 148.194 210.003 148.217Z" fill="#A673EF"/>
<path d="M171.586 194.802C171.586 199.88 172.591 204.908 174.542 209.596C176.493 214.284 179.352 218.54 182.954 222.118C186.556 225.697 190.831 228.527 195.532 230.447C200.233 232.367 205.267 233.338 210.345 233.304L210.045 156.301C199.842 156.312 190.059 160.373 182.848 167.593C175.637 174.812 171.586 184.598 171.586 194.802Z" fill="#6433C4"/>
<path d="M210.046 156.046L210.346 233.049C220.557 233.01 230.334 228.915 237.527 221.667C244.719 214.418 248.737 204.609 248.698 194.398C248.658 184.187 244.564 174.409 237.315 167.217C230.067 160.025 220.258 156.006 210.046 156.046Z" fill="#6433C4"/>
<path d="M192.589 174.523C192.593 175.075 192.461 175.618 192.204 176.106C191.84 175.852 191.406 175.718 190.963 175.721C189.637 175.721 188.353 176.791 188.396 182.01C188.396 186.288 188.952 187.272 190.279 187.272C190.909 187.295 191.538 187.178 192.118 186.929C192.372 187.403 192.504 187.932 192.503 188.469C192.503 189.582 191.434 190.223 189.594 190.223C186.942 190.223 185.658 188.897 185.616 182.224C185.616 174.438 188.182 173.112 190.321 173.112C192.46 173.112 192.589 173.796 192.589 174.523Z" fill="#A673EF"/>
<path d="M196.011 173.329C199.006 173.329 200.632 174.355 200.632 178.206C200.741 179.03 200.651 179.868 200.368 180.65C200.085 181.432 199.618 182.134 199.006 182.697C200.366 184.671 201.083 187.017 201.059 189.414C201.059 189.884 201.059 190.013 199.69 190.013H198.15C198.247 187.758 197.714 185.521 196.61 183.553H195.969V189.499C195.969 189.97 195.968 189.97 193.359 189.97V173.842C193.352 173.779 193.36 173.714 193.381 173.654C193.402 173.594 193.437 173.54 193.482 173.494C193.527 173.449 193.582 173.415 193.642 173.394C193.702 173.372 193.766 173.365 193.83 173.371L196.011 173.329ZM196.011 181.115H196.482C197.252 181.115 197.723 180.558 197.723 178.077C197.723 176.366 197.423 175.639 196.653 175.639H195.969L196.011 181.115Z" fill="#A673EF"/>
<path d="M206.364 189.453C206.364 189.924 206.364 189.924 203.712 189.924V183.122L200.717 173.71C200.717 173.325 200.717 173.325 203.755 173.325L204.439 176.405C204.696 177.56 205.038 179.913 205.166 180.983C205.317 179.446 205.545 177.919 205.851 176.405L206.407 173.796C206.407 173.325 206.407 173.325 209.231 173.282L206.364 182.951V189.453Z" fill="#A673EF"/>
<path d="M212.439 173.282C215.433 173.282 217.102 174.266 217.102 178.159C217.102 182.052 214.834 183.464 212.61 183.507V189.41C212.61 189.924 212.61 189.924 210 189.924V173.753C210 173.411 210 173.282 210.471 173.282H212.695H212.439ZM212.909 181.026C213.679 181.026 214.15 180.469 214.15 177.817C214.15 176.32 213.808 175.55 213.08 175.55H212.396V181.026H212.909Z" fill="#A673EF"/>
<path d="M226.256 173.241V175.209C226.256 175.594 226.256 175.722 225.785 175.722H223.219V189.369C223.219 189.882 223.218 189.882 220.609 189.882V175.722H217.7V173.754C217.7 173.412 217.7 173.284 218.171 173.284L226.256 173.241Z" fill="#A673EF"/>
<path d="M230.45 172.986C233.53 172.986 234.728 174.783 234.728 181.542C234.728 188.301 233.402 190.098 230.45 190.098C227.498 190.098 226.172 188.472 226.172 181.542C226.172 174.612 227.37 172.986 230.45 172.986ZM230.45 187.36C231.648 187.36 231.904 185.649 231.862 181.414C231.819 177.179 231.862 175.681 230.493 175.724C229.124 175.767 229.038 177.35 229.038 182.013C228.953 185.777 229.167 187.36 230.364 187.36H230.45Z" fill="#A673EF"/>
<path d="M184.208 195.7C184.212 196.251 184.08 196.795 183.823 197.282C183.459 197.029 183.025 196.894 182.582 196.897C181.213 196.897 179.972 198.01 180.015 203.186C180.015 207.464 180.571 208.448 181.897 208.448C182.528 208.471 183.157 208.354 183.737 208.106C183.996 208.577 184.128 209.108 184.122 209.646C184.122 210.758 183.01 211.4 181.213 211.4C178.561 211.4 177.234 210.074 177.234 203.4C177.234 195.614 179.801 194.288 181.94 194.288C184.079 194.288 184.208 194.972 184.208 195.7Z" fill="#A673EF"/>
<path d="M187.673 206.651C187.673 208.234 187.973 208.961 189.213 208.961C189.7 208.971 190.184 208.869 190.625 208.661V195.015C190.625 194.501 190.625 194.501 193.277 194.501V210.458C191.959 211.139 190.48 211.449 188.999 211.357C185.277 211.357 184.721 209.218 184.721 206.608V195.015C184.721 194.501 184.721 194.501 187.459 194.501L187.673 206.651Z" fill="#A673EF"/>
<path d="M197.167 194.459C200.162 194.459 201.787 195.486 201.83 199.336C201.924 200.163 201.822 201.001 201.532 201.781C201.242 202.562 200.773 203.263 200.162 203.828C201.54 205.793 202.259 208.145 202.215 210.545C202.215 211.015 202.215 211.144 200.846 211.144H199.306C199.413 208.902 198.879 206.676 197.766 204.727H197.124V210.673C197.124 211.144 197.124 211.144 194.472 211.144V195.016C194.472 194.891 194.522 194.771 194.61 194.683C194.698 194.595 194.818 194.545 194.942 194.545L197.167 194.459ZM197.167 202.245H197.68C198.408 202.245 198.878 201.689 198.878 199.208C198.878 197.497 198.579 196.77 197.809 196.77H197.124L197.167 202.245Z" fill="#A673EF"/>
<path d="M205.598 194.459C208.592 194.459 210.218 195.443 210.261 199.336C210.327 200.129 210.211 200.927 209.922 201.669C209.633 202.41 209.178 203.076 208.592 203.614C209.968 205.599 210.7 207.959 210.689 210.373C210.689 210.801 210.689 210.972 209.277 210.972H207.737C207.844 208.73 207.31 206.505 206.197 204.555H205.555V210.502C205.555 210.972 205.555 210.972 202.903 210.972V194.93C202.903 194.805 202.952 194.686 203.041 194.597C203.129 194.509 203.248 194.459 203.373 194.459H205.598ZM205.598 202.203H206.111C206.838 202.203 207.352 201.646 207.309 199.208C207.309 197.497 207.01 196.727 206.24 196.727H205.555L205.598 202.203Z" fill="#A673EF"/>
<path d="M217.401 208.664C217.401 210.889 217.401 211.017 216.931 211.017H211.583V194.847C211.583 194.722 211.633 194.602 211.721 194.514C211.81 194.426 211.929 194.376 212.054 194.376H217.744C217.744 196.472 217.744 196.729 217.273 196.729H214.236V201.007H217.145C217.145 202.975 217.145 203.403 216.717 203.403H214.236V208.878L217.401 208.664Z" fill="#A673EF"/>
<path d="M224.418 194.843C224.418 194.373 224.418 194.373 227.07 194.373V210.501C227.077 210.564 227.069 210.628 227.048 210.688C227.027 210.749 226.992 210.803 226.947 210.848C226.902 210.893 226.847 210.928 226.787 210.949C226.727 210.97 226.663 210.978 226.599 210.971H224.418L221.894 204.597C221.286 202.865 220.8 201.092 220.439 199.292C220.648 201.125 220.762 202.967 220.781 204.811V210.501C220.781 210.971 220.781 210.971 218.172 210.971V194.843C218.172 194.501 218.172 194.373 218.642 194.33H220.739L223.263 200.576C223.849 202.224 224.32 203.911 224.674 205.624C224.499 203.918 224.413 202.205 224.418 200.49V194.843Z" fill="#A673EF"/>
<path d="M234.984 195.486C234.964 196.048 234.833 196.6 234.599 197.112C234.24 196.843 233.806 196.693 233.358 196.684C231.989 196.684 230.749 197.796 230.791 202.972C230.791 207.25 231.348 208.277 232.674 208.277C233.309 208.305 233.942 208.172 234.513 207.892C234.737 208.377 234.867 208.899 234.898 209.432C234.898 210.544 233.786 211.186 231.989 211.186C229.337 211.186 228.011 209.903 228.011 203.229C228.011 195.443 230.578 194.117 232.717 194.117C234.856 194.117 234.984 194.802 234.984 195.486Z" fill="#A673EF"/>
<path d="M240.759 210.459C240.759 210.929 240.759 210.929 238.149 210.929V204.127L235.155 194.758C235.155 194.331 235.154 194.331 238.192 194.331L238.876 197.454C239.182 198.967 239.41 200.495 239.561 202.031C239.561 200.961 240.031 198.566 240.288 197.411L240.844 194.801C240.844 194.331 240.844 194.331 243.668 194.288L240.801 203.956L240.759 210.459Z" fill="#A673EF"/>
<g style="mix-blend-mode:screen" opacity="0.3">
<g style="mix-blend-mode:screen">
<path d="M198.749 149.628L164.996 183.638C164.119 187.266 163.673 190.985 163.67 194.718L209.829 148.217C206.093 148.248 202.374 148.722 198.749 149.628Z" fill="#A673EF"/>
</g>
<g style="mix-blend-mode:screen">
<path d="M226.213 151.083L166.707 210.974C169.727 218.964 174.893 225.966 181.637 231.209L246.576 165.799C241.274 159.111 234.227 154.019 226.213 151.083Z" fill="#A673EF"/>
</g>
</g>
<path d="M142.495 230.994L138.944 220.727C138.857 220.466 138.719 220.225 138.538 220.019C138.357 219.812 138.136 219.644 137.889 219.524C137.642 219.405 137.373 219.336 137.098 219.322C136.824 219.308 136.55 219.349 136.291 219.443L126.452 220.855C126.11 220.855 126.11 221.711 125.768 221.711C124.533 219.691 123.1 217.8 121.49 216.064C121.319 215.71 121.231 215.323 121.231 214.93C121.231 214.538 121.319 214.15 121.49 213.797L124.27 204.214C124.394 203.97 124.468 203.704 124.488 203.431C124.507 203.159 124.472 202.885 124.385 202.626C124.297 202.367 124.159 202.128 123.977 201.923C123.796 201.718 123.576 201.552 123.329 201.433L110.709 195.059C110.462 194.934 110.193 194.86 109.917 194.84C109.641 194.819 109.364 194.854 109.102 194.942C108.839 195.029 108.596 195.168 108.388 195.349C108.179 195.531 108.009 195.752 107.886 196L101.939 203.957C101.939 204.299 105.191 206.438 104.934 206.652C102.601 206.131 100.222 205.844 97.8326 205.797C97.4553 205.681 97.111 205.477 96.8283 205.202C96.5455 204.927 96.3325 204.588 96.2069 204.214L90.5173 194.118C90.3237 193.603 89.9429 193.181 89.4511 192.935C88.9593 192.689 88.3927 192.638 87.8649 192.792L78.3251 196C77.2556 196.385 77.555 198.952 77.8973 200.022L79.3518 209.904C79.3963 210.23 79.3963 210.561 79.3518 210.888C77.3022 212.098 75.3939 213.533 73.6621 215.165C73.316 215.335 72.9354 215.424 72.5498 215.424C72.1642 215.424 71.7837 215.335 71.4375 215.165L57.4058 211.187C57.162 211.063 56.896 210.989 56.6232 210.97C56.3505 210.95 56.0765 210.985 55.8175 211.073C55.5585 211.16 55.3196 211.299 55.1148 211.48C54.9101 211.661 54.7436 211.882 54.6251 212.128L50.1333 221.112C49.62 222.139 54.4112 224.62 55.5235 225.133L63.5234 231.08C63.8168 231.245 64.0777 231.462 64.2934 231.721C63.7299 234.047 63.4426 236.43 63.4377 238.823C63.3133 239.195 63.1063 239.535 62.8322 239.817C62.5581 240.098 62.2241 240.314 61.8549 240.448L53.299 245.24C53.0377 245.327 52.796 245.464 52.588 245.645C52.3799 245.825 52.2094 246.045 52.0863 246.291C51.9631 246.537 51.8898 246.805 51.8703 247.08C51.8508 247.355 51.8856 247.631 51.9728 247.892L50.4327 257.988C50.5146 258.253 50.6494 258.498 50.8286 258.709C51.0079 258.92 51.2281 259.093 51.4759 259.217C51.7237 259.341 51.9941 259.413 52.2706 259.43C52.5471 259.447 52.8242 259.407 53.0851 259.314L67.6729 257.303C68.0122 257.241 68.3603 257.241 68.6997 257.303C69.9105 259.34 71.3454 261.234 72.9776 262.95C73.1452 263.305 73.2321 263.692 73.2321 264.084C73.2321 264.476 73.1452 264.863 72.9776 265.218L68.6997 276.683C68.575 276.93 68.5004 277.199 68.4802 277.475C68.46 277.751 68.4947 278.028 68.5822 278.29C68.6697 278.553 68.8083 278.795 68.99 279.004C69.1717 279.213 69.3929 279.383 69.6408 279.506L78.6246 283.784C78.8715 283.909 79.1407 283.983 79.4166 284.004C79.6926 284.024 79.9697 283.989 80.2322 283.902C80.4947 283.814 80.7373 283.675 80.9459 283.494C81.1546 283.312 81.3252 283.091 81.4479 282.843L88.7633 272.961C88.9159 272.659 89.1353 272.395 89.405 272.191C91.7372 272.715 94.1165 273.002 96.5064 273.046C97.2337 273.303 93.5118 275.228 93.7685 275.998L98.6026 284.554C98.6846 284.819 98.8193 285.064 98.9986 285.275C99.1778 285.487 99.3979 285.659 99.6457 285.783C99.8935 285.907 100.164 285.98 100.44 285.996C100.717 286.013 100.994 285.974 101.255 285.88L115.116 281.303C115.635 281.119 116.062 280.737 116.302 280.24C116.542 279.744 116.577 279.173 116.399 278.651L114.987 268.811C114.904 268.474 114.904 268.122 114.987 267.784C117.016 266.563 118.909 265.129 120.634 263.507C121.319 263.164 121.361 264.362 122.089 264.747L131.671 267.485C131.915 267.609 132.181 267.683 132.454 267.702C132.727 267.722 133.001 267.687 133.26 267.599C133.519 267.512 133.757 267.373 133.962 267.192C134.167 267.011 134.333 266.79 134.452 266.544L139.757 256.32C139.997 255.819 140.033 255.244 139.858 254.717C139.682 254.19 139.308 253.752 138.815 253.496L130.816 247.55C130.51 247.385 130.234 247.168 130.003 246.908C130.562 244.581 130.863 242.2 130.901 239.807C131.026 239.434 131.233 239.094 131.507 238.813C131.781 238.531 132.115 238.315 132.484 238.181L141.04 233.39C141.525 233.225 141.937 232.894 142.203 232.456C142.469 232.018 142.572 231.501 142.495 230.994ZM102.453 267.057C97.0023 268.117 91.36 267.535 86.24 265.387C81.12 263.239 76.7524 259.62 73.6898 254.988C70.6272 250.357 69.0073 244.921 69.0352 239.368C69.0631 233.816 70.7374 228.397 73.8463 223.796C76.9553 219.196 81.3591 215.621 86.5005 213.524C91.6418 211.427 97.2896 210.903 102.729 212.017C108.169 213.131 113.156 215.833 117.059 219.783C120.962 223.732 123.605 228.75 124.655 234.202C126.061 241.503 124.513 249.063 120.35 255.223C116.188 261.382 109.751 265.639 102.453 267.057Z" fill="#192648"/>
<path d="M137.405 230.995L134.196 221.498C134.109 221.236 133.971 220.995 133.791 220.787C133.611 220.579 133.391 220.408 133.145 220.285C132.898 220.162 132.63 220.089 132.356 220.069C132.081 220.05 131.805 220.084 131.544 220.172L121.662 221.626C121.337 221.692 121.002 221.692 120.678 221.626C119.443 219.607 118.01 217.715 116.4 215.979C116.229 215.626 116.141 215.238 116.141 214.845C116.141 214.453 116.229 214.065 116.4 213.712L119.18 204.172C119.305 203.925 119.38 203.656 119.4 203.38C119.42 203.104 119.385 202.827 119.298 202.564C119.21 202.302 119.072 202.059 118.89 201.851C118.708 201.642 118.487 201.471 118.239 201.349L109.256 197.071C109.009 196.946 108.739 196.871 108.463 196.851C108.188 196.831 107.91 196.866 107.648 196.953C107.385 197.041 107.143 197.179 106.934 197.361C106.725 197.543 106.555 197.764 106.432 198.012L100.357 205.883C100.203 206.196 99.9844 206.473 99.7157 206.696C97.3883 206.139 95.007 205.838 92.6143 205.798C92.2301 205.696 91.8785 205.497 91.5938 205.22C91.309 204.942 91.1006 204.596 90.9887 204.215L86.1545 195.659C86.0726 195.394 85.938 195.149 85.7587 194.938C85.5794 194.726 85.3592 194.554 85.1114 194.43C84.8636 194.306 84.5933 194.233 84.3167 194.217C84.0402 194.2 83.7631 194.239 83.5022 194.333L74.0051 197.541C73.7438 197.628 73.5023 197.766 73.2943 197.946C73.0862 198.127 72.9157 198.346 72.7925 198.593C72.6694 198.839 72.596 199.107 72.5765 199.382C72.557 199.656 72.5918 199.932 72.679 200.193L74.1335 210.033C74.1948 210.358 74.1948 210.692 74.1335 211.017C72.1139 212.252 70.2222 213.685 68.4865 215.295C68.147 215.486 67.764 215.586 67.3743 215.586C66.9847 215.586 66.6016 215.486 66.262 215.295L56.6794 212.557C56.1787 212.316 55.6041 212.28 55.0771 212.456C54.5502 212.631 54.1123 213.005 53.8559 213.498L49.578 222.482C49.3376 222.982 49.3013 223.557 49.4769 224.084C49.6526 224.611 50.0264 225.049 50.5191 225.305L58.5189 231.252C58.8191 231.388 59.0829 231.593 59.2889 231.85C58.7254 234.176 58.4383 236.559 58.4334 238.952C58.3117 239.331 58.1062 239.678 57.8322 239.967C57.5582 240.255 57.2226 240.479 56.8504 240.62L48.2945 245.412C48.0299 245.494 47.7846 245.628 47.5733 245.807C47.3621 245.987 47.1894 246.207 47.0655 246.455C46.9416 246.703 46.8691 246.973 46.8524 247.249C46.8357 247.526 46.8751 247.803 46.9684 248.064L50.1768 257.561C50.2588 257.826 50.3935 258.071 50.5728 258.282C50.7521 258.493 50.9723 258.666 51.2201 258.79C51.4679 258.914 51.7382 258.986 52.0148 259.003C52.2913 259.02 52.5684 258.98 52.8293 258.887L62.6685 257.433C63.0078 257.369 63.3559 257.369 63.6952 257.433C64.9168 259.461 66.3508 261.354 67.9732 263.08C68.1437 263.433 68.2323 263.821 68.2323 264.213C68.2323 264.606 68.1437 264.993 67.9732 265.347L65.1925 274.887C65.0678 275.134 64.9932 275.403 64.9731 275.679C64.9529 275.955 64.9875 276.232 65.075 276.494C65.1625 276.757 65.3012 277 65.4829 277.208C65.6646 277.417 65.8857 277.587 66.1337 277.71L75.1174 282.202C75.6233 282.439 76.202 282.469 76.7296 282.285C77.2573 282.102 77.6921 281.718 77.9409 281.218L83.8872 273.261C84.0265 272.939 84.2477 272.659 84.5289 272.448C86.8559 273.008 89.2374 273.309 91.6303 273.347C92.0076 273.462 92.3519 273.666 92.6347 273.941C92.9174 274.217 93.1304 274.555 93.256 274.929L98.0473 283.485C98.1343 283.747 98.272 283.988 98.4524 284.196C98.6328 284.404 98.8524 284.575 99.0987 284.698C99.3451 284.821 99.6132 284.895 99.8879 284.914C100.163 284.934 100.438 284.899 100.7 284.812L110.197 281.603C110.461 281.521 110.707 281.386 110.918 281.207C111.129 281.028 111.302 280.808 111.426 280.56C111.55 280.312 111.622 280.042 111.639 279.765C111.656 279.489 111.616 279.212 111.523 278.951L110.111 269.111C110.03 268.789 110.03 268.45 110.111 268.128C112.139 266.905 114.032 265.471 115.758 263.85C116.109 263.669 116.497 263.575 116.892 263.575C117.286 263.575 117.675 263.669 118.025 263.85L127.608 266.587C127.851 266.717 128.117 266.796 128.391 266.819C128.666 266.842 128.942 266.808 129.202 266.72C129.463 266.632 129.703 266.491 129.907 266.306C130.111 266.121 130.275 265.897 130.389 265.646L134.881 256.663C135.004 256.419 135.078 256.153 135.098 255.88C135.118 255.607 135.083 255.333 134.995 255.074C134.907 254.815 134.769 254.576 134.587 254.372C134.406 254.167 134.186 254 133.939 253.882L125.94 247.936C125.634 247.77 125.358 247.553 125.127 247.294C125.683 244.966 125.985 242.585 126.025 240.192C126.141 239.815 126.345 239.471 126.62 239.188C126.895 238.905 127.234 238.692 127.608 238.567L136.164 233.733C136.689 233.531 137.114 233.131 137.346 232.618C137.578 232.106 137.599 231.523 137.405 230.995ZM97.3628 267.101C91.9141 268.158 86.2742 267.576 81.1563 265.428C76.0384 263.28 71.6723 259.663 68.6101 255.034C65.548 250.405 63.9274 244.971 63.9532 239.421C63.9789 233.871 65.65 228.453 68.7549 223.852C71.8599 219.252 76.2594 215.675 81.397 213.575C86.5347 211.474 92.1796 210.945 97.6183 212.053C103.057 213.161 108.045 215.856 111.951 219.799C115.858 223.742 118.508 228.755 119.565 234.203C120.972 241.509 119.425 249.074 115.263 255.241C111.101 261.407 104.664 265.672 97.3628 267.101Z" fill="#3A4662"/>
<path d="M97.3623 267.1C91.9136 268.158 86.2738 267.576 81.1559 265.428C76.038 263.28 71.6718 259.663 68.6097 255.034C65.5476 250.404 63.927 244.971 63.9528 239.421C63.9785 233.87 65.6495 228.452 68.7545 223.852C71.8595 219.251 76.259 215.675 81.3966 213.574C86.5342 211.474 92.1792 210.944 97.6178 212.052C103.056 213.16 108.044 215.856 111.951 219.799C115.858 223.742 118.507 228.754 119.565 234.203C120.972 241.508 119.425 249.074 115.263 255.24C111.101 261.407 104.664 265.672 97.3623 267.1Z" fill="#192648"/>
<path d="M96.0788 259.356C92.1577 260.113 88.1003 259.69 84.4197 258.14C80.7391 256.591 77.6005 253.985 75.4007 250.652C73.201 247.32 72.0389 243.409 72.0614 239.416C72.0839 235.423 73.29 231.526 75.5272 228.218C77.7644 224.91 80.932 222.34 84.6299 220.832C88.3277 219.324 92.3896 218.947 96.3019 219.748C100.214 220.549 103.801 222.491 106.609 225.331C109.417 228.17 111.321 231.778 112.078 235.699C112.581 238.303 112.567 240.98 112.035 243.579C111.503 246.177 110.465 248.645 108.979 250.842C107.493 253.039 105.589 254.921 103.376 256.382C101.162 257.843 98.6828 258.854 96.0788 259.356Z" fill="#3A4662"/>
<path d="M103.863 83.533L102.28 79.2551C102.241 79.1316 102.178 79.0173 102.094 78.9193C102.01 78.8214 101.906 78.7418 101.79 78.6856C101.673 78.6294 101.547 78.5978 101.417 78.5927C101.288 78.5876 101.159 78.6093 101.039 78.6562L96.3761 79.3834H96.0766C95.4634 78.4349 94.7615 77.5468 93.9804 76.7311C93.8942 76.566 93.8491 76.3826 93.8491 76.1963C93.8491 76.0101 93.8942 75.8267 93.9804 75.6616L95.2209 71.1269C95.2786 71.0092 95.3122 70.8812 95.3198 70.7503C95.3273 70.6194 95.3086 70.4883 95.2648 70.3648C95.221 70.2412 95.1529 70.1277 95.0645 70.0308C94.9762 69.934 94.8694 69.8557 94.7504 69.8007L88.6757 67.5334C88.4363 67.4282 88.1658 67.4184 87.9194 67.5058C87.6729 67.5933 87.4691 67.7714 87.3495 68.004C87.3495 68.004 84.911 72.282 84.7827 72.282C84.1188 72.0721 83.4255 71.971 82.7294 71.9825C82.5538 71.9285 82.3931 71.8347 82.2596 71.7086C82.1261 71.5825 82.0234 71.4274 81.9594 71.2552L79.6064 66.9773C79.5635 66.8522 79.4958 66.7372 79.4074 66.6389C79.319 66.5406 79.2117 66.4611 79.0919 66.4052C78.9721 66.3493 78.8424 66.3181 78.7103 66.3135C78.5782 66.3089 78.4465 66.3309 78.3231 66.3783L74.0451 67.8757C73.7751 67.988 73.5516 68.1893 73.4115 68.446C73.2715 68.7027 73.2234 68.9996 73.2751 69.2874L74.0451 74.0359C74.0685 74.1919 74.0685 74.3505 74.0451 74.5065C73.0966 75.1197 72.2085 75.8216 71.3928 76.6027C71.2277 76.6889 71.0442 76.734 70.858 76.734C70.6718 76.734 70.4883 76.6889 70.3233 76.6027L63.8207 75.0199C63.703 74.9622 63.5749 74.9285 63.444 74.921C63.3132 74.9135 63.1822 74.9322 63.0587 74.9761C62.9351 75.0199 62.8216 75.088 62.7247 75.1763C62.6278 75.2647 62.5495 75.3714 62.4945 75.4904L60.4412 79.7684C60.3842 79.883 60.3512 80.0079 60.3442 80.1356C60.3372 80.2634 60.3563 80.3913 60.4003 80.5114C60.4444 80.6315 60.5124 80.7413 60.6003 80.8342C60.6883 80.9272 60.7942 81.0012 60.9117 81.0518L66.687 84.1747L67.072 84.4742C66.815 85.5823 66.6858 86.7162 66.687 87.8538C66.6329 88.0293 66.5392 88.19 66.4131 88.3235C66.287 88.4571 66.1318 88.5598 65.9597 88.6238L61.6817 90.9339C61.4362 91.03 61.2371 91.2169 61.1256 91.4558C61.0141 91.6947 60.9988 91.9674 61.0829 92.2173L62.6657 96.4953C62.7046 96.6191 62.7677 96.7341 62.8512 96.8335C62.9347 96.9329 63.0371 97.0147 63.1524 97.0744C63.2677 97.134 63.3936 97.1703 63.523 97.1811C63.6524 97.1918 63.7828 97.1768 63.9063 97.1369L68.5693 96.3669H69.0398C69.6424 97.323 70.3452 98.2121 71.1361 99.0192C71.2223 99.1843 71.2673 99.3678 71.2673 99.554C71.2673 99.7402 71.2223 99.9237 71.1361 100.089L69.0398 106.078C68.9757 106.194 68.937 106.323 68.9262 106.456C68.9154 106.588 68.9328 106.721 68.9773 106.847C69.0217 106.972 69.0922 107.086 69.1841 107.182C69.276 107.279 69.3873 107.354 69.5105 107.404L73.7884 109.5C74.0216 109.603 74.2857 109.612 74.5251 109.524C74.7645 109.436 74.9605 109.259 75.0718 109.03L78.7081 103.725L79.0075 103.34C80.1157 103.597 81.2495 103.726 82.387 103.725C82.5598 103.784 82.7178 103.88 82.8506 104.006C82.9834 104.131 83.088 104.283 83.1572 104.452L85.51 108.431C85.5526 108.55 85.6191 108.66 85.7053 108.754C85.7915 108.847 85.8957 108.922 86.0116 108.974C86.1275 109.026 86.2527 109.054 86.3798 109.056C86.5068 109.058 86.633 109.035 86.7507 108.987L91.2425 107.404C91.4326 107.315 91.5893 107.167 91.6893 106.982C91.7894 106.797 91.8277 106.585 91.7986 106.377L91.0286 101.885C91.0052 101.729 91.0052 101.571 91.0286 101.415C91.7839 101.003 92.4755 100.485 93.082 99.8748C93.3814 99.8748 93.3387 100.217 93.7238 100.388L98.2584 101.629C98.3761 101.687 98.5042 101.72 98.635 101.728C98.7659 101.735 98.8969 101.716 99.0204 101.673C99.144 101.629 99.2575 101.561 99.3544 101.472C99.4512 101.384 99.5295 101.277 99.5845 101.158L102.665 95.8108C102.722 95.6931 102.756 95.565 102.764 95.4341C102.771 95.3032 102.752 95.1722 102.708 95.0487C102.665 94.9251 102.596 94.8116 102.508 94.7147C102.42 94.6178 102.313 94.5396 102.194 94.4846L98.3867 91.704L98.0017 91.4045C98.2588 90.2963 98.3879 89.1624 98.3867 88.0249C98.4408 87.8494 98.5345 87.6886 98.6606 87.5551C98.7867 87.4216 98.9418 87.3188 99.1139 87.2548L103.392 84.9448C103.522 84.8909 103.64 84.8095 103.736 84.7063C103.832 84.6031 103.905 84.4804 103.95 84.3464C103.994 84.2125 104.01 84.0706 103.995 83.9302C103.98 83.7899 103.935 83.6544 103.863 83.533ZM85.1678 100.859C82.6003 101.387 79.9338 101.142 77.5053 100.156C75.0767 99.1694 72.995 97.4855 71.5229 95.3166C70.0509 93.1478 69.2546 90.5913 69.2346 87.9701C69.2146 85.349 69.9718 82.7807 71.4107 80.5896C72.8495 78.3986 74.9053 76.683 77.3186 75.6597C79.7318 74.6364 82.3941 74.3511 84.9694 74.84C87.5446 75.3289 89.9172 76.5701 91.7875 78.4066C93.6578 80.2431 94.9419 82.5927 95.4776 85.1586C96.1744 88.606 95.4823 92.1892 93.5517 95.1291C91.6211 98.069 88.6082 100.128 85.1678 100.859Z" fill="#0F1D40"/>
<path d="M101.384 84.2583L99.8436 79.7664C99.8007 79.6414 99.7329 79.5263 99.6445 79.428C99.5561 79.3297 99.4489 79.2503 99.3291 79.1944C99.2093 79.1385 99.0795 79.1073 98.9474 79.1027C98.8152 79.0981 98.6835 79.1201 98.5601 79.1675L93.8972 79.8948H93.4267C92.8135 78.9463 92.1116 78.0582 91.3305 77.2424C91.2443 77.0774 91.1992 76.8939 91.1992 76.7077C91.1992 76.5215 91.2443 76.338 91.3305 76.1729L92.571 71.6383C92.6302 71.5232 92.6661 71.3975 92.6766 71.2685C92.6871 71.1394 92.6721 71.0097 92.6324 70.8865C92.5926 70.7633 92.5289 70.6491 92.445 70.5505C92.3611 70.452 92.2585 70.371 92.1432 70.3122L87.8652 68.2587C87.6258 68.1535 87.3554 68.1436 87.1089 68.2311C86.8625 68.3185 86.6586 68.4967 86.5391 68.7293L83.7584 72.5367C83.6942 72.6891 83.5908 72.8219 83.4589 72.9217C82.3653 72.6645 81.2455 72.5353 80.1221 72.5367C79.9338 72.4995 79.7591 72.4124 79.6161 72.2844C79.4731 72.1565 79.3671 71.9924 79.3093 71.8094L76.9993 67.5314C76.912 67.2891 76.7332 67.0907 76.5012 66.9787C76.2693 66.8667 76.0027 66.8501 75.7586 66.9325L71.2668 68.5154C71.0245 68.6026 70.8259 68.7815 70.7139 69.0134C70.602 69.2454 70.5854 69.512 70.6678 69.756L71.3952 74.419C71.437 74.573 71.437 74.7355 71.3952 74.8895C70.4417 75.494 69.5653 76.2122 68.7855 77.0285C68.6194 77.1114 68.4364 77.1545 68.2508 77.1545C68.0652 77.1545 67.8821 77.1114 67.716 77.0285L63.1386 75.7879C63.0209 75.7302 62.8928 75.6966 62.7619 75.6891C62.6311 75.6816 62.5001 75.7003 62.3765 75.7441C62.253 75.788 62.1395 75.8561 62.0426 75.9444C61.9457 76.0327 61.8674 76.1395 61.8124 76.2585L59.7591 80.5365C59.6638 80.7771 59.659 81.044 59.7455 81.2878C59.832 81.5317 60.004 81.7359 60.2296 81.8626L64.0371 84.6005C64.1895 84.6648 64.3223 84.768 64.4221 84.9C64.165 86.0081 64.0359 87.1421 64.0371 88.2796C63.9894 88.4583 63.898 88.6223 63.771 88.7567C63.644 88.8912 63.4854 88.9918 63.3097 89.0496L59.0318 91.3597C58.7863 91.4558 58.5871 91.6427 58.4756 91.8816C58.3641 92.1205 58.3489 92.3932 58.4329 92.6431L60.0158 96.921C60.0493 97.0483 60.1091 97.1672 60.1913 97.2699C60.2736 97.3727 60.3765 97.457 60.4934 97.5175C60.6104 97.5779 60.7387 97.6132 60.8701 97.621C61.0015 97.6288 61.133 97.609 61.2563 97.5628L65.9194 96.7927H66.3899C66.9935 97.7597 67.7117 98.6503 68.5289 99.4451C68.6117 99.6112 68.6548 99.7942 68.6548 99.9798C68.6548 100.165 68.6117 100.348 68.5289 100.515L67.2882 105.049C67.2305 105.167 67.1969 105.295 67.1894 105.426C67.1819 105.557 67.2006 105.688 67.2445 105.811C67.2883 105.935 67.3564 106.048 67.4447 106.145C67.5331 106.242 67.6399 106.32 67.7589 106.375L72.0368 108.429C72.1545 108.486 72.2826 108.52 72.4135 108.528C72.5443 108.535 72.6753 108.516 72.7989 108.473C72.9224 108.429 73.036 108.361 73.1328 108.272C73.2297 108.184 73.308 108.077 73.363 107.958L76.1008 104.151L76.4003 103.766C77.5084 104.023 78.6424 104.152 79.7799 104.151C79.9526 104.21 80.1107 104.306 80.2435 104.431C80.3763 104.557 80.4807 104.709 80.5499 104.878L82.8601 109.156C82.9562 109.402 83.143 109.601 83.3819 109.712C83.6208 109.824 83.8935 109.839 84.1434 109.755L88.4214 108.215C88.6747 108.127 88.8837 107.944 89.0036 107.704C89.1236 107.464 89.1448 107.187 89.063 106.932L88.3359 102.268C88.2919 102.115 88.2919 101.952 88.3359 101.798C89.2919 101.195 90.181 100.493 90.9882 99.7018C91.1543 99.6189 91.3373 99.5758 91.5229 99.5758C91.7085 99.5758 91.8916 99.6189 92.0577 99.7018L96.5923 100.942C96.7074 101.002 96.8331 101.037 96.9622 101.048C97.0912 101.058 97.221 101.043 97.3442 101.004C97.4674 100.964 97.5815 100.9 97.6801 100.816C97.7786 100.732 97.8596 100.63 97.9185 100.515L99.9719 96.2366C100.036 96.1202 100.075 95.9914 100.086 95.8589C100.096 95.7264 100.079 95.5931 100.034 95.4678C99.99 95.3425 99.9196 95.2281 99.8277 95.132C99.7358 95.0359 99.6245 94.9604 99.5013 94.9105L95.694 92.1297L95.309 91.8303C95.5661 90.7367 95.6953 89.6169 95.694 88.4935C95.7453 88.3116 95.8374 88.1438 95.9634 88.0029C96.0895 87.862 96.246 87.7518 96.4212 87.6807L100.699 85.3705C100.929 85.3009 101.126 85.1493 101.253 84.9444C101.379 84.7394 101.425 84.4953 101.384 84.2583Z" fill="#192648"/>
<path d="M82.6889 101.542C80.1214 102.07 77.455 101.825 75.0265 100.839C72.5979 99.8527 70.5162 98.1687 69.0442 95.9999C67.5721 93.831 66.7758 91.2745 66.7558 88.6534C66.7358 86.0322 67.4931 83.4639 68.9319 81.2728C70.3707 79.0818 72.4264 77.3663 74.8397 76.3429C77.2529 75.3196 79.9154 75.0344 82.4906 75.5233C85.0658 76.0121 87.4384 77.2533 89.3087 79.0898C91.179 80.9264 92.4631 83.2759 92.9988 85.8418C93.3554 87.5499 93.3715 89.3115 93.0461 91.0257C92.7206 92.74 92.06 94.3731 91.1023 95.8316C90.1445 97.2901 88.9084 98.5453 87.4647 99.5252C86.021 100.505 84.398 101.19 82.6889 101.542Z" fill="#3A4662"/>
<path d="M81.7452 96.967C80.0908 97.3008 78.3747 97.1378 76.8127 96.4985C75.2507 95.8593 73.9126 94.7724 72.9668 93.3745C72.0211 91.9767 71.5099 90.3303 71.4976 88.6426C71.4853 86.9549 71.9723 85.3012 72.8975 83.8897C73.8227 82.4782 75.1448 81.3718 76.6973 80.7098C78.2498 80.0477 79.9633 79.8597 81.6224 80.1692C83.2815 80.4787 84.812 81.272 86.0214 82.4493C87.2307 83.6266 88.0649 85.1352 88.4189 86.7854C88.6564 87.8926 88.6718 89.036 88.4642 90.1492C88.2565 91.2624 87.8298 92.3232 87.209 93.2703C86.5882 94.2174 85.7856 95.0319 84.8477 95.6664C83.9098 96.301 82.8553 96.7431 81.7452 96.967Z" fill="#192648"/>
<path d="M30.7137 163.361C26.9823 163.361 23.3348 164.467 20.2323 166.54C17.1299 168.613 14.7118 171.56 13.2839 175.007C11.856 178.454 11.4824 182.248 12.2104 185.907C12.9383 189.567 14.735 192.928 17.3735 195.567C20.0119 198.205 23.3735 200.002 27.0331 200.73C30.6927 201.458 34.486 201.084 37.9332 199.656C41.3805 198.229 44.327 195.81 46.4 192.708C48.473 189.606 49.5795 185.958 49.5795 182.227C49.5795 177.223 47.5919 172.425 44.0538 168.887C40.5158 165.349 35.7172 163.361 30.7137 163.361Z" fill="#A673EF"/>
<path d="M15.0563 182.223C15.0563 184.279 15.4613 186.315 16.2482 188.215C17.035 190.115 18.1884 191.841 19.6423 193.295C21.0962 194.749 22.8222 195.902 24.7218 196.689C26.6215 197.476 28.6575 197.881 30.7137 197.881V166.523C28.6539 166.523 26.6145 166.93 24.712 167.719C22.8096 168.509 21.0816 169.666 19.6271 171.124C18.1726 172.583 17.0202 174.314 16.2359 176.218C15.4515 178.123 15.0507 180.164 15.0563 182.223Z" fill="#6433C4"/>
<path d="M30.7148 166.524V197.881C32.8426 197.992 34.9709 197.669 36.9698 196.931C38.9688 196.194 40.7968 195.057 42.3422 193.59C43.8877 192.123 45.1184 190.357 45.9595 188.399C46.8005 186.442 47.2342 184.333 47.2342 182.202C47.2342 180.072 46.8005 177.963 45.9595 176.005C45.1184 174.048 43.8877 172.281 42.3422 170.815C40.7968 169.348 38.9688 168.211 36.9698 167.473C34.9709 166.735 32.8426 166.412 30.7148 166.524Z" fill="#6433C4"/>
<path d="M30.7086 195.53C28.0772 195.53 25.5049 194.75 23.317 193.288C21.1291 191.826 19.4238 189.748 18.4168 187.317C17.4099 184.886 17.1464 182.211 17.6598 179.63C18.1731 177.05 19.4402 174.679 21.3009 172.818C23.1616 170.958 25.5322 169.69 28.113 169.177C30.6938 168.664 33.3689 168.927 35.8 169.934C38.2311 170.941 40.3089 172.646 41.7708 174.834C43.2328 177.022 44.013 179.594 44.013 182.226C44.0017 185.751 42.5964 189.128 40.1038 191.621C37.6112 194.114 34.2336 195.519 30.7086 195.53ZM30.7086 169.52C28.1702 169.52 25.6889 170.273 23.5784 171.683C21.4679 173.093 19.823 175.098 18.8516 177.443C17.8802 179.788 17.6261 182.368 18.1213 184.858C18.6165 187.348 19.8388 189.634 21.6337 191.429C23.4285 193.224 25.7153 194.446 28.2048 194.942C30.6943 195.437 33.2747 195.183 35.6198 194.211C37.9649 193.24 39.9694 191.595 41.3796 189.484C42.7898 187.374 43.5424 184.893 43.5424 182.354C43.5424 178.95 42.1903 175.686 39.7834 173.279C37.3766 170.873 34.1123 169.52 30.7086 169.52Z" fill="#A673EF"/>
<path d="M21.3851 177.56C21.3851 175.806 22.1124 174.822 24.1658 174.822H26.2192C26.5937 174.766 26.9761 174.797 27.3363 174.914C27.6964 175.031 28.0244 175.23 28.2943 175.496C28.5641 175.761 28.7683 176.086 28.8908 176.445C29.0132 176.803 29.0506 177.185 28.9999 177.56V179.828C28.9999 181.539 28.2298 182.565 26.1764 182.565H24.123C23.7501 182.624 23.3686 182.593 23.0097 182.476C22.6508 182.36 22.3248 182.16 22.0579 181.893C21.791 181.626 21.5909 181.3 21.474 180.941C21.3571 180.582 21.3266 180.2 21.3851 179.828V177.56ZM24.6363 180.041H25.6631C26.3476 180.041 26.4759 179.656 26.4759 179.229V178.159C26.4759 177.475 26.2191 177.346 25.7058 177.346H24.6791C24.2513 177.346 23.9091 177.346 23.9091 178.159V179.1C23.9091 179.656 23.9518 180.041 24.6363 180.041ZM33.9624 174.822H36.4435L27.6309 189.624H24.9786L33.9624 174.822ZM32.3794 184.533C32.3794 182.822 33.1068 181.795 35.1602 181.795H37.2135C37.5879 181.739 37.9705 181.77 38.3307 181.887C38.6908 182.004 39.0188 182.203 39.2887 182.469C39.5585 182.735 39.7627 183.059 39.8852 183.418C40.0076 183.776 40.0451 184.158 39.9943 184.533V186.843C39.9943 188.555 39.2242 189.538 37.1708 189.538H35.1174C34.7486 189.595 34.3716 189.565 34.0165 189.451C33.6614 189.336 33.338 189.14 33.0721 188.878C32.8062 188.616 32.605 188.296 32.4848 187.943C32.3645 187.589 32.3284 187.213 32.3794 186.843V184.533ZM35.6307 187.015H36.6574C37.3418 187.015 37.4702 186.672 37.4702 186.202V185.132C37.4702 184.491 37.2135 184.319 36.7002 184.319H35.6735C35.2457 184.319 34.9035 184.319 34.9035 185.132V186.202C34.9035 186.672 34.989 187.015 35.6307 187.015Z" fill="#A673EF"/>
<g style="mix-blend-mode:screen" opacity="0.3">
<g style="mix-blend-mode:screen">
<path d="M26.179 163.916L12.4039 177.691C12.043 179.161 11.8563 180.669 11.8478 182.183L30.6708 163.36C29.157 163.371 27.6497 163.557 26.179 163.916Z" fill="#A673EF"/>
</g>
<g style="mix-blend-mode:screen">
<path d="M37.3027 164.559L13.0466 188.772C14.2448 192.035 16.3347 194.895 19.0785 197.029L45.5591 170.548C43.406 167.835 40.5505 165.763 37.3027 164.559Z" fill="#A673EF"/>
</g>
</g>
</svg>
