<svg width="320" height="286" viewBox="0 0 320 286" fill="none" xmlns="http://www.w3.org/2000/svg">
<path d="M245.785 273.631L210.303 238.697L206.939 242.098L242.421 277.032L245.785 273.631Z" fill="#292B37"/>
<path d="M176.003 149.756C175.641 149.618 175.346 149.344 175.184 148.992C175.021 148.64 175.003 148.239 175.132 147.874L177.454 141.72C178.195 141.559 178.963 141.559 179.704 141.72C180.103 141.72 180.466 143.06 180.466 143.06L177.926 148.924C177.78 149.288 177.497 149.579 177.136 149.735C176.776 149.891 176.369 149.899 176.003 149.756Z" fill="#FFCD9C"/>
<path d="M196.465 145.374H166.679V149.465H196.465V145.374Z" fill="#383C48"/>
<path d="M234.235 207.71L190.108 146.011L186.948 148.26L231.075 209.959L234.235 207.71Z" fill="#383C48"/>
<path d="M185.399 140.705C184.966 140.082 184.306 139.654 183.56 139.512C182.813 139.37 182.041 139.525 181.409 139.945L178.035 142.261C177.413 142.687 176.985 143.34 176.842 144.078C176.699 144.816 176.854 145.581 177.273 146.207L179.595 149.573C180.021 150.193 180.675 150.621 181.416 150.763C182.156 150.905 182.922 150.751 183.549 150.333L186.923 148.053C187.236 147.842 187.504 147.571 187.712 147.257C187.919 146.942 188.063 146.59 188.133 146.22C188.204 145.85 188.201 145.47 188.124 145.101C188.047 144.732 187.898 144.382 187.685 144.071L185.399 140.705Z" fill="#FFCD9C"/>
<path d="M177.782 135.122L173.8 138.662L179.954 145.553L183.936 142.014L177.782 135.122Z" fill="#FFCD9C"/>
<path d="M181.3 134.624L174.044 142.334C149.264 118.987 131.85 98.4276 122.018 65.8505C121.796 65.1712 121.715 64.454 121.778 63.7423C121.842 63.0307 122.05 62.3393 122.389 61.71C122.728 61.0806 123.191 60.5265 123.751 60.081C124.311 59.6355 124.956 59.3078 125.646 59.1179C127.044 58.8083 128.508 59.0498 129.732 59.7918C130.955 60.5338 131.844 61.7189 132.213 63.0995C141.537 93.8668 157.935 112.617 181.3 134.624Z" fill="#112D46"/>
<path d="M118.103 147.548V141.504C118.112 136.083 115.968 130.879 112.14 127.032C108.311 123.185 103.111 121.009 97.6771 120.98H97.4957C92.0652 121.018 86.8701 123.197 83.0437 127.042C79.2173 130.887 77.0699 136.085 77.0701 141.504V147.548H118.103Z" fill="#405067"/>
<path d="M12.1472 239.9L7.94678 242.342L10.8511 247.314L15.0515 244.872L12.1472 239.9Z" fill="#CF9B72"/>
<path d="M9.09787 241.094L3.01855 244.632L6.43735 250.479L12.5167 246.94L9.09787 241.094Z" fill="#EDD6B6"/>
<path d="M118.103 147.583V153.194C106.892 194.675 56.1004 230.474 17.8976 250.418C15.7208 246.437 11.3309 239.559 9.19043 235.542C41.8424 217.443 86.4304 183.382 96.7702 147.583H118.103Z" fill="#173854"/>
<g style="mix-blend-mode:multiply" opacity="0.3">
<g style="mix-blend-mode:multiply">
<path d="M96.768 147.583C93.7423 157.166 89.0781 166.155 82.9816 174.152C87.4078 177.989 90.2376 183.056 87.698 188.16C71.7348 217.335 44.1621 232.899 16.2266 247.667L17.7866 250.418C55.9894 230.474 106.781 194.675 117.992 153.194V147.583H96.768Z" fill="#173854"/>
</g>
</g>
<path d="M11.9827 247.814C11.6546 247.239 11.1142 246.815 10.477 246.633C9.83977 246.45 9.15623 246.523 8.5724 246.837L6.577 247.959C6.00342 248.279 5.57918 248.812 5.3959 249.442C5.21262 250.072 5.28501 250.748 5.59744 251.325C5.75284 251.617 5.9655 251.874 6.22274 252.082C6.47999 252.29 6.77657 252.444 7.0948 252.536C7.41302 252.627 7.74638 252.653 8.07503 252.613C8.40368 252.573 8.7209 252.467 9.00776 252.302L11.0032 251.217C11.5793 250.889 12.0042 250.35 12.1873 249.714C12.3703 249.079 12.2969 248.397 11.9827 247.814Z" fill="#2E3133"/>
<path d="M0.627603 244.626C0.34265 244.793 0.134011 245.064 0.0459552 245.381C-0.0421007 245.699 -0.00263908 246.038 0.155967 246.327L3.78395 252.807L9.40735 262.978L10.8585 262.182L1.02668 244.445L0.627603 244.626Z" fill="#17191A"/>
<path d="M10.7884 262.183L0.956543 244.446L2.6617 243.505L4.91106 242.275C5.16769 242.136 5.46526 242.093 5.75089 242.152C6.03652 242.212 6.2917 242.371 6.47109 242.6C5.92347 242.899 5.5167 243.402 5.33989 243.999C5.16309 244.596 5.23067 245.238 5.52782 245.786C5.83394 246.335 6.34441 246.741 6.94873 246.917C7.55305 247.093 8.20259 247.025 8.75673 246.727L10.8972 251.251C10.6406 251.398 10.4278 251.611 10.2805 251.867C10.2648 251.95 10.2648 252.036 10.2805 252.12C10.1802 252.487 10.1802 252.875 10.2805 253.242V253.496C10.3671 253.723 10.4765 253.941 10.607 254.147L11.8042 256.319C12.1611 256.756 12.4197 257.265 12.5629 257.811C12.706 258.356 12.7303 258.926 12.634 259.482C12.5377 260.037 12.3232 260.566 12.0048 261.032C11.6865 261.498 11.2717 261.89 10.7884 262.183Z" fill="#2E3133"/>
<path d="M149.33 266.477L143.667 267.574L144.593 272.335L150.256 271.239L149.33 266.477Z" fill="#FFCD9C"/>
<path d="M150.425 269.445L143.766 270.741L145.114 277.633L151.773 276.337L150.425 269.445Z" fill="#FFF7DC"/>
<path d="M109.613 161.952C105.719 156.862 101.502 152.026 96.9872 147.474H76.7793V159.925C76.786 161.367 77.2492 162.77 78.1028 163.934C78.9563 165.097 80.1565 165.962 81.532 166.405C112.95 187.652 131.562 231.197 138.092 268.661C142.591 267.937 149.883 267.104 154.346 266.38C149.23 231.885 132.796 187.978 109.613 161.952Z" fill="#255076"/>
<path d="M151.116 270.326C150.462 270.433 149.878 270.794 149.49 271.33C149.102 271.866 148.944 272.533 149.048 273.186L149.447 275.466C149.563 276.112 149.928 276.686 150.464 277.066C151 277.445 151.665 277.598 152.314 277.493C152.97 277.378 153.555 277.01 153.942 276.468C154.329 275.926 154.487 275.254 154.381 274.597L153.982 272.353C153.93 272.031 153.813 271.723 153.64 271.447C153.467 271.17 153.241 270.93 152.974 270.742C152.708 270.553 152.406 270.419 152.087 270.348C151.768 270.277 151.438 270.269 151.116 270.326Z" fill="#424549"/>
<path d="M144.371 279.957C144.397 280.12 144.456 280.275 144.544 280.415C144.631 280.555 144.746 280.676 144.882 280.77C145.017 280.865 145.17 280.931 145.332 280.965C145.493 281 145.66 281.002 145.822 280.97L153.078 279.74L164.579 277.785L164.289 276.156L144.262 279.559L144.371 279.957Z" fill="#2E3133"/>
<path d="M130.149 62.5929L120.788 148.162C120.769 148.552 120.671 148.934 120.498 149.284C120.359 149.598 120.176 149.891 119.954 150.153C119.689 150.453 119.366 150.698 119.004 150.872C118.643 151.046 118.25 151.146 117.85 151.166C117.648 151.22 117.435 151.22 117.233 151.166L77.325 146.859H76.7808C76.469 146.779 76.174 146.645 75.9101 146.461C75.4125 146.092 75.018 145.603 74.7639 145.039C74.5099 144.475 74.4049 143.855 74.4589 143.239L83.8191 57.6701C83.8191 57.4167 83.8191 57.1996 83.8191 57.0186C84.058 56.2567 84.5427 55.5949 85.1977 55.1363C85.804 54.7236 86.5343 54.5318 87.2657 54.5934H88.9708L101.959 53.6884H102.939L108.635 53.3265L116.544 55.7517L117.741 56.1137L121.369 57.2358L125.614 58.5389L127.21 59.0094C127.797 59.2523 128.337 59.5952 128.806 60.0229C129.137 60.2931 129.407 60.6289 129.601 61.009C129.795 61.3891 129.907 61.8052 129.931 62.2309C130.015 62.3445 130.088 62.4657 130.149 62.5929Z" fill="#E1E7E8"/>
<path d="M111.064 62.9206L110.012 91.118L103.264 117.542L101.559 90.213L106.747 62.4501L111.064 62.9206Z" fill="#DB3737"/>
<path d="M104.536 62.1939C104.496 62.5155 104.521 62.8419 104.609 63.1538C104.697 63.4657 104.847 63.7568 105.05 64.0099C105.253 64.2629 105.505 64.4729 105.79 64.6272C106.076 64.7816 106.39 64.8773 106.713 64.9086L110.341 65.3068C110.99 65.378 111.641 65.1893 112.151 64.7822C112.662 64.375 112.989 63.7826 113.062 63.135C113.133 62.4871 112.944 61.8375 112.536 61.3286C112.128 60.8197 111.534 60.493 110.885 60.4202L107.257 60.0221C106.938 59.987 106.614 60.0155 106.306 60.1059C105.997 60.1964 105.71 60.347 105.46 60.549C105.211 60.7509 105.004 61.0003 104.851 61.2827C104.699 61.565 104.604 61.8747 104.572 62.1939H104.536Z" fill="#BD2626"/>
<path d="M130.148 62.5952L120.788 148.164C120.769 148.554 120.67 148.936 120.498 149.287C120.358 149.6 120.175 149.893 119.953 150.155C119.688 150.456 119.365 150.7 119.004 150.874C118.642 151.048 118.25 151.148 117.849 151.169C117.647 151.223 117.434 151.223 117.232 151.169L77.3245 146.861H76.7803C76.4685 146.782 76.1735 146.647 75.9096 146.463C75.4121 146.095 75.0175 145.605 74.7634 145.041C74.5094 144.477 74.4044 143.858 74.4584 143.242L83.8186 57.6724C83.8186 57.4191 83.8186 57.2019 83.8186 57.0209C84.0575 56.259 84.5422 55.5972 85.1972 55.1387C85.8035 54.7259 86.5338 54.5341 87.2652 54.5957H88.9704L101.959 53.6908L104.68 100.747L117.813 55.935L121.441 57.0571L125.686 58.3602L127.282 58.8308C127.869 59.0737 128.409 59.4166 128.878 59.8443C129.209 60.1145 129.48 60.4502 129.673 60.8303C129.867 61.2104 129.979 61.6266 130.003 62.0523C130.074 62.2265 130.123 62.4089 130.148 62.5952Z" fill="#173854"/>
<path d="M130.145 61.9053C130.121 61.4796 130.009 61.0635 129.815 60.6834C129.621 60.3033 129.351 59.9675 129.02 59.6973C128.595 59.3019 128.104 58.9835 127.569 58.7562V59.2267C125.465 78.3024 126.553 102.301 113.057 116.49C114.871 116.671 116.504 118.698 117.302 119.675C120.93 128.363 117.991 139.077 111.207 142.009C99.5191 145.824 87.1401 147.059 74.9268 145.629C75.1491 145.989 75.4459 146.297 75.7975 146.533C76.0615 146.717 76.3564 146.852 76.6682 146.932H77.2124L117.12 151.239C117.322 151.293 117.535 151.293 117.737 151.239C118.138 151.218 118.53 151.118 118.892 150.944C119.253 150.77 119.576 150.526 119.841 150.226C120.063 149.963 120.246 149.671 120.386 149.357C120.558 149.006 120.657 148.625 120.676 148.235L130.145 62.593C130.18 62.3651 130.18 62.1332 130.145 61.9053Z" fill="#112D46"/>
<path d="M103.118 53.4009L98.0753 53.7628L91.6174 71.1735L100.361 78.4128L97.4585 89.5977L104.714 100.457L103.118 53.4009Z" fill="#1D67A8"/>
<path d="M116.76 55.4264L120.388 56.5846L122.31 74.683L113.059 80.1126L114.22 92.0575L104.751 100.6L116.76 55.4264Z" fill="#1D67A8"/>
<path d="M105.876 110.192C105.948 109.502 105.744 108.812 105.31 108.27C104.875 107.728 104.245 107.379 103.554 107.297C103.042 107.243 102.525 107.342 102.069 107.581C101.612 107.819 101.237 108.188 100.99 108.639C100.743 109.09 100.635 109.604 100.68 110.116C100.725 110.628 100.92 111.115 101.242 111.517C101.564 111.918 101.998 112.216 102.489 112.372C102.979 112.528 103.506 112.536 104.001 112.394C104.496 112.253 104.939 111.968 105.272 111.576C105.606 111.184 105.816 110.703 105.876 110.192Z" fill="#222E38"/>
<path d="M103.009 136.435C103.064 135.923 102.965 135.405 102.725 134.948C102.485 134.492 102.114 134.116 101.66 133.87C101.205 133.624 100.688 133.517 100.173 133.564C99.6586 133.612 99.1693 133.81 98.7677 134.135C98.366 134.459 98.0699 134.896 97.9168 135.388C97.7638 135.881 97.7608 136.408 97.9081 136.902C98.0554 137.397 98.3464 137.836 98.7443 138.166C99.1422 138.495 99.6291 138.699 100.143 138.752C100.831 138.823 101.519 138.619 102.056 138.185C102.594 137.75 102.936 137.121 103.009 136.435Z" fill="#222E38"/>
<path d="M104.459 123.295C104.521 122.611 104.313 121.93 103.879 121.396C103.446 120.862 102.821 120.518 102.137 120.436C101.794 120.396 101.446 120.424 101.113 120.519C100.781 120.614 100.471 120.774 100.201 120.989C99.9308 121.205 99.7064 121.471 99.5406 121.774C99.3747 122.077 99.2708 122.409 99.2347 122.752C99.1732 123.437 99.3812 124.118 99.8147 124.652C100.248 125.186 100.873 125.53 101.557 125.612C101.9 125.652 102.248 125.624 102.58 125.529C102.913 125.434 103.223 125.274 103.493 125.059C103.763 124.843 103.987 124.576 104.153 124.274C104.319 123.971 104.423 123.638 104.459 123.295Z" fill="#222E38"/>
<path d="M115.637 60.8932C116.243 59.9668 116.627 58.9143 116.762 57.8165L119.229 35.1211C119.431 33.2875 118.895 31.4489 117.738 30.0098C116.581 28.5707 114.899 27.6489 113.061 27.4473C111.223 27.2457 109.381 27.7808 107.938 28.9348C106.496 30.0888 105.572 31.7672 105.37 33.6008L102.903 56.2962C102.79 57.413 102.939 58.5407 103.338 59.5901L115.637 60.8932Z" fill="#F3AD7A"/>
<g style="mix-blend-mode:multiply" opacity="0.3">
<path d="M110.049 51.5906C112.395 50.8585 114.848 50.528 117.305 50.6133L119.01 35.1211C119.212 33.2875 118.676 31.4489 117.519 30.0098C116.362 28.5707 114.68 27.6489 112.842 27.4473C111.005 27.2457 109.162 27.7808 107.719 28.9348C106.277 30.0888 105.353 31.7672 105.151 33.6008L102.684 56.2962C102.553 57.4947 102.739 58.7065 103.223 59.8114C103.706 60.9162 104.471 61.8756 105.441 62.5945C105.006 57.9251 105.405 53.7263 110.049 51.5906Z" fill="#F3AD7A"/>
</g>
<path d="M129.748 36.8926C129.309 40.6534 127.412 44.0932 124.462 46.4749C121.512 48.8565 117.744 49.9905 113.966 49.6339C110.184 49.2139 106.718 47.3281 104.316 44.3829C101.913 41.4377 100.767 37.6688 101.123 33.8882L102.683 18.939C103.113 15.1648 105.012 11.7101 107.971 9.31991C110.93 6.9297 114.712 5.7954 118.501 6.16153C122.176 6.5893 125.548 8.40122 127.929 11.227C130.309 14.0527 131.518 17.6789 131.308 21.3642C131.326 21.5447 131.326 21.7266 131.308 21.9071L129.748 36.8926Z" fill="#FFCD9C"/>
<path d="M109.793 19.8447C102.537 25.6724 100.905 41.5628 109.793 46.7389C112.685 48.4222 115.988 49.2741 119.335 49.2004C122.097 48.4081 124.561 46.8156 126.414 44.6246C128.268 42.4336 129.428 39.7429 129.747 36.8934L131.307 21.9079C124.196 19.1932 115.634 15.4649 109.793 19.8447Z" fill="#FFCD9C"/>
<g style="mix-blend-mode:multiply" opacity="0.3">
<path d="M109.794 46.8114C100.906 41.6352 102.538 25.7448 109.794 19.9172C115.708 15.5373 124.306 19.2656 131.308 21.9079C131.326 21.7516 131.326 21.5938 131.308 21.4374C131.105 17.9607 129.653 14.6735 127.217 12.1786C124.782 9.6836 121.527 8.14802 118.049 7.85335C114.571 7.55867 111.103 8.52465 108.281 10.5742C105.459 12.6237 103.471 15.6195 102.684 19.0122L101.124 33.8891C100.767 37.664 101.908 41.428 104.303 44.3722C106.698 47.3164 110.154 49.2059 113.93 49.6347C115.731 49.8389 117.555 49.6914 119.3 49.2004C115.972 49.2894 112.683 48.4629 109.794 46.8114Z" fill="#FEC08A"/>
</g>
<path d="M131.38 20.8215C131.38 20.8215 135.987 0.913189 116.142 0.189253C111.426 0.189253 104.278 -2.05494 95.2448 8.9127C93.0527 12.5816 91.8062 16.7353 91.6168 21.0024C90.6735 30.0878 95.2447 38.1597 101.739 40.0781C101.14 38.1351 100.942 36.0909 101.158 34.0695L101.775 27.3007C102.418 28.2151 102.931 29.2139 103.299 30.2688C104.206 33.3455 105.73 32.1511 105.911 30.7032L106.999 19.8441C107.423 17.1406 108.255 14.5166 109.466 12.0618C111.825 14.306 109.829 15.1023 117.738 16.0796C128.078 17.4913 131.38 20.8215 131.38 20.8215Z" fill="#713815"/>
<path d="M116.142 0.189253C111.426 0.189253 104.278 -2.05494 95.2448 8.9127C93.0527 12.5816 91.8062 16.7353 91.6168 21.0024C90.6735 30.0878 95.2447 38.1597 101.739 40.0781L101.412 38.8475C99.5621 36.6033 96.5871 35.0106 95.6076 32.513C93.2131 25.6356 100.977 23.3552 106.891 20.9662V19.9889C107.314 17.2853 108.146 14.6614 109.358 12.2066C111.716 14.4508 109.72 15.2472 117.629 16.2245C127.897 17.4914 131.198 20.8215 131.198 20.8215C131.198 20.8215 135.987 0.913189 116.142 0.189253Z" fill="#52290F"/>
<path d="M101.884 34.4319C100.324 35.0111 98.2564 33.4908 97.4945 31.0656C96.7327 28.6404 97.2043 26.2153 98.7643 25.6723C100.324 25.1293 102.392 26.6134 103.154 29.0386C103.916 31.4638 103.444 33.889 101.884 34.4319Z" fill="#FEC08A"/>
<path d="M101.124 31.7518C100.543 32.0775 99.6363 31.5708 99.1284 30.6297C98.6205 29.6886 98.6931 28.675 99.1284 28.3493C99.5638 28.0235 100.652 28.3493 101.16 29.4714C101.668 30.5935 101.849 31.426 101.124 31.7518Z" fill="#F3AD7A"/>
<path d="M115.632 28.386C115.637 28.6475 115.59 28.9073 115.495 29.1506C115.399 29.394 115.256 29.6162 115.074 29.8044C114.892 29.9927 114.675 30.1433 114.434 30.2477C114.194 30.3521 113.935 30.4083 113.673 30.413C113.155 30.2917 112.704 29.9756 112.413 29.5306C112.123 29.0857 112.015 28.546 112.113 28.024C112.113 26.7933 113.165 25.8884 114.109 25.997C114.367 26.0527 114.611 26.1589 114.828 26.3094C115.044 26.46 115.229 26.6519 115.371 26.8741C115.512 27.0963 115.608 27.3443 115.653 27.6039C115.698 27.8634 115.691 28.1292 115.632 28.386Z" fill="#2A2626"/>
<path d="M114 27.3013C113.991 27.5193 113.901 27.7259 113.746 27.8801C113.591 28.0344 113.384 28.1249 113.166 28.1338C112.767 28.1338 112.513 27.6271 112.549 27.1565C112.549 26.9419 112.632 26.7354 112.781 26.5803C112.929 26.4251 113.132 26.3333 113.347 26.324C113.563 26.3677 113.754 26.495 113.876 26.6782C113.998 26.8613 114.043 27.0854 114 27.3013Z" fill="#FEFEFE"/>
<path d="M123.072 41.202C122.998 41.7633 122.889 42.3194 122.746 42.8671C122.207 43.6642 121.445 44.2851 120.554 44.652C119.664 45.019 118.684 45.1158 117.739 44.9302C116.774 44.9138 115.835 44.6175 115.036 44.0776C114.237 43.5377 113.613 42.7775 113.24 41.8897C113.24 41.6002 113.24 40.4419 113.24 40.1523L123.072 41.202Z" fill="#2A2626"/>
<path d="M122.637 41.1279C122.655 41.2236 122.655 41.3218 122.637 41.4175C121.229 42.0503 119.679 42.3 118.143 42.141C116.607 41.9821 115.141 41.4202 113.894 40.5126C113.867 40.4178 113.867 40.3177 113.894 40.223L122.637 41.1279Z" fill="#FEFEFE"/>
<path d="M119.261 38.088C118.671 38.0343 118.121 37.764 117.719 37.3294C117.317 36.8947 117.091 36.3267 117.084 35.7353C117.338 33.7083 117.919 32.7671 118.173 30.7401C118.167 30.4772 118.216 30.216 118.318 29.9734C118.419 29.7307 118.571 29.512 118.762 29.3312C118.953 29.1505 119.181 29.0118 119.429 28.924C119.677 28.8362 119.942 28.8014 120.204 28.8217C120.467 28.8607 120.719 28.9525 120.945 29.0916C121.171 29.2307 121.366 29.4141 121.518 29.6308C121.671 29.8474 121.778 30.0927 121.833 30.3519C121.888 30.611 121.889 30.8786 121.837 31.1383C121.837 33.1653 121.837 34.215 121.837 36.2058C121.722 36.7847 121.394 37.2994 120.917 37.648C120.44 37.9966 119.849 38.1537 119.261 38.088Z" fill="#F3AD7A"/>
<path opacity="0.3" d="M121.112 35.9528C121.112 36.6405 120.641 37.1473 120.241 37.1111C119.842 37.0749 119.552 36.4957 119.625 35.808C119.697 35.1203 120.06 34.6497 120.495 34.6859C120.931 34.722 121.185 35.3736 121.112 35.9528Z" fill="#FFE9D4"/>
<path d="M116.614 25.0937L110.446 24.4422C110.202 24.4148 109.979 24.2936 109.823 24.1043C109.667 23.9151 109.591 23.6727 109.612 23.4286C109.62 23.3027 109.655 23.18 109.714 23.0683C109.772 22.9566 109.854 22.8584 109.953 22.78C110.052 22.7016 110.167 22.6448 110.289 22.6131C110.411 22.5814 110.539 22.5756 110.664 22.5961L116.795 23.2114C117.042 23.2474 117.266 23.3761 117.421 23.5712C117.576 23.7663 117.651 24.0131 117.63 24.2612C117.602 24.5045 117.481 24.7276 117.291 24.883C117.101 25.0385 116.858 25.1141 116.614 25.0937Z" fill="#622E13"/>
<path d="M129.564 26.506L123.433 25.8545C123.309 25.8511 123.186 25.821 123.074 25.7663C122.962 25.7116 122.863 25.6336 122.784 25.5375C122.705 25.4414 122.648 25.3295 122.616 25.2093C122.584 25.0892 122.578 24.9635 122.599 24.8409C122.608 24.7186 122.641 24.5993 122.698 24.4904C122.754 24.3814 122.833 24.2851 122.928 24.2073C123.023 24.1294 123.132 24.0716 123.251 24.0374C123.369 24.0032 123.492 23.9934 123.614 24.0084L129.746 24.66C129.868 24.6689 129.988 24.7026 130.097 24.759C130.206 24.8154 130.303 24.8933 130.381 24.9881C130.459 25.0829 130.517 25.1926 130.551 25.3104C130.585 25.4282 130.595 25.5517 130.58 25.6735C130.571 25.7958 130.538 25.9151 130.481 26.0241C130.425 26.133 130.346 26.2293 130.251 26.3072C130.156 26.385 130.046 26.4428 129.928 26.477C129.81 26.5112 129.686 26.5211 129.564 26.506Z" fill="#622E13"/>
<path d="M127.895 29.655C127.9 29.9194 127.852 30.1822 127.754 30.4279C127.656 30.6737 127.509 30.8975 127.324 31.0862C127.138 31.2749 126.916 31.4248 126.672 31.5271C126.427 31.6294 126.165 31.6821 125.9 31.682C125.383 31.561 124.935 31.2434 124.65 30.797C124.366 30.3506 124.267 29.8109 124.376 29.293C124.376 28.0623 125.392 27.1574 126.371 27.266C126.629 27.3217 126.874 27.4278 127.09 27.5784C127.307 27.7289 127.491 27.9208 127.633 28.143C127.775 28.3653 127.871 28.6133 127.916 28.8728C127.961 29.1324 127.954 29.3982 127.895 29.655Z" fill="#2A2626"/>
<path d="M126.226 28.7108C126.179 28.8368 126.097 28.947 125.99 29.029C125.882 29.111 125.755 29.1616 125.62 29.1751C125.486 29.1886 125.351 29.1644 125.229 29.1053C125.108 29.0462 125.006 28.9545 124.934 28.8405C124.862 28.7265 124.823 28.5948 124.822 28.4601C124.821 28.3254 124.858 28.1932 124.928 28.0781C124.998 27.9631 125.099 27.8699 125.22 27.8091C125.34 27.7482 125.475 27.722 125.61 27.7335C125.716 27.7547 125.816 27.7972 125.906 27.8585C125.995 27.9198 126.071 27.9986 126.128 28.09C126.186 28.1814 126.224 28.2836 126.241 28.3904C126.258 28.4971 126.253 28.6061 126.226 28.7108Z" fill="#FEFEFE"/>
<path opacity="0.1" d="M112.951 36.5659C112.624 37.4346 111.137 37.6881 109.686 37.1089C108.234 36.5298 107.327 35.3714 107.69 34.4665C108.053 33.5616 109.504 33.3444 110.955 33.9236C112.406 34.5027 113.313 35.661 112.951 36.5659Z" fill="#F48FB7"/>
<path opacity="0.1" d="M122.891 37.6178C122.891 38.5227 124.415 39.1018 125.975 38.8122C127.535 38.5227 128.623 37.6178 128.478 36.6766C128.333 35.7355 126.954 35.1926 125.394 35.446C123.834 35.6993 122.891 36.6767 122.891 37.6178Z" fill="#F48FB7"/>
<path d="M109.286 60.2783C108.202 61.3692 106.983 62.3179 105.658 63.1016L101.268 65.925L99.5996 53.6542L103.228 53.4009C104.135 60.0611 109.359 59.5181 109.286 60.2783Z" fill="white"/>
<path d="M109.286 60.2767C111.345 63.0087 113.574 65.6079 115.962 68.059L120.206 56.476L116.578 55.4264C114.329 61.6522 109.359 59.5166 109.286 60.2767Z" fill="white"/>
<path d="M247.332 263.558H243.341V285.964H247.332V263.558Z" fill="#2F4052"/>
<path d="M247.332 286C253.543 286 258.579 280.976 258.579 274.779C258.579 268.582 253.543 263.558 247.332 263.558C241.121 263.558 236.085 268.582 236.085 274.779C236.085 280.976 241.121 286 247.332 286Z" fill="#383C48"/>
<path d="M243.339 286C249.55 286 254.586 280.976 254.586 274.779C254.586 268.582 249.55 263.558 243.339 263.558C237.128 263.558 232.092 268.582 232.092 274.779C232.092 280.976 237.128 286 243.339 286Z" fill="#292B37"/>
<path d="M243.34 279.992C246.225 279.992 248.564 277.658 248.564 274.78C248.564 271.901 246.225 269.567 243.34 269.567C240.454 269.567 238.115 271.901 238.115 274.78C238.115 277.658 240.454 279.992 243.34 279.992Z" fill="#383C48"/>
<path d="M217.219 217.48L221.609 220.086C222.099 224.7 223.617 229.145 226.053 233.098C228.489 237.05 231.78 240.408 235.685 242.926L264.963 261.821C270.791 263.95 277.156 264.127 283.093 262.324C289.031 260.521 294.218 256.838 297.869 251.83L320 221.642L291.557 211.362L217.219 217.48Z" fill="#292B37"/>
<path d="M273.599 240.394H220.195V263.56H273.599V240.394Z" fill="#292B37"/>
<path d="M264.709 221.641L242.615 251.829C238.963 256.836 233.776 260.52 227.839 262.323C221.901 264.125 215.537 263.949 209.709 261.82L180.431 242.925C176.539 240.399 173.261 237.037 170.839 233.086C168.416 229.134 166.908 224.692 166.427 220.085L162.799 184.72L264.709 221.641Z" fill="#383C48"/>
<g style="mix-blend-mode:multiply" opacity="0.2">
<g style="mix-blend-mode:multiply">
<path d="M248.203 223.487C229.591 245.458 188.45 246.472 167.298 225.224C169.362 232.517 174.018 238.809 180.395 242.925L209.673 261.819C215.506 263.957 221.878 264.139 227.824 262.336C233.769 260.533 238.962 256.844 242.615 251.829L264.746 221.641L253.064 217.442C251.468 219.469 249.871 221.496 248.203 223.487Z" fill="#383C48"/>
</g>
</g>
<path d="M149.99 147.908C149.781 148.236 149.453 148.471 149.075 148.565C148.698 148.659 148.298 148.606 147.958 148.415L142.299 145.049C142.26 144.292 142.396 143.536 142.698 142.841C142.879 142.479 144.113 142.334 144.113 142.334L149.446 145.954C149.768 146.15 150.004 146.461 150.105 146.824C150.206 147.187 150.165 147.574 149.99 147.908Z" fill="#FFCD9C"/>
<path d="M167.73 145.374H127.568V149.464H167.73V145.374Z" fill="#383C48"/>
<path d="M170.374 197.214L133.286 145.356L130.126 147.606L167.214 199.464L170.374 197.214Z" fill="#383C48"/>
<path d="M145.166 143.599C144.864 142.939 144.318 142.42 143.643 142.151C142.967 141.881 142.213 141.881 141.538 142.152L137.91 143.817C137.242 144.111 136.716 144.655 136.444 145.331C136.173 146.008 136.178 146.763 136.459 147.436L138.091 151.056C138.393 151.716 138.939 152.235 139.615 152.505C140.29 152.775 141.044 152.774 141.719 152.504L145.347 150.875C146.003 150.567 146.518 150.022 146.787 149.35C147.056 148.678 147.06 147.93 146.798 147.255L145.166 143.599Z" fill="#FFCD9C"/>
<path d="M139.045 133.606L134.618 136.586L139.799 144.247L144.226 141.267L139.045 133.606Z" fill="#FFCD9C"/>
<path d="M141.682 136.941C138.78 140.054 137.292 141.574 134.426 144.651C109.999 122.021 92.0963 93.2725 82.5821 61.398C82.3654 60.7185 82.2878 60.0025 82.3539 59.2925C82.42 58.5826 82.6285 57.8931 82.9669 57.2651C83.3053 56.6371 83.7668 56.0833 84.3239 55.6367C84.8811 55.1901 85.5225 54.8598 86.2101 54.6654C87.607 54.3767 89.0616 54.6321 90.2758 55.3791C91.49 56.1262 92.3718 57.3083 92.7405 58.6832C101.774 88.6538 118.671 115.671 141.682 136.941Z" fill="#255076"/>
<path d="M217.799 184.72H162.509L264.709 221.641L319.274 221.388L217.799 184.72Z" fill="#4A4F5F"/>
<path d="M310.168 219.833L296.527 219.869L293.153 219.905L281.688 219.941L264.963 220.05L244.32 212.557L232.964 208.467L222.588 204.703L217.981 203.038L215.405 202.096L208.766 199.707L204.666 198.223L199.732 196.45L197.737 195.726L195.124 194.785L171.724 186.315H217.509L218.489 186.677L219.432 187.002L222.443 188.088L225.636 189.247L228.611 190.332L247.222 197.065L248.855 197.644L287.602 211.652L296.2 214.765L298.268 215.525L310.168 219.833Z" fill="#292B37"/>
<path d="M301.244 200.106C300.29 205.212 298.591 210.151 296.201 214.766C295.258 216.54 294.242 218.386 293.154 219.906H264.964L197.738 195.582L195.125 194.641C194.889 191.822 194.889 188.989 195.125 186.171C195.269 184.141 195.535 182.123 195.924 180.126C197.229 173.221 199.885 166.641 203.739 160.761C207.593 154.88 212.571 149.815 218.387 145.854C224.204 141.893 230.745 139.113 237.638 137.674C244.531 136.235 251.641 136.165 258.561 137.468C265.481 138.77 272.076 141.42 277.97 145.265C283.864 149.111 288.941 154.077 292.911 159.88C296.882 165.683 299.667 172.209 301.11 179.087C302.552 185.964 302.622 193.057 301.317 199.961L301.244 200.106Z" fill="#A673EF"/>
<path d="M256.801 146.463L247.223 197.138L244.321 212.631L204.667 198.152C203.944 194.226 203.749 190.221 204.086 186.243C204.086 184.795 204.449 183.347 204.703 181.863C206.92 170.283 213.649 160.052 223.416 153.416C233.183 146.78 245.189 144.279 256.801 146.463Z" fill="#6433C4"/>
<path d="M292.357 198.442C291.51 203.076 289.904 207.54 287.605 211.654C285.986 214.651 284 217.436 281.691 219.943H264.966L244.323 212.45L247.225 196.958L256.803 146.282C262.575 147.368 268.076 149.58 272.989 152.792C277.903 156.003 282.132 160.151 285.436 164.997C288.739 169.843 291.051 175.291 292.238 181.031C293.426 186.77 293.467 192.687 292.357 198.442Z" fill="#6433C4"/>
<path d="M256.038 185.955L262.218 187.285L266.667 166.697C267.076 164.802 268.945 163.596 270.848 164.006C272.75 164.415 273.955 166.283 273.546 168.178L269.097 188.766L272.537 189.507C274.439 189.917 275.645 191.781 275.235 193.679C274.825 195.577 272.956 196.779 271.054 196.37L267.614 195.629L264.649 209.355C264.322 210.867 263.046 211.984 261.5 212.111C259.954 212.239 258.505 211.343 257.938 209.908L250.869 192.024L240.099 189.705L237.133 203.431C236.723 205.329 234.855 206.532 232.953 206.122C231.053 205.713 229.844 203.848 230.255 201.95L233.22 188.224L229.781 187.484C227.882 187.075 226.673 185.21 227.083 183.312C227.493 181.414 229.365 180.212 231.264 180.621L234.703 181.361L239.152 160.772C239.478 159.26 240.759 158.14 242.304 158.014C243.847 157.888 245.295 158.787 245.861 160.225L256.038 185.955ZM259.134 193.804L260.219 196.54L260.736 194.148L259.134 193.804ZM247.762 184.173L243.582 173.588L241.582 182.842L247.762 184.173Z" fill="#A673EF"/>
<path d="M254.929 184.676L261.109 186.007L265.558 165.418C265.967 163.523 267.836 162.317 269.739 162.727C271.641 163.137 272.846 165.004 272.437 166.899L267.988 187.488L271.428 188.228C273.33 188.638 274.536 190.502 274.126 192.4C273.715 194.298 271.847 195.501 269.945 195.091L266.505 194.351L263.54 208.077C263.213 209.589 261.937 210.705 260.391 210.833C258.845 210.96 257.396 210.065 256.829 208.629L249.76 190.745L238.99 188.427L236.024 202.153C235.614 204.051 233.746 205.253 231.843 204.843C229.944 204.435 228.735 202.57 229.145 200.671L232.111 186.946L228.672 186.205C226.773 185.796 225.564 183.931 225.974 182.033C226.384 180.135 228.255 178.933 230.155 179.342L233.594 180.083L238.043 159.494C238.369 157.982 239.65 156.861 241.195 156.735C242.738 156.609 244.186 157.508 244.752 158.946L254.929 184.676ZM258.025 192.525L259.11 195.261L259.626 192.87L258.025 192.525ZM246.653 182.894L242.472 172.309L240.473 181.564L246.653 182.894Z" fill="#A673EF"/>
<g style="mix-blend-mode:screen" opacity="0.3">
<g style="mix-blend-mode:screen">
<path d="M245.479 136.762L199.802 167.891C197.987 171.805 196.659 175.926 195.848 180.162L258.358 137.594C254.117 136.781 249.79 136.501 245.479 136.762Z" fill="#A673EF"/>
</g>
<g style="mix-blend-mode:screen">
<path d="M296.124 165.466L248.96 197.645L233.07 208.504L204.771 198.26L199.837 196.486L214.676 186.351L276.352 144.363C284.732 149.487 291.564 156.779 296.124 165.466Z" fill="#A673EF"/>
</g>
</g>
<path d="M128.006 150.3H125.466C124.629 150.3 123.826 149.968 123.235 149.378C122.643 148.787 122.31 147.986 122.31 147.151C122.32 146.322 122.656 145.53 123.247 144.947C123.838 144.365 124.636 144.038 125.466 144.038H128.006C128.837 144.038 129.634 144.365 130.225 144.947C130.816 145.53 131.153 146.322 131.162 147.151C131.162 147.986 130.83 148.787 130.238 149.378C129.646 149.968 128.843 150.3 128.006 150.3Z" fill="#292B37"/>
<path d="M198.426 150.3H195.85C195.019 150.29 194.226 149.954 193.642 149.365C193.057 148.775 192.73 147.98 192.73 147.151C192.739 146.328 193.071 145.542 193.654 144.96C194.237 144.378 195.025 144.047 195.85 144.038H198.426C199.25 144.047 200.039 144.378 200.622 144.96C201.205 145.542 201.537 146.328 201.546 147.151C201.546 147.98 201.218 148.775 200.634 149.365C200.05 149.954 199.257 150.29 198.426 150.3Z" fill="#292B37"/>
</svg>
