<svg width="283" height="286" viewBox="0 0 283 286" fill="none" xmlns="http://www.w3.org/2000/svg">
<path d="M9.94344 262.535L12.3236 256.514L26.0448 256.608L28.425 262.535H38.2259L25.3915 230.939H13.0704L0.235929 262.535H9.94344ZM19.2309 237.426L24.598 251.801H13.6771L19.2309 237.426ZM61.3425 262.581C71.9367 262.581 78.2373 255.441 78.2373 246.247C78.2373 237.193 72.8702 230.845 62.7893 230.845H44.9144V262.535L61.3425 262.581ZM53.6418 236.259H59.4757C66.803 236.259 69.8366 239.946 69.8366 246.48C69.8366 253.527 66.0562 257.074 58.5422 257.074H53.6418V236.259ZM102.256 262.581C112.85 262.581 119.151 255.441 119.151 246.247C119.151 237.193 113.784 230.845 103.703 230.845H85.8278V262.535L102.256 262.581ZM94.5553 236.259H100.389C107.716 236.259 110.75 239.946 110.75 246.48C110.75 253.527 106.97 257.074 99.4557 257.074H94.5553V236.259ZM134.535 262.535V250.214H139.809L150.17 262.535H159.364L148.21 250.214H150.077C154.744 250.074 159.411 246.573 159.411 240.133C159.411 233.179 153.764 230.752 147.23 230.752H126.741V262.535H134.535ZM147.183 237.053C149.517 237.053 151.757 238.313 151.757 241.206C151.757 243.913 149.563 245.593 147.09 245.593H134.535V237.053H147.183ZM167.336 230.799V262.535H190.858V257.074H175.13V249.56H189.364V245.173H175.13V236.959H190.858V230.799H167.336ZM198.518 252.361C198.518 255.861 200.572 263.188 217.42 263.188C226.287 263.188 236.088 260.015 236.088 253.154C236.088 240.04 208.319 248.02 208.319 240.6C208.319 237.053 212.94 236.026 217.793 236.026C222.647 236.026 226.847 237.053 226.847 241.346H235.622C235.715 232.712 227.454 230.192 217.793 230.192C206.312 230.192 199.125 233.786 199.125 240.086C199.125 254.601 227.127 245.173 227.127 253.107C227.127 255.814 223.114 257.214 217.373 257.214C212.24 257.214 207.899 256.234 207.946 252.361H198.518ZM243.488 252.361C243.488 255.861 245.542 263.188 262.39 263.188C271.257 263.188 281.058 260.015 281.058 253.154C281.058 240.04 253.289 248.02 253.289 240.6C253.289 237.053 257.909 236.026 262.763 236.026C267.617 236.026 271.817 237.053 271.817 241.346H280.591C280.685 232.712 272.424 230.192 262.763 230.192C251.282 230.192 244.095 233.786 244.095 240.086C244.095 254.601 272.097 245.173 272.097 253.107C272.097 255.814 268.084 257.214 262.343 257.214C257.209 257.214 252.869 256.234 252.916 252.361H243.488Z" fill="#8247E5"/>
<path d="M9.94344 262.535V263.805H10.8075L11.1251 263.002L9.94344 262.535ZM12.3236 256.514L12.3323 255.244L11.4619 255.238L11.142 256.047L12.3236 256.514ZM26.0448 256.608L27.224 256.134L26.9062 255.343L26.0535 255.337L26.0448 256.608ZM28.425 262.535L27.2459 263.008L27.566 263.805H28.425V262.535ZM38.2259 262.535V263.805H40.1136L39.4032 262.057L38.2259 262.535ZM25.3915 230.939L26.5687 230.46L26.2468 229.668H25.3915V230.939ZM13.0704 230.939V229.668H12.215L11.8931 230.46L13.0704 230.939ZM0.235929 262.535L-0.941345 262.057L-1.65176 263.805H0.235929V262.535ZM19.2309 237.426L20.4213 236.981L19.2512 233.848L18.0456 236.968L19.2309 237.426ZM24.598 251.801V253.071H26.4289L25.7885 251.356L24.598 251.801ZM13.6771 251.801L12.4918 251.343L11.8239 253.071H13.6771V251.801ZM11.1251 263.002L13.5053 256.981L11.142 256.047L8.76174 262.068L11.1251 263.002ZM12.315 257.785L26.0362 257.878L26.0535 255.337L12.3323 255.244L12.315 257.785ZM24.8657 257.081L27.2459 263.008L29.6042 262.061L27.224 256.134L24.8657 257.081ZM28.425 263.805H38.2259V261.264H28.425V263.805ZM39.4032 262.057L26.5687 230.46L24.2142 231.417L37.0486 263.013L39.4032 262.057ZM25.3915 229.668H13.0704V232.209H25.3915V229.668ZM11.8931 230.46L-0.941345 262.057L1.4132 263.013L14.2477 231.417L11.8931 230.46ZM0.235929 263.805H9.94344V261.264H0.235929V263.805ZM18.0405 237.87L23.4076 252.245L25.7885 251.356L20.4213 236.981L18.0405 237.87ZM24.598 250.53H13.6771V253.071H24.598V250.53ZM14.8624 252.258L20.4162 237.884L18.0456 236.968L12.4918 251.343L14.8624 252.258ZM61.3425 262.581L61.3389 263.852H61.3425V262.581ZM44.9144 230.845V229.575H43.6437V230.845H44.9144ZM44.9144 262.535H43.6437V263.802L44.9108 263.805L44.9144 262.535ZM53.6418 236.259V234.988H52.3711V236.259H53.6418ZM53.6418 257.074H52.3711V258.345H53.6418V257.074ZM61.3425 263.852C66.9356 263.852 71.4995 261.96 74.6666 258.755C77.8285 255.555 79.508 251.137 79.508 246.247H76.9666C76.9666 250.551 75.4958 254.3 72.8588 256.969C70.2272 259.632 66.3436 261.311 61.3425 261.311V263.852ZM79.508 246.247C79.508 241.473 78.0899 237.279 75.2116 234.272C72.3244 231.255 68.1043 229.575 62.7893 229.575V232.116C67.5552 232.116 71.0591 233.609 73.3756 236.029C75.7011 238.459 76.9666 241.967 76.9666 246.247H79.508ZM62.7893 229.575H44.9144V232.116H62.7893V229.575ZM43.6437 230.845V262.535H46.1851V230.845H43.6437ZM44.9108 263.805L61.3389 263.852L61.3461 261.311L44.918 261.264L44.9108 263.805ZM53.6418 237.53H59.4757V234.988H53.6418V237.53ZM59.4757 237.53C62.9417 237.53 65.1399 238.4 66.4886 239.801C67.846 241.21 68.5659 243.386 68.5659 246.48H71.1073C71.1073 243.04 70.3104 240.106 68.3191 238.038C66.3192 235.961 63.3369 234.988 59.4757 234.988V237.53ZM68.5659 246.48C68.5659 249.784 67.6837 252.043 66.1378 253.493C64.5767 254.958 62.1209 255.804 58.5422 255.804V258.345C62.4776 258.345 65.6689 257.418 67.8765 255.347C70.0992 253.262 71.1073 250.223 71.1073 246.48H68.5659ZM58.5422 255.804H53.6418V258.345H58.5422V255.804ZM54.9125 257.074V236.259H52.3711V257.074H54.9125ZM102.256 262.581L102.252 263.852H102.256V262.581ZM85.8279 230.845V229.575H84.5572V230.845H85.8279ZM85.8279 262.535H84.5572V263.802L85.8242 263.805L85.8279 262.535ZM94.5553 236.259V234.988H93.2846V236.259H94.5553ZM94.5553 257.074H93.2846V258.345H94.5553V257.074ZM102.256 263.852C107.849 263.852 112.413 261.96 115.58 258.755C118.742 255.555 120.421 251.137 120.421 246.247H117.88C117.88 250.551 116.409 254.3 113.772 256.969C111.141 259.632 107.257 261.311 102.256 261.311V263.852ZM120.421 246.247C120.421 241.473 119.003 237.279 116.125 234.272C113.238 231.255 109.018 229.575 103.703 229.575V232.116C108.469 232.116 111.973 233.609 114.289 236.029C116.615 238.459 117.88 241.967 117.88 246.247H120.421ZM103.703 229.575H85.8279V232.116H103.703V229.575ZM84.5572 230.845V262.535H87.0985V230.845H84.5572ZM85.8242 263.805L102.252 263.852L102.26 261.311L85.8315 261.264L85.8242 263.805ZM94.5553 237.53H100.389V234.988H94.5553V237.53ZM100.389 237.53C103.855 237.53 106.053 238.4 107.402 239.801C108.759 241.21 109.479 243.386 109.479 246.48H112.021C112.021 243.04 111.224 240.106 109.233 238.038C107.233 235.961 104.25 234.988 100.389 234.988V237.53ZM109.479 246.48C109.479 249.784 108.597 252.043 107.051 253.493C105.49 254.958 103.034 255.804 99.4557 255.804V258.345C103.391 258.345 106.582 257.418 108.79 255.347C111.013 253.262 112.021 250.223 112.021 246.48H109.479ZM99.4557 255.804H94.5553V258.345H99.4557V255.804ZM95.826 257.074V236.259H93.2846V257.074H95.826ZM134.535 262.535V263.805H135.806V262.535H134.535ZM134.535 250.214V248.943H133.265V250.214H134.535ZM139.809 250.214L140.782 249.396L140.401 248.943H139.809V250.214ZM150.17 262.535L149.197 263.353L149.578 263.805H150.17V262.535ZM159.364 262.535V263.805H162.229L160.306 261.682L159.364 262.535ZM148.21 250.214V248.943H145.345L147.268 251.067L148.21 250.214ZM150.077 250.214V251.484H150.096L150.115 251.484L150.077 250.214ZM126.741 230.752V229.481H125.471V230.752H126.741ZM126.741 262.535H125.471V263.805H126.741V262.535ZM134.535 245.593H133.265V246.864H134.535V245.593ZM134.535 237.053V235.782H133.265V237.053H134.535ZM135.806 262.535V250.214H133.265V262.535H135.806ZM134.535 251.484H139.809V248.943H134.535V251.484ZM138.837 251.032L149.197 263.353L151.143 261.717L140.782 249.396L138.837 251.032ZM150.17 263.805H159.364V261.264H150.17V263.805ZM160.306 261.682L149.152 249.361L147.268 251.067L158.422 263.388L160.306 261.682ZM148.21 251.484H150.077V248.943H148.21V251.484ZM150.115 251.484C155.396 251.325 160.681 247.331 160.681 240.133H158.14C158.14 245.816 154.091 248.822 150.039 248.944L150.115 251.484ZM160.681 240.133C160.681 236.25 159.072 233.497 156.472 231.775C153.951 230.105 150.62 229.481 147.23 229.481V232.023C150.373 232.023 153.133 232.612 155.069 233.894C156.926 235.124 158.14 237.062 158.14 240.133H160.681ZM147.23 229.481H126.741V232.023H147.23V229.481ZM125.471 230.752V262.535H128.012V230.752H125.471ZM126.741 263.805H134.535V261.264H126.741V263.805ZM147.183 238.323C148.141 238.323 148.982 238.584 149.555 239.039C150.087 239.462 150.486 240.126 150.486 241.206H153.027C153.027 239.393 152.306 237.98 151.135 237.049C150.005 236.151 148.559 235.782 147.183 235.782V238.323ZM150.486 241.206C150.486 243.069 149.013 244.323 147.09 244.323V246.864C150.114 246.864 153.027 244.757 153.027 241.206H150.486ZM147.09 244.323H134.535V246.864H147.09V244.323ZM135.806 245.593V237.053H133.265V245.593H135.806ZM134.535 238.323H147.183V235.782H134.535V238.323ZM167.336 230.799V229.528H166.065V230.799H167.336ZM167.336 262.535H166.065V263.805H167.336V262.535ZM190.858 262.535V263.805H192.128V262.535H190.858ZM190.858 257.074H192.128V255.804H190.858V257.074ZM175.13 257.074H173.859V258.345H175.13V257.074ZM175.13 249.56V248.29H173.859V249.56H175.13ZM189.364 249.56V250.831H190.635V249.56H189.364ZM189.364 245.173H190.635V243.903H189.364V245.173ZM175.13 245.173H173.859V246.444H175.13V245.173ZM175.13 236.959V235.689H173.859V236.959H175.13ZM190.858 236.959V238.23H192.128V236.959H190.858ZM190.858 230.799H192.128V229.528H190.858V230.799ZM166.065 230.799V262.535H168.606V230.799H166.065ZM167.336 263.805H190.858V261.264H167.336V263.805ZM192.128 262.535V257.074H189.587V262.535H192.128ZM190.858 255.804H175.13V258.345H190.858V255.804ZM176.4 257.074V249.56H173.859V257.074H176.4ZM175.13 250.831H189.364V248.29H175.13V250.831ZM190.635 249.56V245.173H188.094V249.56H190.635ZM189.364 243.903H175.13V246.444H189.364V243.903ZM176.4 245.173V236.959H173.859V245.173H176.4ZM175.13 238.23H190.858V235.689H175.13V238.23ZM192.128 236.959V230.799H189.587V236.959H192.128ZM190.858 229.528H167.336V232.069H190.858V229.528ZM198.518 252.361V251.09H197.248V252.361H198.518ZM226.847 241.346H225.577V242.617H226.847V241.346ZM235.622 241.346V242.617H236.879L236.892 241.36L235.622 241.346ZM207.946 252.361L209.216 252.376L209.232 251.09H207.946V252.361ZM197.248 252.361C197.248 254.361 197.843 257.469 200.819 260.047C203.762 262.597 208.84 264.459 217.42 264.459V261.917C209.152 261.917 204.779 260.116 202.483 258.127C200.221 256.167 199.789 253.86 199.789 252.361H197.248ZM217.42 264.459C221.978 264.459 226.841 263.647 230.614 261.896C234.363 260.157 237.359 257.312 237.359 253.154H234.818C234.818 255.857 232.913 258.028 229.545 259.591C226.201 261.142 221.729 261.917 217.42 261.917V264.459ZM237.359 253.154C237.359 251.276 236.857 249.699 235.925 248.41C235.004 247.134 233.722 246.22 232.286 245.551C229.454 244.233 225.774 243.761 222.308 243.475C218.727 243.18 215.412 243.083 212.898 242.6C211.648 242.36 210.77 242.051 210.228 241.682C209.755 241.359 209.59 241.038 209.59 240.6H207.048C207.048 242.016 207.751 243.069 208.797 243.782C209.774 244.448 211.065 244.835 212.418 245.095C215.111 245.613 218.738 245.731 222.099 246.008C225.576 246.294 228.838 246.749 231.213 247.855C232.38 248.398 233.267 249.07 233.865 249.898C234.452 250.711 234.818 251.754 234.818 253.154H237.359ZM209.59 240.6C209.59 240.016 209.77 239.58 210.083 239.215C210.415 238.826 210.945 238.466 211.705 238.163C213.243 237.552 215.421 237.297 217.793 237.297V234.755C215.312 234.755 212.752 235.013 210.767 235.802C209.765 236.2 208.837 236.761 208.151 237.563C207.446 238.388 207.048 239.41 207.048 240.6H209.59ZM217.793 237.297C220.177 237.297 222.202 237.556 223.592 238.222C224.265 238.545 224.745 238.941 225.06 239.411C225.371 239.874 225.577 240.489 225.577 241.346H228.118C228.118 240.056 227.799 238.933 227.171 237.996C226.547 237.066 225.673 236.401 224.689 235.93C222.766 235.009 220.264 234.755 217.793 234.755V237.297ZM226.847 242.617H235.622V240.076H226.847V242.617ZM236.892 241.36C236.918 238.99 236.368 236.967 235.309 235.284C234.254 233.607 232.742 232.342 230.955 231.406C227.42 229.553 222.692 228.921 217.793 228.921V231.463C222.555 231.463 226.788 232.091 229.775 233.657C231.25 234.43 232.389 235.414 233.158 236.637C233.924 237.856 234.372 239.386 234.351 241.333L236.892 241.36ZM217.793 228.921C211.949 228.921 207.052 229.831 203.566 231.65C200.033 233.493 197.854 236.342 197.854 240.086H200.396C200.396 237.53 201.811 235.432 204.742 233.903C207.72 232.349 212.156 231.463 217.793 231.463V228.921ZM197.854 240.086C197.854 242.114 198.347 243.808 199.271 245.193C200.191 246.571 201.481 247.557 202.943 248.27C205.817 249.673 209.547 250.108 213.045 250.333C216.67 250.565 219.998 250.575 222.533 251.018C223.79 251.238 224.665 251.539 225.201 251.91C225.661 252.228 225.857 252.576 225.857 253.107H228.398C228.398 251.655 227.719 250.562 226.647 249.82C225.652 249.132 224.339 248.754 222.971 248.515C220.256 248.041 216.583 248.013 213.208 247.796C209.705 247.572 206.435 247.146 204.058 245.986C202.894 245.419 201.997 244.698 201.385 243.782C200.778 242.873 200.396 241.687 200.396 240.086H197.854ZM225.857 253.107C225.857 253.68 225.47 254.381 223.931 254.996C222.423 255.599 220.168 255.944 217.373 255.944V258.485C220.319 258.485 222.941 258.129 224.875 257.356C226.778 256.594 228.398 255.242 228.398 253.107H225.857ZM217.373 255.944C214.844 255.944 212.689 255.696 211.213 255.07C210.491 254.764 210 254.397 209.691 253.988C209.396 253.596 209.208 253.089 209.216 252.376L206.675 252.345C206.66 253.569 206.998 254.637 207.663 255.519C208.315 256.383 209.221 256.986 210.221 257.41C212.187 258.243 214.769 258.485 217.373 258.485V255.944ZM207.946 251.09H198.518V253.631H207.946V251.09ZM243.488 252.361V251.09H242.217V252.361H243.488ZM271.817 241.346H270.547V242.617H271.817V241.346ZM280.591 241.346V242.617H281.848L281.862 241.36L280.591 241.346ZM252.916 252.361L254.186 252.376L254.202 251.09H252.916V252.361ZM242.217 252.361C242.217 254.361 242.812 257.469 245.789 260.047C248.732 262.597 253.81 264.459 262.39 264.459V261.917C254.122 261.917 249.749 260.116 247.453 258.127C245.191 256.167 244.759 253.86 244.759 252.361H242.217ZM262.39 264.459C266.948 264.459 271.81 263.647 275.584 261.896C279.333 260.157 282.329 257.312 282.329 253.154H279.787C279.787 255.857 277.883 258.028 274.514 259.591C271.171 261.142 266.699 261.917 262.39 261.917V264.459ZM282.329 253.154C282.329 251.276 281.826 249.699 280.895 248.41C279.974 247.134 278.692 246.22 277.255 245.551C274.424 244.233 270.744 243.761 267.278 243.475C263.697 243.18 260.382 243.083 257.868 242.6C256.618 242.36 255.74 242.051 255.198 241.682C254.725 241.359 254.56 241.038 254.56 240.6H252.018C252.018 242.016 252.721 243.069 253.766 243.782C254.743 244.448 256.034 244.835 257.388 245.095C260.081 245.613 263.708 245.731 267.069 246.008C270.546 246.294 273.808 246.749 276.183 247.855C277.35 248.398 278.237 249.07 278.835 249.898C279.422 250.711 279.787 251.754 279.787 253.154H282.329ZM254.56 240.6C254.56 240.016 254.74 239.58 255.052 239.215C255.385 238.826 255.915 238.466 256.675 238.163C258.213 237.552 260.391 237.297 262.763 237.297V234.755C260.282 234.755 257.722 235.013 255.737 235.802C254.735 236.2 253.807 236.761 253.121 237.563C252.415 238.388 252.018 239.41 252.018 240.6H254.56ZM262.763 237.297C265.146 237.297 267.172 237.556 268.561 238.222C269.235 238.545 269.715 238.941 270.03 239.411C270.34 239.874 270.547 240.489 270.547 241.346H273.088C273.088 240.056 272.769 238.933 272.14 237.996C271.516 237.066 270.642 236.401 269.659 235.93C267.735 235.009 265.234 234.755 262.763 234.755V237.297ZM271.817 242.617H280.591V240.076H271.817V242.617ZM281.862 241.36C281.888 238.99 281.338 236.967 280.279 235.284C279.224 233.607 277.711 232.342 275.925 231.406C272.39 229.553 267.662 228.921 262.763 228.921V231.463C267.525 231.463 271.758 232.091 274.745 233.657C276.22 234.43 277.358 235.414 278.128 236.637C278.894 237.856 279.342 239.386 279.321 241.333L281.862 241.36ZM262.763 228.921C256.919 228.921 252.022 229.831 248.536 231.65C245.003 233.493 242.824 236.342 242.824 240.086H245.366C245.366 237.53 246.78 235.432 249.711 233.903C252.689 232.349 257.126 231.463 262.763 231.463V228.921ZM242.824 240.086C242.824 242.114 243.317 243.808 244.241 245.193C245.161 246.571 246.451 247.557 247.913 248.27C250.787 249.673 254.516 250.108 258.015 250.333C261.639 250.565 264.968 250.575 267.503 251.018C268.76 251.238 269.634 251.539 270.171 251.91C270.631 252.228 270.827 252.576 270.827 253.107H273.368C273.368 251.655 272.689 250.562 271.617 249.82C270.622 249.132 269.309 248.754 267.941 248.515C265.226 248.041 261.553 248.013 258.177 247.796C254.675 247.572 251.404 247.146 249.028 245.986C247.864 245.419 246.966 244.698 246.355 243.782C245.748 242.873 245.366 241.687 245.366 240.086H242.824ZM270.827 253.107C270.827 253.68 270.44 254.381 268.901 254.996C267.393 255.599 265.138 255.944 262.343 255.944V258.485C265.289 258.485 267.91 258.129 269.845 257.356C271.748 256.594 273.368 255.242 273.368 253.107H270.827ZM262.343 255.944C259.814 255.944 257.659 255.696 256.182 255.07C255.461 254.764 254.97 254.397 254.661 253.988C254.365 253.596 254.178 253.089 254.186 252.376L251.645 252.345C251.63 253.569 251.967 254.637 252.633 255.519C253.285 256.383 254.191 256.986 255.191 257.41C257.157 258.243 259.739 258.485 262.343 258.485V255.944ZM252.916 251.09H243.488V253.631H252.916V251.09Z" fill="#8247E5"/>
<path d="M135.262 155.496L132.327 181.727H133.114L136.177 155.496H135.262Z" fill="#FBF9F7"/>
<path d="M147.474 155.496L150.537 181.727H151.303L148.389 155.496H147.474Z" fill="#FBF9F7"/>
<path d="M76.7045 65.5859C76.6871 78.0263 80.2078 90.2118 86.8508 100.702C87.2549 101.452 87.6378 102.073 87.9356 102.544C94.0164 111.813 100.93 120.5 108.59 128.495C115.567 135.68 121.711 143.64 126.904 152.22H141.794V0C124.525 0.0170258 107.97 6.93447 95.7648 19.2324C83.5601 31.5303 76.7045 48.2026 76.7045 65.5859Z" fill="#4A23A4"/>
<path d="M141.857 0V152.22H156.747C161.363 142.863 170.956 131.707 177.274 125.476C183.131 119.565 188.535 113.216 193.439 106.483C195.052 104.29 196.476 101.962 197.694 99.5245C203.669 89.578 206.911 78.2117 207.087 66.5894C207.264 54.967 204.369 43.5061 198.699 33.3803C193.029 23.2545 184.787 14.8275 174.818 8.96216C164.849 3.09681 153.511 0.00386906 141.964 0H141.857Z" fill="#331684"/>
<path d="M141.943 6.42343C130.213 6.42343 118.748 9.92462 108.995 16.4843C99.2429 23.0439 91.6418 32.3674 87.1533 43.2757C82.6647 54.184 81.4903 66.1872 83.7786 77.7674C86.0668 89.3475 91.7149 99.9846 100.009 108.333C108.302 116.682 118.869 122.368 130.373 124.671C141.877 126.975 153.801 125.793 164.637 121.274C175.473 116.756 184.735 109.104 191.252 99.2872C197.768 89.47 201.246 77.928 201.246 66.1209C201.246 50.2882 194.998 35.1039 183.876 23.9084C172.755 12.713 157.671 6.42343 141.943 6.42343Z" fill="#A673EF"/>
<path d="M92.6137 66.1219C92.6137 72.6417 93.8898 79.0977 96.3689 85.1209C98.8481 91.1442 102.482 96.6167 107.063 101.226C111.643 105.835 117.081 109.491 123.066 111.984C129.05 114.477 135.464 115.758 141.941 115.756V16.4668C128.859 16.4668 116.312 21.6983 107.061 31.0105C97.8107 40.3226 92.6137 52.9526 92.6137 66.1219Z" fill="#4A23A4"/>
<path d="M141.942 16.4668V115.756C154.844 115.486 167.128 110.137 176.158 100.856C185.188 91.5756 190.245 79.102 190.245 66.1112C190.245 53.1204 185.188 40.647 176.158 31.3662C167.128 22.0854 154.844 16.7366 141.942 16.4668Z" fill="#4A23A4"/>
<path d="M119.565 40.1265C119.564 40.8682 119.397 41.6001 119.076 42.2677C118.612 41.9292 118.053 41.7491 117.481 41.7538C115.758 41.7538 114.162 43.1456 114.162 49.8263C114.162 55.1794 114.843 56.614 116.545 56.614C117.388 56.6328 118.225 56.457 118.991 56.1001C119.275 56.718 119.427 57.3891 119.438 58.07C119.438 59.5046 118.034 60.3397 115.736 60.3397C112.333 60.3397 110.674 58.6267 110.674 50.0618C110.674 40.0408 114.013 38.3493 116.736 38.3493C119.459 38.3493 119.565 39.2271 119.565 40.1265Z" fill="#A673EF"/>
<path d="M123.925 38.6507C127.732 38.6507 129.838 39.9568 129.838 44.9245C129.957 45.982 129.826 47.0528 129.456 48.0499C129.087 49.047 128.489 49.9423 127.711 50.663C129.423 53.1862 130.335 56.1724 130.327 59.2279C130.327 59.806 130.2 59.9988 128.562 59.9988C128.051 59.9988 127.349 59.9988 126.584 59.9988C126.724 57.1057 126.046 54.232 124.627 51.7122H124.074H123.818V59.335C123.818 59.956 123.818 59.9559 120.458 59.9559V39.186C120.457 39.1054 120.474 39.0257 120.505 38.9515C120.536 38.8773 120.582 38.8103 120.639 38.7543C120.697 38.6983 120.765 38.6546 120.84 38.6258C120.915 38.597 120.994 38.5836 121.074 38.5865L123.925 38.6507ZM123.925 48.6288H124.563C125.541 48.6288 126.137 47.9222 126.137 44.7532C126.137 42.612 125.754 41.5628 124.776 41.5628H123.925V48.6288Z" fill="#A673EF"/>
<path d="M137.05 59.3971C137.05 60.0181 137.05 60.018 133.689 60.018V51.239L129.903 39.1624C129.754 38.6485 129.903 38.6486 133.753 38.6486L134.625 42.6312C134.966 44.1301 135.391 47.1492 135.519 48.541C135.519 47.1492 136.093 44.1087 136.412 42.6098L137.135 39.2481C137.327 38.6485 137.327 38.6486 140.751 38.6486L137.05 51.0463V59.3971Z" fill="#A673EF"/>
<path d="M144.943 38.6486C148.75 38.6486 150.856 39.9547 150.856 44.9223C150.856 50.4253 147.942 51.7743 145.091 51.7743H144.857V59.3971C144.857 60.0181 144.857 60.018 141.475 60.018V39.2481C141.475 38.8198 141.475 38.6486 142.092 38.6486H144.943ZM145.496 48.6267C146.453 48.6267 147.07 47.9201 147.07 44.4941C147.07 42.5456 146.665 41.5606 145.708 41.5606H144.857V48.6267H145.496Z" fill="#A673EF"/>
<path d="M162.532 38.6486V41.218C162.532 41.6891 162.341 41.8176 161.916 41.8176H158.682V59.3971C158.682 60.0181 158.682 60.018 155.322 60.018V41.8176H151.62V39.2481C151.62 38.8198 151.791 38.6486 152.216 38.6486H162.532Z" fill="#A673EF"/>
<path d="M167.913 38.3289C171.848 38.3289 173.294 40.6629 173.294 49.0351C173.294 57.4073 171.529 60.3836 167.551 60.3836C163.574 60.3836 162.106 58.2424 162.106 49.2706C162.106 40.8984 163.999 38.3289 167.913 38.3289ZM167.743 56.8078C169.274 56.8078 169.593 54.6665 169.593 49.2064C169.593 43.7462 169.444 41.8405 167.849 41.8405C166.254 41.8405 165.956 43.9818 165.956 49.9772C165.956 54.7736 166.19 56.8078 167.743 56.8078Z" fill="#A673EF"/>
<path d="M108.74 67.3215C108.735 68.0285 108.567 68.7247 108.251 69.3557C107.79 69.0267 107.241 68.8474 106.676 68.8419C104.932 68.8419 103.337 70.2551 103.337 76.9357C103.337 82.2674 104.039 83.7234 105.741 83.7234C106.553 83.7486 107.36 83.5875 108.102 83.2523C108.386 83.8778 108.538 84.5559 108.548 85.2436C108.548 86.6783 107.166 87.492 104.868 87.492C101.465 87.492 99.7847 85.7789 99.7847 77.214C99.7847 67.1931 103.124 65.5229 105.868 65.5229C108.612 65.5229 108.74 66.4008 108.74 67.3215Z" fill="#A673EF"/>
<path d="M113.14 81.4526C113.14 83.444 113.48 84.3861 115.076 84.3861C115.697 84.3751 116.309 84.2213 116.862 83.9365V66.3783C116.862 65.736 116.862 65.736 120.287 65.736V86.249C118.679 87.084 116.883 87.4826 115.076 87.4053C110.311 87.4053 109.652 84.6216 109.652 81.2385V66.3783C109.652 65.736 109.652 65.736 113.14 65.736V81.4526Z" fill="#A673EF"/>
<path d="M125.373 65.8209C129.201 65.8209 131.307 67.1271 131.307 72.1161C131.421 73.1733 131.288 74.2426 130.918 75.2389C130.549 76.2351 129.954 77.1308 129.18 77.8546C130.899 80.3731 131.806 83.3639 131.775 86.4196C131.775 86.9977 131.775 87.169 130.031 87.169C129.52 87.169 128.818 87.169 128.053 87.169C128.2 84.2795 127.513 81.4089 126.075 78.9038H125.287V86.5266C125.287 87.1476 125.287 87.1476 121.927 87.1476V66.3776C121.924 66.2981 121.937 66.2188 121.966 66.1447C121.995 66.0706 122.039 66.0033 122.094 65.947C122.15 65.8907 122.217 65.8467 122.291 65.8176C122.364 65.7885 122.443 65.775 122.522 65.7781L125.373 65.8209ZM125.373 75.7991H126.011C126.989 75.7991 127.606 75.0925 127.606 71.9234C127.606 69.7822 127.202 68.7544 126.223 68.7544H125.373V75.7991Z" fill="#A673EF"/>
<path d="M136.007 65.8209C139.815 65.8209 141.921 67.127 141.921 72.1161C142.039 73.1736 141.909 74.2444 141.539 75.2415C141.17 76.2386 140.572 77.1339 139.794 77.8546C141.513 80.3742 142.426 83.3628 142.41 86.4195C142.41 86.9977 142.282 87.169 140.644 87.169C140.134 87.169 139.432 87.169 138.666 87.169C138.812 84.2822 138.133 81.4139 136.709 78.9038H136.007V86.5266C136.007 87.1475 136.007 87.1475 132.647 87.1475V66.3776C132.647 66.297 132.663 66.2173 132.694 66.1431C132.725 66.0689 132.771 66.0019 132.829 65.9459C132.886 65.8899 132.954 65.8462 133.029 65.8174C133.104 65.7885 133.183 65.7751 133.263 65.778L136.007 65.8209ZM136.007 75.799H136.667C137.624 75.799 138.241 75.0924 138.241 71.9234C138.241 69.7822 137.837 68.7544 136.858 68.7544H136.007V75.799Z" fill="#A673EF"/>
<path d="M151.048 84.172C151.048 86.9984 151.048 87.1912 150.473 87.1912H143.39V66.4212C143.39 66.2622 143.453 66.1097 143.564 65.9973C143.676 65.8848 143.828 65.8217 143.986 65.8217H151.26C151.26 68.5411 151.26 68.8408 150.665 68.8408H146.751V74.0655H150.431C150.431 76.6349 150.431 77.1702 149.899 77.1702H146.751V84.172H151.048Z" fill="#A673EF"/>
<path d="M160.064 66.4212C160.064 65.8217 160.064 65.8217 163.424 65.8217V86.5702C163.434 86.6523 163.426 86.7355 163.4 86.8139C163.373 86.8922 163.33 86.9637 163.273 87.0232C163.216 87.0826 163.147 87.1285 163.07 87.1576C162.993 87.1866 162.911 87.1981 162.829 87.1912H160.213L157.001 79.0117C156.222 76.7753 155.603 74.4854 155.15 72.1597C155.413 74.5132 155.555 76.8789 155.575 79.2472V86.5702C155.575 87.1912 155.575 87.1912 152.193 87.1912V66.4212C152.193 65.993 152.385 65.8217 152.81 65.8217H155.469L158.66 73.8513C159.396 75.9503 159.993 78.0963 160.446 80.275C160.195 78.0213 160.067 75.7552 160.064 73.4873V66.4212Z" fill="#A673EF"/>
<path d="M173.572 67.3215C173.563 68.0256 173.403 68.7194 173.104 69.3557C172.644 69.0267 172.094 68.8474 171.53 68.8419C169.786 68.8419 168.19 70.2551 168.19 76.9357C168.19 82.2674 168.871 83.7234 170.594 83.7234C171.406 83.7486 172.214 83.5875 172.955 83.2523C173.239 83.8778 173.391 84.5559 173.402 85.2436C173.402 86.6783 171.998 87.492 169.7 87.492C166.297 87.492 164.638 85.7789 164.638 77.214C164.638 67.1931 167.977 65.5229 170.7 65.5229C173.423 65.5229 173.572 66.4008 173.572 67.3215Z" fill="#A673EF"/>
<path d="M180.911 86.5702C180.911 87.1912 180.911 87.1912 177.55 87.1912V78.4335L173.763 66.3356C173.615 65.8217 173.763 65.8217 177.614 65.8217L178.507 69.8258C178.826 71.3032 179.251 74.3438 179.379 75.7142C179.579 73.7222 179.884 71.7423 180.294 69.783L181.017 66.4212C181.208 65.8217 181.208 65.8217 184.633 65.8217L180.911 78.2194V86.5702Z" fill="#A673EF"/>
<g style="mix-blend-mode:screen" opacity="0.3">
<g style="mix-blend-mode:screen">
<path d="M127.648 8.17947L84.383 51.8178C83.2382 56.4915 82.6526 61.2862 82.6388 66.0998L141.815 6.42368C137.039 6.4257 132.282 7.01532 127.648 8.17947Z" fill="#A673EF"/>
</g>
<g style="mix-blend-mode:screen">
<path d="M162.597 10.1497L86.3401 86.9129C90.1499 97.2099 96.708 106.249 105.293 113.036L188.547 29.2281C181.809 20.5824 172.828 13.9799 162.597 10.1497Z" fill="#A673EF"/>
</g>
</g>
<path d="M156.748 152.22H126.905V157.337H156.748V152.22Z" fill="#FBF9F7"/>
<path d="M141.857 180.4C152.523 180.4 161.171 179.45 161.171 178.28C161.171 177.109 152.523 176.16 141.857 176.16C131.19 176.16 122.543 177.109 122.543 178.28C122.543 179.45 131.19 180.4 141.857 180.4Z" fill="#2C3857"/>
<path d="M141.858 205.301C148.824 205.301 154.471 204.352 154.471 203.182C154.471 202.011 148.824 201.062 141.858 201.062C134.891 201.062 129.244 202.011 129.244 203.182C129.244 204.352 134.891 205.301 141.858 205.301Z" fill="#8247E5"/>
<path d="M129.243 203.181H154.47C154.47 203.181 160.298 188.514 161.149 178.322C161.149 178.771 159.682 179.2 157.406 179.521C152.248 180.167 147.053 180.46 141.857 180.399C131.349 180.399 122.713 179.478 122.543 178.257C123.244 186.48 129.094 202.967 129.243 203.181Z" fill="#A673EF"/>
<path d="M128.244 155.496L122.884 179.864H123.564L129.095 155.496H128.244Z" fill="#FBF9F7"/>
<path d="M154.491 155.496L160 179.842H160.681L155.321 155.496H154.491Z" fill="#FBF9F7"/>
<path d="M161.171 178.322C161.043 179.757 160.83 181.277 160.532 182.84C159.522 183.199 158.472 183.436 157.406 183.547C152.248 184.193 147.053 184.487 141.857 184.425C132.987 184.425 125.52 183.761 123.244 182.862C122.92 181.364 122.686 179.848 122.543 178.322C122.819 179.478 131.349 180.463 141.857 180.463C147.053 180.525 152.248 180.232 157.406 179.586C159.682 179.2 161.064 178.772 161.171 178.322Z" fill="#FBF9F7"/>
</svg>
