<svg width="656" height="715" viewBox="0 0 656 715" fill="none" xmlns="http://www.w3.org/2000/svg">
<path d="M333.658 303.032C332.028 303.032 332.099 310.711 327.938 316.231C324.306 321.007 318.829 322.28 318.829 324.296C318.829 326.312 324.306 326.484 328.224 331.332C331.628 335.622 332.514 343.186 333.944 343.186C335.374 343.186 335.074 335.951 339.049 330.874C343.025 325.798 348.645 325.583 348.645 323.853C348.645 322.123 342.138 320.635 338.763 315.845C335.246 310.797 335.446 303.032 333.658 303.032Z" fill="#F9FFF9"/>
<path d="M304.372 354.226C303.671 354.226 303.7 357.572 301.884 359.946C300.297 362.033 297.923 362.577 297.923 363.463C297.923 364.35 300.297 364.407 301.998 366.524C303.428 368.354 303.857 371.672 304.529 371.672C305.202 371.672 305.016 368.526 306.746 366.323C308.476 364.121 310.907 364.021 310.907 363.263C310.907 362.505 308.047 361.833 306.617 359.788C305.187 357.743 305.159 354.226 304.372 354.226Z" fill="#F9FFF9"/>
<path d="M31.6699 549.849C30.0397 549.849 30.1255 557.528 25.9499 563.048C22.3034 567.838 16.8408 569.097 16.8408 571.113C16.8408 573.129 22.3034 573.301 26.2216 578.149C29.6393 582.367 30.5116 590.003 32.0274 590.003C33.5432 590.003 33.1428 582.767 37.1182 577.691C41.0936 572.614 46.7135 572.4 46.7135 570.67C46.7135 568.939 40.2213 567.466 36.8322 562.662C33.2858 557.7 33.4717 549.849 31.6699 549.849Z" fill="#F9FFF9"/>
<path d="M6.50169 605.319C5.78669 605.319 5.81529 608.665 3.99919 611.039C2.42619 613.127 0.0380859 613.67 0.0380859 614.557C0.0380859 615.443 2.41189 615.5 4.12789 617.617C5.55789 619.447 5.97259 622.765 6.64469 622.765C7.31679 622.765 7.13089 619.619 8.86119 617.417C10.5915 615.214 13.0797 615.129 13.0797 614.371C13.0797 613.613 10.2197 612.941 8.78969 610.896C7.35969 608.851 7.27389 605.319 6.50169 605.319Z" fill="#F9FFF9"/>
<path d="M640.708 461.69C639.092 461.69 639.164 469.37 634.988 474.889C631.356 479.68 625.879 480.938 625.879 482.955C625.879 484.971 631.342 485.142 635.274 489.99C638.677 494.28 639.564 501.845 641.066 501.845C642.567 501.845 642.181 494.609 646.171 489.533C650.16 484.456 655.752 484.242 655.752 482.511C655.752 480.781 649.259 479.308 645.885 474.503C642.31 469.455 642.51 461.69 640.708 461.69Z" fill="#F9FFF9"/>
<path d="M614.21 425.283C613.509 425.283 613.537 428.615 611.721 431.003C610.134 433.09 607.76 433.634 607.76 434.506C607.76 435.379 610.134 435.464 611.836 437.566C613.266 439.397 613.695 442.729 614.353 442.729C615.01 442.729 614.839 439.583 616.583 437.366C618.328 435.15 620.745 435.064 620.745 434.32C620.745 433.577 617.885 432.89 616.455 430.831C615.025 428.772 615.053 425.283 614.21 425.283Z" fill="#F9FFF9"/>
<path d="M122.89 170.07H160.456C164.446 117.546 195.763 106.607 204.886 104.519V118.819L237.018 93.6079L204.886 68.3255V83.5264C132.142 89.3751 122.89 170.07 122.89 170.07Z" fill="url(#paint0_linear_112_11054)"/>
<g style="mix-blend-mode:soft-light" opacity="0.57">
<g style="mix-blend-mode:soft-light">
<path d="M342.237 592.593C338.173 592.631 334.11 592.435 330.068 592.007C329.692 591.962 329.329 591.845 328.999 591.66C328.669 591.476 328.378 591.228 328.144 590.931C327.91 590.634 327.736 590.294 327.633 589.931C327.53 589.567 327.5 589.186 327.544 588.811C327.588 588.435 327.706 588.072 327.89 587.742C328.075 587.412 328.322 587.121 328.619 586.887C328.916 586.652 329.256 586.479 329.62 586.376C329.984 586.273 330.364 586.242 330.74 586.287C346.359 587.578 362.083 586.357 377.315 582.669C410.562 574.589 434.229 556.042 447.657 527.585C447.988 526.913 448.569 526.398 449.277 526.15C449.984 525.902 450.76 525.942 451.438 526.26C452.116 526.579 452.642 527.151 452.903 527.853C453.164 528.555 453.139 529.332 452.833 530.016C438.805 559.76 413.094 579.909 378.473 588.274C366.605 591.127 354.443 592.576 342.237 592.593Z" fill="#D5C8EF"/>
</g>
<g style="mix-blend-mode:soft-light">
<path d="M622.031 551.65C621.983 550.892 621.637 550.183 621.067 549.68C620.497 549.178 619.75 548.922 618.992 548.969C618.233 549.017 617.525 549.363 617.022 549.933C616.519 550.503 616.263 551.249 616.311 552.008C616.311 552.38 618.384 589.188 600.867 634.319C588.985 664.723 570.735 692.232 547.342 714.999H555.436C577.478 692.466 594.744 665.715 606.201 636.349C624.176 590.146 622.117 553.209 622.031 551.65Z" fill="#D5C8EF"/>
</g>
<g style="mix-blend-mode:soft-light">
<path d="M245.511 172.93C245.091 172.929 244.676 172.837 244.296 172.658C243.949 172.504 243.637 172.282 243.377 172.005C243.117 171.729 242.914 171.404 242.781 171.048C242.648 170.693 242.587 170.315 242.601 169.936C242.616 169.556 242.706 169.184 242.866 168.84C256.894 139.11 282.606 118.961 317.226 110.596C333.058 106.74 349.412 105.49 365.646 106.892C366.404 106.983 367.095 107.372 367.567 107.973C368.039 108.573 368.253 109.337 368.162 110.095C368.071 110.854 367.683 111.545 367.082 112.017C366.481 112.489 365.718 112.703 364.959 112.612C349.341 111.338 333.619 112.559 318.384 116.23C285.137 124.324 261.47 142.857 248.042 171.328C247.81 171.803 247.45 172.204 247.003 172.487C246.557 172.769 246.04 172.923 245.511 172.93Z" fill="#D5C8EF"/>
</g>
<g style="mix-blend-mode:soft-light">
<path d="M142.536 0C100.022 32.9615 77.5852 71.4142 65.7877 101.773C47.8126 148.019 49.8575 184.956 49.9576 186.515C50.0048 187.241 50.3269 187.921 50.8582 188.418C51.3895 188.915 52.0902 189.191 52.8176 189.189H53.0035C53.7599 189.141 54.4665 188.795 54.9679 188.227C55.4693 187.658 55.7246 186.914 55.6776 186.157C55.6776 185.786 53.6041 148.977 71.1359 103.847C83.1765 72.8299 106.614 33.1617 152.06 0H142.536Z" fill="#D5C8EF"/>
</g>
</g>
<path d="M560.713 493.264L377.673 477.406C375.977 477.267 374.325 476.794 372.813 476.013C371.301 475.232 369.959 474.158 368.864 472.855C367.769 471.552 366.944 470.044 366.436 468.42C365.928 466.795 365.748 465.086 365.904 463.392L397.936 94.037C398.082 92.3389 398.562 90.6863 399.348 89.1741C400.134 87.6619 401.211 86.3198 402.517 85.225C403.823 84.1301 405.333 83.3041 406.959 82.7942C408.585 82.2843 410.296 82.1006 411.993 82.2537L595.033 98.1268C598.453 98.4249 601.615 100.068 603.824 102.696C606.034 105.323 607.11 108.72 606.817 112.141L574.785 481.495C574.646 483.197 574.171 484.854 573.386 486.37C572.602 487.887 571.523 489.231 570.214 490.327C568.904 491.422 567.39 492.246 565.759 492.75C564.128 493.254 562.413 493.429 560.713 493.264Z" fill="url(#paint1_linear_112_11054)"/>
<path d="M404.043 363.648C402.613 362.962 400.225 365.536 400.153 366.423C400.082 367.309 404.443 373.329 404.815 373.744C406.355 374.29 408.009 374.433 409.62 374.159C410.063 373.758 412.165 363.777 430.612 344.872C431.599 343.871 416.756 348.69 407.275 368.61C407.275 368.61 405.087 364.163 404.043 363.648Z" fill="#37FAE6"/>
<g style="mix-blend-mode:soft-light">
<g style="mix-blend-mode:soft-light">
<path d="M565.695 356.889L445.655 346.471L444.883 355.361L564.924 365.778L565.695 356.889Z" fill="#E4D2FF"/>
</g>
<g style="mix-blend-mode:soft-light">
<path d="M521.503 378.87L443.418 372.093L442.646 380.983L520.731 387.76L521.503 378.87Z" fill="#E4D2FF"/>
</g>
</g>
<path d="M422.232 230.015C417.942 272.057 451.804 305.076 493.846 309.308C514.034 311.341 534.203 305.271 549.915 292.433C565.628 279.596 575.597 261.042 577.63 240.854C581.92 198.812 551.418 159.344 509.376 155.054C467.334 150.764 426.465 187.973 422.232 230.015Z" fill="#BB5F1B"/>
<path d="M559.94 257.241C577.509 218.814 560.6 173.421 522.173 155.852C483.747 138.283 438.353 155.192 420.785 193.619C403.216 232.045 420.124 277.439 458.551 295.008C496.978 312.576 542.371 295.668 559.94 257.241Z" fill="#FFA519"/>
<path opacity="0.87" d="M532.354 267.439C555.53 244.264 555.53 206.688 532.354 183.513C509.178 160.337 471.603 160.337 448.427 183.513C425.252 206.688 425.252 244.264 448.427 267.439C471.603 290.615 509.178 290.615 532.354 267.439Z" fill="#FFE146"/>
<g style="mix-blend-mode:multiply" opacity="0.8">
<path d="M498.774 227.214L507.699 229.139L514.127 199.335C514.719 196.592 517.419 194.847 520.166 195.439C522.914 196.032 524.654 198.735 524.062 201.478L517.634 231.282L522.601 232.353C525.349 232.946 527.09 235.644 526.497 238.392C525.904 241.139 523.206 242.88 520.458 242.288L515.491 241.216L511.206 261.085C510.733 263.274 508.89 264.891 506.657 265.075C504.425 265.26 502.332 263.964 501.513 261.886L491.307 236L475.753 232.645L471.467 252.514C470.875 255.262 468.176 257.003 465.429 256.41C462.686 255.819 460.94 253.119 461.533 250.372L465.818 230.503L460.851 229.431C458.108 228.84 456.362 226.14 456.955 223.393C457.548 220.645 460.251 218.905 462.994 219.497L467.961 220.568L474.389 190.764C474.861 188.576 476.711 186.954 478.943 186.771C481.171 186.588 483.262 187.889 484.08 189.971L498.774 227.214ZM503.244 238.575L504.81 242.535L505.556 239.074L503.244 238.575ZM486.821 224.636L480.785 209.315L477.896 222.711L486.821 224.636Z" fill="#FFE752"/>
<path d="M497.172 225.363L506.098 227.288L512.526 197.485C513.117 194.742 515.817 192.996 518.565 193.589C521.312 194.181 523.052 196.885 522.46 199.627L516.032 229.431L521 230.503C523.747 231.095 525.488 233.794 524.895 236.541C524.303 239.289 521.604 241.03 518.857 240.437L513.889 239.366L509.604 259.235C509.132 261.424 507.289 263.04 505.056 263.225C502.823 263.409 500.731 262.113 499.912 260.036L489.705 234.149L474.151 230.795L469.866 250.664C469.273 253.411 466.575 255.152 463.827 254.56C461.084 253.968 459.339 251.269 459.931 248.521L464.217 228.652L459.249 227.581C456.507 226.989 454.761 224.29 455.354 221.542C455.946 218.794 458.649 217.054 461.392 217.646L466.359 218.717L472.788 188.914C473.26 186.725 475.109 185.103 477.341 184.92C479.569 184.738 481.66 186.038 482.478 188.12L497.172 225.363ZM501.642 236.724L503.208 240.685L503.955 237.223L501.642 236.724ZM485.22 222.785L479.183 207.464L476.294 220.86L485.22 222.785Z" fill="#FFB618"/>
</g>
<g style="mix-blend-mode:multiply" opacity="0.27">
<path d="M533.143 162.019C526.308 186.829 516.841 211.268 497.579 229.229C476.873 248.462 449.445 257.829 421.617 259.059C426.762 269.605 434.264 278.827 443.543 286.011C452.822 293.195 463.629 298.148 475.129 300.487C486.628 302.825 498.511 302.488 509.859 299.499C521.207 296.511 531.716 290.953 540.572 283.254C549.428 275.554 556.394 265.921 560.932 255.099C565.469 244.277 567.456 232.557 566.74 220.844C566.023 209.131 562.621 197.74 556.798 187.552C550.975 177.364 542.886 168.652 533.157 162.09L533.143 162.019Z" fill="#FFA519"/>
</g>
<g style="mix-blend-mode:soft-light" opacity="0.65">
<path d="M454.893 170.785C463.396 164.926 473.32 161.468 483.622 160.775C486.911 160.56 486.925 155.412 483.622 155.627C472.408 156.316 461.585 160.011 452.291 166.323C449.574 168.182 452.148 172.644 454.893 170.77V170.785Z" fill="#FFCD80"/>
</g>
<g style="mix-blend-mode:soft-light" opacity="0.65">
<path d="M504.458 158.816C504.387 158.469 504.227 158.147 503.994 157.881C503.761 157.616 503.462 157.415 503.128 157.3C500.306 156.081 497.299 155.346 494.233 155.127C491.016 154.912 490.915 160.06 494.233 160.275C496.364 160.418 505.358 164.35 504.458 158.816Z" fill="#FFCD80"/>
</g>
<g style="mix-blend-mode:soft-light" opacity="0.77">
<path d="M448.044 195.095C441.968 203.744 438.621 214.014 438.434 224.582C438.349 228.715 444.784 228.715 444.869 224.582C445.081 215.159 448.12 206.016 453.592 198.341C455.952 195.024 450.461 191.62 448.044 195.095Z" fill="#FFFBE7"/>
</g>
<g style="mix-blend-mode:soft-light" opacity="0.77">
<path d="M447.172 239.168C446.7 237.538 445.742 235.85 445.413 234.478C444.526 230.545 438.263 232.132 439.206 236.194C439.717 238.358 440.48 240.456 441.48 242.443C443.454 246.275 448.158 242.671 447.172 239.168Z" fill="#FFFBE7"/>
</g>
<g style="mix-blend-mode:soft-light" opacity="0.44">
<path d="M384.366 128.6L379.104 186.429C387.226 181.453 515.812 104.504 560.056 80.5233L491.702 74.074L384.366 128.6Z" fill="#59FBEA"/>
</g>
<g style="mix-blend-mode:soft-light" opacity="0.44">
<path d="M610.95 186.429L617.799 108.923C618.267 104.107 617.093 99.2739 614.468 95.2094L374.456 243.214L366.563 332.26L610.95 186.429Z" fill="#59FBEA"/>
</g>
<path d="M560.8 518.991C560.085 518.991 559.37 518.991 558.669 518.905L375.371 503.003C368.932 502.436 362.98 499.339 358.819 494.391C354.659 489.443 352.631 483.047 353.178 476.606L386.811 88.8182C387.079 85.6252 387.976 82.5167 389.45 79.6714C390.923 76.8262 392.945 74.3003 395.398 72.2391C397.851 70.1779 400.688 68.622 403.745 67.6609C406.801 66.6998 410.018 66.3525 413.209 66.6389L596.464 82.5262C602.905 83.0898 608.859 86.1858 613.02 91.1349C617.181 96.084 619.208 102.482 618.657 108.924L585.024 496.711C584.492 502.777 581.713 508.426 577.231 512.548C572.749 516.67 566.889 518.968 560.8 518.991ZM558.826 517.046C561.774 517.303 564.743 516.977 567.564 516.086C570.386 515.195 573.004 513.757 575.27 511.854C577.535 509.952 579.404 507.621 580.768 504.995C582.133 502.37 582.966 499.502 583.222 496.554L616.841 108.767C617.098 105.819 616.772 102.85 615.881 100.028C614.991 97.207 613.553 94.5887 611.65 92.3232C609.747 90.0576 607.416 88.1892 604.791 86.8248C602.165 85.4603 599.297 84.6264 596.349 84.3709L413.052 68.4836C407.101 67.972 401.19 69.8423 396.616 73.6841C392.042 77.5259 389.18 83.0253 388.656 88.9755L355.037 476.763C354.529 482.713 356.401 488.622 360.242 493.195C364.083 497.768 369.58 500.632 375.529 501.159L558.826 517.046Z" fill="#F7FFF7"/>
<path d="M285.323 604.203L103.17 627.24C101.482 627.462 99.7669 627.347 98.1238 626.902C96.4807 626.456 94.9423 625.689 93.5977 624.645C92.253 623.601 91.1289 622.301 90.2903 620.819C89.4518 619.338 88.9155 617.705 88.7125 616.014L42.1517 248.204C41.9295 246.517 42.044 244.803 42.4885 243.161C42.9329 241.519 43.6986 239.981 44.7412 238.636C45.7838 237.292 47.0826 236.168 48.5624 235.328C50.0423 234.489 51.674 233.951 53.3629 233.747L235.588 210.709C237.275 210.487 238.989 210.602 240.631 211.046C242.273 211.491 243.811 212.256 245.155 213.299C246.5 214.341 247.624 215.64 248.464 217.12C249.303 218.6 249.84 220.232 250.045 221.921L296.534 589.745C296.757 591.432 296.642 593.146 296.198 594.788C295.753 596.431 294.988 597.968 293.945 599.313C292.902 600.657 291.604 601.782 290.124 602.621C288.644 603.46 287.012 603.998 285.323 604.203Z" fill="url(#paint2_linear_112_11054)"/>
<path d="M104.843 510.51C103.413 510.124 101.511 513.155 101.626 514.042C101.74 514.929 107.346 519.862 107.732 520.205C109.349 520.42 110.994 520.213 112.508 519.605C112.865 519.118 112.808 508.908 126.808 486.543C127.551 485.356 114.067 493.207 108.99 514.657C109.047 514.657 106.03 510.782 104.843 510.51Z" fill="#37FAE6"/>
<g style="mix-blend-mode:soft-light">
<g style="mix-blend-mode:soft-light">
<path d="M261.436 469.809L141.895 484.91L143.013 493.763L262.555 478.662L261.436 469.809Z" fill="#E4D2FF"/>
</g>
<g style="mix-blend-mode:soft-light">
<path d="M224.69 498.358L147.095 508.547L148.255 517.381L225.85 507.192L224.69 498.358Z" fill="#E4D2FF"/>
</g>
</g>
<g style="mix-blend-mode:soft-light" opacity="0.65">
<path d="M166.09 293.293C177.274 293.204 188.321 295.752 198.337 300.729C201.297 302.159 203.914 297.769 200.939 296.296C190.125 290.878 178.186 288.085 166.09 288.145C162.787 288.145 162.772 293.322 166.09 293.293Z" fill="#FFCD80"/>
</g>
<path d="M235.688 361.16C240.993 403.088 208.018 436.95 166.104 442.255C156.136 443.516 146.018 442.801 136.326 440.15C126.635 437.5 117.56 432.967 109.621 426.809C101.681 420.652 95.0322 412.991 90.0537 404.264C85.0751 395.537 81.8643 385.914 80.6047 375.946C75.3137 334.033 104.757 293.807 146.671 288.502C188.584 283.196 230.44 319.247 235.688 361.16Z" fill="#BB5F1B"/>
<path d="M240.309 381.607C253.155 341.355 230.938 298.31 190.685 285.464C150.433 272.618 107.388 294.835 94.5418 335.087C81.6956 375.34 103.913 418.385 144.165 431.231C184.417 444.077 227.462 421.86 240.309 381.607Z" fill="#FFA519"/>
<path opacity="0.87" d="M209.392 400.31C232.568 377.134 232.568 339.559 209.392 316.383C186.217 293.208 148.641 293.208 125.466 316.383C102.29 339.559 102.29 377.134 125.466 400.31C148.641 423.485 186.217 423.485 209.392 400.31Z" fill="#FFE146"/>
<g style="mix-blend-mode:multiply" opacity="0.8">
<path d="M197.921 365.022C197.512 360.63 195.397 356.574 192.03 353.725C194.576 350.145 195.604 345.704 194.89 341.369C194.693 338.816 193.883 336.348 192.529 334.175C191.174 332.002 189.316 330.187 187.11 328.886C183.69 327.023 179.788 326.235 175.913 326.626L175.241 321.307L168.992 322.107L169.664 327.384L166.204 327.827L165.532 322.536L159.283 323.337L159.94 328.614L155.321 329.2L154.263 320.906L144.253 322.165L145.311 330.473L138.405 331.345L139.663 341.355L146.57 340.483L151.303 377.892L144.396 378.764L145.655 388.774L152.562 387.902L153.992 398.598L164.002 397.325L162.572 386.643L167.205 386.057L167.777 390.619L174.04 389.832L173.468 385.271L176.914 384.827L177.486 389.389L183.75 388.602L183.164 384.012C187.011 383.428 190.594 381.699 193.445 379.05C195.264 377.244 196.62 375.026 197.4 372.583C198.179 370.141 198.358 367.548 197.921 365.022ZM176.099 336.751C178.153 336.397 180.265 336.702 182.134 337.623C182.72 337.952 184.479 339.053 184.994 342.628C185.537 346.918 183.664 349.42 179.188 350.293C178.816 350.293 178.459 350.293 178.058 350.378L158.425 352.867L156.694 339.21L176.099 336.751ZM186.424 371.8C184.846 373.154 182.877 373.97 180.804 374.131L161.356 376.59L159.626 362.948L179.274 360.46C179.732 360.46 180.175 360.317 180.632 360.231C182.401 360.057 184.175 360.502 185.652 361.49C186.969 362.736 187.774 364.429 187.911 366.237C188.369 369.941 186.91 371.371 186.424 371.8Z" fill="#FFA519"/>
</g>
<g style="mix-blend-mode:multiply" opacity="0.27">
<path d="M180.39 373.716C155.779 351.566 144.153 317.231 147.099 284.613C134.934 287.972 123.788 294.288 114.655 302.999C105.523 311.71 98.6873 322.545 94.7577 334.538C90.8282 346.532 89.9267 359.311 92.1336 371.737C94.3406 384.163 99.5875 395.851 107.407 405.757C115.226 415.664 125.374 423.483 136.948 428.516C148.521 433.549 161.161 435.642 173.739 434.606C186.317 433.57 198.443 429.439 209.038 422.58C219.632 415.721 228.365 406.347 234.458 395.295C214.881 393.922 196.22 388.002 180.39 373.716Z" fill="#FFA519"/>
</g>
<g style="mix-blend-mode:soft-light" opacity="0.65">
<path d="M207.674 306.134C209.217 307.916 210.97 309.505 212.893 310.867C215.753 312.483 218.327 309.294 215.968 307.006L211.306 302.487C208.904 300.171 205.3 303.832 207.674 306.134Z" fill="#FFCD80"/>
</g>
<g style="mix-blend-mode:soft-light" opacity="0.77">
<path d="M196.12 322.494C203.71 329.449 209.103 338.47 211.635 348.449C212.665 352.453 218.871 350.751 217.841 346.733C215.028 335.679 209.067 325.679 200.681 317.947C197.721 315.216 193.074 319.663 196.12 322.494Z" fill="#FFFBE7"/>
</g>
<g style="mix-blend-mode:soft-light" opacity="0.77">
<path d="M220.658 358.929C220.531 358.44 220.284 357.989 219.941 357.618C219.597 357.247 219.167 356.966 218.689 356.8C218.211 356.635 217.699 356.59 217.2 356.669C216.7 356.749 216.228 356.951 215.825 357.256C213.151 358.958 214.838 363.434 214.509 366.037C214.023 369.955 220.93 370.327 220.944 366.037C221.214 363.667 221.117 361.27 220.658 358.929Z" fill="#FFFBE7"/>
</g>
<g style="mix-blend-mode:soft-light" opacity="0.44">
<path d="M264.889 254.783L272.682 312.326C264.345 307.707 132.542 236.536 87.2253 214.514L156.752 205.734L264.889 254.783Z" fill="#59FBEA"/>
</g>
<g style="mix-blend-mode:soft-light" opacity="0.44">
<path d="M41.0792 322.566L30.8118 245.446C30.1424 240.649 31.0989 235.765 33.5288 231.575L279.317 368.312L290.6 457.458L41.0792 322.566Z" fill="#59FBEA"/>
</g>
<path d="M103.055 652.966C97.116 652.965 91.3817 650.797 86.9273 646.869C82.4729 642.941 79.6042 637.523 78.8593 631.631L30.0534 245.531C29.6468 242.345 29.8728 239.111 30.7184 236.013C31.5641 232.914 33.0128 230.014 34.9815 227.476C36.9502 224.939 39.4002 222.815 42.1912 221.226C44.9822 219.638 48.0592 218.615 51.246 218.218L233.785 195.138C240.188 194.356 246.639 196.141 251.73 200.101C256.821 204.061 260.138 209.875 260.955 216.273L309.761 602.445C310.162 605.617 309.932 608.837 309.086 611.921C308.24 615.004 306.794 617.891 304.831 620.415C302.867 622.938 300.426 625.05 297.645 626.629C294.864 628.208 291.799 629.222 288.626 629.615L288.512 628.699L288.626 629.615L106.172 652.766C105.138 652.897 104.097 652.963 103.055 652.966ZM236.846 196.796C235.89 196.796 234.935 196.854 233.986 196.968L51.4748 220.063C45.5506 220.815 40.1674 223.889 36.5076 228.608C32.8477 233.327 31.2104 239.305 31.9553 245.231L80.7612 631.402C81.5105 637.328 84.5829 642.713 89.3028 646.374C94.0227 650.035 100.003 651.67 105.929 650.922L288.469 627.856C294.396 627.103 299.781 624.027 303.441 619.305C307.102 614.583 308.737 608.601 307.988 602.673L259.182 216.573C258.503 211.125 255.86 206.111 251.747 202.472C247.635 198.834 242.337 196.821 236.846 196.811V196.796Z" fill="#F7FFF7"/>
<defs>
<linearGradient id="paint0_linear_112_11054" x1="122.89" y1="119.205" x2="237.018" y2="119.205" gradientUnits="userSpaceOnUse">
<stop stop-color="#FF43BB"/>
<stop offset="1" stop-color="#FFA7FF"/>
</linearGradient>
<linearGradient id="paint1_linear_112_11054" x1="535.96" y1="39.0106" x2="447.972" y2="480.423" gradientUnits="userSpaceOnUse">
<stop stop-color="#FF43BB"/>
<stop offset="1" stop-color="#954BFF"/>
</linearGradient>
<linearGradient id="paint2_linear_112_11054" x1="197.55" y1="662.647" x2="140.536" y2="170.083" gradientUnits="userSpaceOnUse">
<stop stop-color="#5725BE"/>
<stop offset="1" stop-color="#41CDFF"/>
</linearGradient>
</defs>
</svg>
