<svg width="540" height="476" viewBox="0 0 540 476" fill="none" xmlns="http://www.w3.org/2000/svg">
<path d="M540 445.565C540 458.839 419.142 469.559 270 469.559C120.858 469.559 -0.000244141 458.839 -0.000244141 445.565C-0.000244141 432.291 120.908 421.571 270 421.571C419.092 421.571 540 432.291 540 445.565Z" fill="#D0CFD9"/>
<path d="M248.484 26.5485C237.637 21.9246 225.661 20.6176 214.07 22.7929C202.479 24.9682 191.794 30.5279 183.367 38.7691C174.94 47.0102 169.148 57.5626 166.725 69.0916C164.302 80.6206 165.357 92.6083 169.755 103.539C174.153 114.469 181.698 123.851 191.434 130.499C201.171 137.146 212.663 140.76 224.456 140.883C236.249 141.007 247.813 137.634 257.687 131.192C267.561 124.75 275.301 115.527 279.927 104.691C283.005 97.499 284.634 89.771 284.719 81.9495C284.804 74.1279 283.345 66.3663 280.425 59.1086C277.504 51.8509 273.18 45.2396 267.7 39.6526C262.219 34.0656 255.689 29.6126 248.484 26.5485ZM210.371 115.661C203.573 112.752 197.79 107.894 193.754 101.702C189.719 95.5108 187.611 88.2632 187.698 80.8756C187.784 73.4879 190.062 66.2918 194.242 60.1964C198.421 54.1011 204.316 49.3801 211.181 46.6302C218.047 43.8803 225.574 43.2247 232.812 44.7465C240.05 46.2683 246.674 49.8991 251.846 55.1799C257.019 60.4608 260.509 67.1548 261.874 74.416C263.239 81.6772 262.419 89.1796 259.517 95.9753C257.574 100.511 254.752 104.618 251.212 108.059C247.672 111.5 243.486 114.206 238.893 116.022C234.301 117.839 229.394 118.728 224.456 118.641C219.517 118.553 214.645 117.489 210.121 115.511L210.371 115.661Z" fill="#A9E8EF"/>
<path d="M234.694 58.1061C230.134 56.1557 225.098 55.6001 220.222 56.5094C215.346 57.4187 210.849 59.7522 207.301 63.2147C203.753 66.6771 201.313 71.1128 200.289 75.9607C199.265 80.8087 199.704 85.8511 201.55 90.45C203.396 95.0488 206.566 98.9975 210.659 101.796C214.752 104.595 219.584 106.119 224.544 106.174C229.504 106.229 234.369 104.814 238.523 102.107C242.678 99.3998 245.935 95.5227 247.883 90.9662C250.493 84.8613 250.57 77.9713 248.097 71.8098C245.624 65.6482 240.803 60.7193 234.694 58.1061Z" fill="#A9E8EF"/>
<path d="M251.495 46.2345L229.53 36.8674L248.286 0L265.186 7.2132L251.495 46.2345Z" fill="#A9E8EF"/>
<path d="M219.45 121.121L197.485 111.904L183.995 150.975L200.895 158.088L219.45 121.121Z" fill="#A9E8EF"/>
<path d="M265.486 76.6401L257.964 54.0487L297.982 43.6298L303.8 61.0116L265.486 76.6401Z" fill="#A9E8EF"/>
<path d="M258.716 113.105L266.689 90.6643L304.702 107.094L298.534 124.326L258.716 113.105Z" fill="#A9E8EF"/>
<path d="M181.136 77.7415L189.561 55.4507L149.994 43.4287L143.475 60.5601L181.136 77.7415Z" fill="#A9E8EF"/>
<path d="M197.434 47.6343L218.998 37.4157L198.838 1.34973L182.239 9.16401L197.434 47.6343Z" fill="#A9E8EF"/>
<path d="M251.446 114.761L229.731 124.529L249.189 160.996L265.939 153.482L251.446 114.761Z" fill="#A9E8EF"/>
<path d="M181.787 85.4048L188.908 108.146L148.639 117.764L143.173 100.282L181.787 85.4048Z" fill="#A9E8EF"/>
<path d="M426.211 297.042C417.091 293.16 407.023 292.064 397.28 293.894C387.537 295.725 378.556 300.398 371.471 307.325C364.386 314.251 359.515 323.12 357.474 332.811C355.433 342.501 356.314 352.578 360.004 361.769C363.694 370.96 370.029 378.852 378.208 384.449C386.387 390.045 396.043 393.094 405.956 393.211C415.869 393.328 425.595 390.508 433.904 385.106C442.213 379.704 448.733 371.964 452.639 362.863C455.238 356.808 456.616 350.302 456.694 343.715C456.772 337.128 455.548 330.591 453.093 324.477C450.639 318.363 447.001 312.793 442.388 308.085C437.775 303.378 432.278 299.625 426.211 297.042ZM393.915 372.18C388.186 369.738 383.31 365.654 379.905 360.444C376.499 355.234 374.717 349.132 374.783 342.911C374.849 336.689 376.761 330.626 380.277 325.49C383.793 320.354 388.755 316.375 394.535 314.055C400.316 311.736 406.655 311.181 412.751 312.46C418.847 313.74 424.426 316.796 428.783 321.243C433.14 325.69 436.078 331.328 437.227 337.443C438.376 343.559 437.684 349.877 435.238 355.599C431.948 363.262 425.751 369.309 418.006 372.417C410.261 375.525 401.598 375.439 393.915 372.18Z" fill="#80D2D6"/>
<path d="M414.779 323.891C410.938 322.252 406.696 321.788 402.591 322.558C398.486 323.327 394.701 325.296 391.716 328.214C388.731 331.133 386.68 334.87 385.822 338.953C384.965 343.037 385.339 347.282 386.897 351.153C388.456 355.024 391.129 358.346 394.578 360.699C398.027 363.052 402.098 364.33 406.274 364.372C410.451 364.413 414.546 363.217 418.042 360.933C421.537 358.649 424.276 355.381 425.912 351.542C427.003 348.997 427.581 346.261 427.612 343.493C427.643 340.724 427.126 337.977 426.092 335.408C425.058 332.839 423.526 330.499 421.585 328.523C419.643 326.547 417.33 324.973 414.779 323.891Z" fill="#80D2D6"/>
<path d="M428.919 313.871L410.464 306.007L426.261 275L440.453 281.061L428.919 313.871Z" fill="#80D2D6"/>
<path d="M401.939 376.941L383.434 369.177L372.101 402.087L386.343 408.048L401.939 376.941Z" fill="#80D2D6"/>
<path d="M440.706 339.518L434.387 320.484L468.087 311.718L472.951 326.344L440.706 339.518Z" fill="#80D2D6"/>
<path d="M434.987 370.176L441.757 351.291L473.702 365.117L468.537 379.643L434.987 370.176Z" fill="#80D2D6"/>
<path d="M369.695 340.419L376.816 321.685L343.517 311.516L338.001 325.943L369.695 340.419Z" fill="#80D2D6"/>
<path d="M383.435 315.076L401.588 306.461L384.588 276.105L370.647 282.717L383.435 315.076Z" fill="#80D2D6"/>
<path d="M428.921 371.578L410.567 379.793L427.016 410.499L441.057 404.137L428.921 371.578Z" fill="#80D2D6"/>
<path d="M370.245 346.835L376.213 365.97L342.363 374.085L337.749 359.358L370.245 346.835Z" fill="#80D2D6"/>
<path d="M371.348 117.867H114.989V375.639H371.348V117.867Z" fill="#FFE9BA"/>
<path d="M371.348 117.867H114.989V150.828H371.348V117.867Z" fill="#EFCD92"/>
<path d="M145.029 135.548C144.932 136.929 144.433 138.252 143.593 139.354C142.754 140.456 141.611 141.289 140.304 141.752C138.997 142.214 137.584 142.285 136.237 141.957C134.89 141.629 133.669 140.915 132.722 139.903C131.776 138.891 131.146 137.625 130.909 136.261C130.673 134.896 130.84 133.493 131.391 132.222C131.941 130.951 132.851 129.868 134.009 129.107C135.167 128.345 136.522 127.937 137.908 127.934C138.877 127.966 139.829 128.189 140.711 128.589C141.593 128.99 142.388 129.559 143.049 130.267C143.71 130.974 144.226 131.804 144.565 132.71C144.905 133.617 145.063 134.581 145.029 135.548Z" fill="#725559"/>
<path d="M166.392 135.548C166.294 136.929 165.795 138.252 164.955 139.354C164.116 140.456 162.973 141.289 161.666 141.752C160.359 142.214 158.946 142.285 157.599 141.957C156.252 141.629 155.031 140.915 154.085 139.903C153.138 138.891 152.508 137.625 152.271 136.261C152.035 134.896 152.202 133.493 152.753 132.222C153.303 130.951 154.213 129.868 155.371 129.107C156.529 128.345 157.884 127.937 159.27 127.934C160.239 127.966 161.191 128.189 162.073 128.589C162.955 128.99 163.75 129.559 164.411 130.267C165.072 130.974 165.588 131.804 165.928 132.71C166.267 133.617 166.425 134.581 166.392 135.548Z" fill="#725559"/>
<path d="M187.805 135.548C187.707 136.929 187.208 138.252 186.369 139.354C185.529 140.456 184.386 141.289 183.079 141.752C181.773 142.214 180.359 142.285 179.012 141.957C177.666 141.629 176.444 140.915 175.498 139.903C174.551 138.891 173.921 137.625 173.685 136.261C173.448 134.896 173.616 133.493 174.166 132.222C174.717 130.951 175.627 129.868 176.785 129.107C177.942 128.345 179.297 127.937 180.684 127.934C181.652 127.966 182.604 128.189 183.486 128.589C184.368 128.99 185.163 129.559 185.824 130.267C186.486 130.974 187.001 131.804 187.341 132.71C187.681 133.617 187.838 134.581 187.805 135.548Z" fill="#725559"/>
<path d="M209.921 179.527H141.618V185.488H209.921V179.527Z" fill="#725559"/>
<path d="M244.725 179.527H217.194V185.488H244.725V179.527Z" fill="#725559"/>
<path d="M179.28 192.902H141.618V198.813H179.28V192.902Z" fill="#725559"/>
<path d="M244.725 192.902H185.65V198.813H244.725V192.902Z" fill="#725559"/>
<path d="M209.921 206.227H141.618V212.187H209.921V206.227Z" fill="#725559"/>
<path d="M244.725 206.227H217.194V212.187H244.725V206.227Z" fill="#725559"/>
<path d="M179.28 219.601H141.618V225.561H179.28V219.601Z" fill="#725559"/>
<path d="M162.731 230.72H141.618V236.681H162.731V230.72Z" fill="#725559"/>
<path d="M212.428 230.72H170.554V236.681H212.428V230.72Z" fill="#725559"/>
<path d="M244.724 230.72H218.798V236.681H244.724V230.72Z" fill="#725559"/>
<path d="M244.725 219.601H185.65V225.561H244.725V219.601Z" fill="#725559"/>
<path d="M209.921 244.045H141.618V250.005H209.921V244.045Z" fill="#725559"/>
<path d="M244.725 244.045H217.194V250.005H244.725V244.045Z" fill="#725559"/>
<path d="M280.68 261.978H141.618V267.939H280.68V261.978Z" fill="#725559"/>
<path d="M351.44 261.978H295.424V267.939H351.44V261.978Z" fill="#725559"/>
<path d="M218.295 275.352H141.618V281.263H218.295V275.352Z" fill="#725559"/>
<path d="M351.439 275.352H231.183V281.263H351.439V275.352Z" fill="#725559"/>
<path d="M280.68 288.677H141.618V294.638H280.68V288.677Z" fill="#725559"/>
<path d="M351.44 288.677H295.424V294.638H351.44V288.677Z" fill="#725559"/>
<path d="M218.295 302.051H141.618V308.012H218.295V302.051Z" fill="#725559"/>
<path d="M184.545 313.17H141.618V319.131H184.545V313.17Z" fill="#725559"/>
<path d="M285.795 313.17H200.543V319.131H285.795V313.17Z" fill="#725559"/>
<path d="M351.441 313.17H298.685V319.131H351.441V313.17Z" fill="#725559"/>
<path d="M351.439 302.051H231.183V308.012H351.439V302.051Z" fill="#725559"/>
<path d="M280.68 326.544H141.618V332.455H280.68V326.544Z" fill="#725559"/>
<path d="M351.44 326.544H295.424V332.455H351.44V326.544Z" fill="#725559"/>
<path d="M472.85 71.7815H216.491V329.553H472.85V71.7815Z" fill="#EFCD92"/>
<path d="M472.85 71.7815H216.491V104.742H472.85V71.7815Z" fill="#DDB376"/>
<path d="M246.529 89.4605C246.529 91.3469 245.779 93.1562 244.444 94.4901C243.108 95.824 241.297 96.5735 239.408 96.5735C237.52 96.5735 235.708 95.824 234.373 94.4901C233.037 93.1562 232.287 91.3469 232.287 89.4605C232.287 87.574 233.037 85.7648 234.373 84.4308C235.708 83.0969 237.52 82.3475 239.408 82.3475C241.297 82.3475 243.108 83.0969 244.444 84.4308C245.779 85.7648 246.529 87.574 246.529 89.4605Z" fill="#725559"/>
<path d="M267.943 89.4641C267.845 90.8553 267.343 92.1879 266.498 93.2981C265.653 94.4084 264.502 95.248 263.186 95.7142C261.87 96.1804 260.447 96.2526 259.09 95.9222C257.734 95.5919 256.503 94.8731 255.55 93.8543C254.596 92.8354 253.962 91.5607 253.723 90.1865C253.485 88.8124 253.653 87.3985 254.207 86.1186C254.762 84.8386 255.678 83.7482 256.844 82.9811C258.01 82.214 259.375 81.8035 260.771 81.8C261.746 81.8324 262.705 82.0563 263.593 82.4591C264.481 82.8618 265.281 83.4355 265.947 84.1473C266.613 84.8591 267.132 85.695 267.475 86.6073C267.817 87.5196 267.976 88.4904 267.943 89.4641Z" fill="#725559"/>
<path d="M289.306 89.4641C289.199 90.8423 288.692 92.1595 287.847 93.2546C287.002 94.3496 285.856 95.1751 284.549 95.63C283.242 96.0848 281.831 96.1494 280.488 95.8159C279.145 95.4823 277.928 94.7651 276.987 93.7518C276.045 92.7386 275.42 91.4731 275.187 90.1104C274.954 88.7477 275.124 87.3468 275.675 86.0788C276.226 84.8109 277.136 83.7309 278.292 82.971C279.448 82.2111 280.801 81.8042 282.185 81.8C283.158 81.8323 284.114 82.0566 285 82.46C285.885 82.8634 286.682 83.4379 287.344 84.1504C288.006 84.8629 288.52 85.6992 288.857 86.6112C289.194 87.5233 289.346 88.4928 289.306 89.4641Z" fill="#725559"/>
<path d="M311.121 126.633H242.819V132.544H311.121V126.633Z" fill="#725559"/>
<path d="M345.924 126.633H318.392V132.544H345.924V126.633Z" fill="#725559"/>
<path d="M280.48 140.007H242.819V145.968H280.48V140.007Z" fill="#725559"/>
<path d="M345.923 140.007H286.848V145.968H345.923V140.007Z" fill="#725559"/>
<path d="M311.121 153.382H242.819V159.343H311.121V153.382Z" fill="#725559"/>
<path d="M345.924 153.382H318.392V159.343H345.924V153.382Z" fill="#725559"/>
<path d="M280.48 166.707H242.819V172.667H280.48V166.707Z" fill="#725559"/>
<path d="M263.931 177.874H242.819V183.835H263.931V177.874Z" fill="#725559"/>
<path d="M313.629 177.874H271.755V183.835H313.629V177.874Z" fill="#725559"/>
<path d="M345.925 177.874H319.999V183.835H345.925V177.874Z" fill="#725559"/>
<path d="M345.923 166.707H286.848V172.667H345.923V166.707Z" fill="#725559"/>
<path d="M311.121 191.199H242.819V197.109H311.121V191.199Z" fill="#725559"/>
<path d="M345.924 191.199H318.392V197.109H345.924V191.199Z" fill="#725559"/>
<path d="M381.881 209.133H242.819V215.094H381.881V209.133Z" fill="#725559"/>
<path d="M452.64 209.133H396.625V215.094H452.64V209.133Z" fill="#725559"/>
<path d="M319.496 222.507H242.819V228.468H319.496V222.507Z" fill="#725559"/>
<path d="M452.692 222.507H332.436V228.468H452.692V222.507Z" fill="#725559"/>
<path d="M381.881 235.832H242.819V241.793H381.881V235.832Z" fill="#725559"/>
<path d="M452.64 235.832H396.625V241.793H452.64V235.832Z" fill="#725559"/>
<path d="M319.496 249.206H242.819V255.167H319.496V249.206Z" fill="#725559"/>
<path d="M285.746 260.324H242.819V266.285H285.746V260.324Z" fill="#725559"/>
<path d="M386.996 260.324H301.743V266.285H386.996V260.324Z" fill="#725559"/>
<path d="M452.64 260.324H399.884V266.285H452.64V260.324Z" fill="#725559"/>
<path d="M452.692 249.206H332.436V255.167H452.692V249.206Z" fill="#725559"/>
<path d="M381.881 273.698H242.819V279.659H381.881V273.698Z" fill="#725559"/>
<path d="M452.64 273.698H396.625V279.659H452.64V273.698Z" fill="#725559"/>
<path d="M164.488 295.038C164.498 310.506 159.915 325.628 151.319 338.494C142.724 351.359 130.501 361.389 116.198 367.315C101.894 373.241 86.153 374.796 70.9645 371.785C55.776 368.774 41.8228 361.33 30.8699 350.397C19.9169 339.463 12.4563 325.531 9.4317 310.362C6.40711 295.192 7.95443 279.468 13.8779 265.177C19.8014 250.886 29.835 238.671 42.7095 230.077C55.5839 221.483 70.721 216.896 86.2058 216.896C106.959 216.896 126.863 225.127 141.542 239.78C156.221 254.433 164.474 274.309 164.488 295.038Z" fill="#F3A43D"/>
<path d="M160.524 295.039C160.534 309.723 156.183 324.081 148.023 336.296C139.862 348.51 128.259 358.033 114.679 363.659C101.1 369.286 86.1551 370.763 71.7351 367.904C57.3151 365.046 44.0678 357.979 33.6689 347.599C23.27 337.219 16.1868 323.992 13.315 309.59C10.4433 295.188 11.9122 280.26 17.5358 266.692C23.1595 253.124 32.6852 241.527 44.9082 233.368C57.1312 225.208 71.5022 220.853 86.2035 220.853C105.906 220.853 124.802 228.668 138.738 242.579C152.674 256.49 160.51 275.359 160.524 295.039Z" fill="#FED150"/>
<path d="M144.729 295.038C144.719 306.598 141.278 317.895 134.841 327.502C128.405 337.108 119.261 344.593 108.566 349.01C97.8718 353.427 86.1064 354.577 74.7572 352.316C63.4081 350.055 52.9849 344.483 44.8053 336.306C36.6257 328.129 31.0568 317.712 28.8028 306.374C26.5487 295.036 27.7105 283.285 32.1415 272.606C36.5725 261.928 44.0736 252.801 53.6966 246.38C63.3197 239.959 74.6326 236.531 86.2053 236.531C93.8949 236.531 101.509 238.045 108.613 240.986C115.716 243.927 122.17 248.237 127.605 253.671C133.04 259.104 137.35 265.554 140.288 272.653C143.226 279.751 144.735 287.358 144.729 295.038Z" fill="#F3A43D"/>
<path d="M142.27 297.494C142.27 308.57 138.982 319.398 132.821 328.607C126.661 337.817 117.904 344.995 107.659 349.234C97.4147 353.472 86.1417 354.581 75.2659 352.42C64.3901 350.26 54.4001 344.926 46.5591 337.094C38.7181 329.262 33.3783 319.283 31.215 308.42C29.0517 297.556 30.162 286.296 34.4055 276.063C38.649 265.83 45.8352 257.083 55.0552 250.93C64.2752 244.776 75.115 241.492 86.2038 241.492C101.074 241.492 115.334 247.392 125.849 257.894C136.363 268.397 142.27 282.641 142.27 297.494Z" fill="#FFE984"/>
<path d="M81.5402 331.257V322.841C76.3053 322.656 71.1727 321.341 66.4956 318.984L69.1535 308.615C73.6709 311.111 78.7354 312.453 83.8971 312.523C88.912 312.523 92.4725 310.569 92.4725 307.013C92.4725 303.456 89.614 301.503 83.0446 299.299C73.5163 296.093 67.0472 291.635 67.0472 283.019C67.0472 275.204 72.5636 269.093 82.0918 267.24V258.774H90.8176V266.589C95.2736 266.661 99.6646 267.668 103.706 269.544L101.148 279.562C97.144 277.625 92.7594 276.598 88.3102 276.557C82.5431 276.557 80.6876 279.011 80.6876 281.566C80.6876 284.121 83.7968 286.575 91.3693 289.23C101.951 292.937 106.414 297.846 106.414 305.81C106.275 310.022 104.579 314.033 101.652 317.068C98.7246 320.102 94.7752 321.945 90.5669 322.24V331.307L81.5402 331.257Z" fill="#F3A43D"/>
<path d="M505.195 238.586C505.205 252.012 501.228 265.14 493.768 276.308C486.307 287.476 475.698 296.184 463.282 301.329C450.867 306.474 437.202 307.825 424.018 305.212C410.833 302.598 398.721 296.138 389.213 286.648C379.705 277.157 373.228 265.063 370.602 251.896C367.976 238.728 369.319 225.078 374.46 212.673C379.602 200.268 388.311 189.664 399.487 182.204C410.662 174.744 423.802 170.762 437.244 170.762C455.257 170.762 472.533 177.906 485.275 190.624C498.017 203.342 505.182 220.593 505.195 238.586Z" fill="#F3A43D"/>
<path d="M501.753 239.146C502.001 203.597 473.352 174.579 437.763 174.33C402.174 174.082 373.123 202.699 372.874 238.247C372.626 273.796 401.275 302.814 436.864 303.063C472.452 303.311 501.504 274.694 501.753 239.146Z" fill="#FED150"/>
<path d="M488.046 238.586C488.046 248.622 485.067 258.432 479.485 266.777C473.903 275.122 465.969 281.626 456.686 285.466C447.404 289.307 437.189 290.312 427.335 288.354C417.481 286.396 408.429 281.563 401.325 274.466C394.22 267.37 389.382 258.328 387.421 248.485C385.461 238.642 386.467 228.44 390.312 219.168C394.157 209.896 400.669 201.971 409.023 196.395C417.377 190.819 427.199 187.843 437.246 187.843C443.919 187.837 450.528 189.144 456.694 191.692C462.86 194.24 468.463 197.977 473.182 202.691C477.901 207.404 481.642 213 484.193 219.16C486.744 225.319 488.053 231.92 488.046 238.586Z" fill="#F3A43D"/>
<path d="M485.939 240.737C485.949 250.359 483.102 259.768 477.757 267.773C472.413 275.779 464.811 282.021 455.914 285.71C447.018 289.399 437.225 290.369 427.776 288.498C418.327 286.627 409.646 281.998 402.831 275.198C396.016 268.398 391.373 259.731 389.49 250.295C387.607 240.858 388.569 231.076 392.253 222.186C395.937 213.295 402.178 205.696 410.187 200.349C418.196 195.002 427.612 192.148 437.245 192.148C443.637 192.142 449.968 193.394 455.876 195.833C461.783 198.272 467.152 201.85 471.674 206.362C476.196 210.875 479.784 216.233 482.232 222.132C484.68 228.03 485.939 234.352 485.939 240.737Z" fill="#FFE984"/>
<path d="M433.182 270.04V262.727C428.614 262.591 424.13 261.463 420.043 259.421L422.35 250.404C426.294 252.546 430.699 253.698 435.188 253.76C439.601 253.76 442.61 252.107 442.61 249.002C442.61 245.896 440.153 243.992 434.436 242.289C426.161 239.534 420.494 235.677 420.494 228.214C420.606 224.719 422.003 221.388 424.417 218.856C426.831 216.325 430.094 214.77 433.583 214.488V207.175H441.105V213.937C444.974 213.972 448.789 214.844 452.289 216.492L450.082 225.208C446.62 223.493 442.813 222.585 438.949 222.553C433.934 222.553 432.329 224.707 432.329 226.861C432.329 229.015 435.037 231.019 441.607 233.523C450.784 236.729 454.495 240.987 454.495 247.9C454.326 251.538 452.84 254.992 450.312 257.618C447.785 260.244 444.388 261.864 440.754 262.176V270.04H433.182Z" fill="#F3A43D"/>
<path d="M201.397 447.014L202.099 456.481L192.521 454.728L192.22 442.606L201.397 447.014Z" fill="#FFD9A7"/>
<path d="M208.367 316.075C208.367 316.075 223.161 327.546 217.343 327.096C214.215 327.355 211.092 326.544 208.486 324.796C205.88 323.049 203.946 320.468 203.001 317.478L208.367 316.075Z" fill="#EFC18F"/>
<path d="M214.034 228.268C214.034 225.062 212.68 218.25 206.411 221.656C196.381 226.966 183.744 261.479 183.243 269.744C182.741 278.009 202.951 318.684 202.951 318.684C204.169 319.06 205.485 318.958 206.63 318.4C207.776 317.842 208.666 316.868 209.119 315.678L195.529 269.894C195.529 269.894 214.134 239.188 214.034 228.268Z" fill="#9991E2"/>
<path d="M254.003 454.078L254.605 462.193L246.33 460.69L246.13 450.271L254.003 454.078Z" fill="#FFD9A7"/>
<path d="M254.103 459.288C253.118 460.573 251.666 461.419 250.062 461.644C248.457 461.869 246.828 461.455 245.527 460.49C245.527 460.49 240.111 474.766 249.94 475.818C259.769 476.87 277.221 473.213 279.177 468.805C281.985 462.343 265.888 459.889 254.103 459.288Z" fill="#6B5A84"/>
<path d="M201.094 452.878C199.515 453.767 197.671 454.068 195.89 453.729C194.109 453.39 192.506 452.432 191.365 451.024C191.365 451.024 180.784 462.646 191.115 467.054C201.445 471.462 221.555 474.067 225.115 470.56C230.281 465.501 213.682 457.336 201.094 452.878Z" fill="#6B5A84"/>
<path d="M231.886 285.473L221.856 368.525C221.856 368.525 216.039 428.986 207.463 448.171C205.558 452.379 191.416 452.128 189.811 447.319C182.088 423.977 196.631 350.292 196.631 350.292L199.69 285.473H231.886Z" fill="#D14339"/>
<path d="M216.088 299.85C202.297 316.48 232.136 384.655 232.136 384.655C232.136 384.655 230.08 437.301 240.962 452.328C243.419 455.785 258.062 456.336 259.116 452.328C265.033 429.938 259.116 372.883 259.116 372.883L252.947 299.85H231.885C231.885 299.85 218.395 297.045 216.088 299.85Z" fill="#E66254"/>
<path d="M216.39 195.759C216.39 195.759 221.806 207.58 217.795 215.795C215.237 220.805 238.155 235.832 237.252 229.42C236.049 220.855 231.585 215.896 235.597 205.927L216.39 195.759Z" fill="#EFC18F"/>
<path d="M234.042 173.917C241.464 180.629 248.184 203.521 240.662 210.333C237.402 213.239 225.266 217.396 216.339 204.322C213.55 200.676 211.801 196.342 211.28 191.782C210.759 187.222 211.485 182.606 213.381 178.425C215.788 173.716 225.416 166.103 234.042 173.917Z" fill="#F9E1C5"/>
<path d="M240.862 175.468C243.169 178.874 242.768 182.029 231.384 183.983C220 185.937 217.342 189.243 218.546 191.948C222.106 199.862 220.101 196.957 224.463 206.424C228.826 215.891 215.086 207.075 213.982 205.673C211.38 201.784 209.595 197.409 208.733 192.811C207.871 188.214 207.951 183.49 208.967 178.924C210.973 168.555 234.644 166.301 240.862 175.468Z" fill="#9B4D34"/>
<path d="M241.264 221.905C252.648 229.519 253.45 240.389 255.205 306.61C255.606 321.137 194.375 321.187 197.234 306.961C207.514 256.869 189.561 244.597 202.85 225.211C208.366 216.896 225.517 211.286 241.264 221.905Z" fill="#D8D844"/>
<path d="M315.936 186.29C315.936 186.29 319.497 166.905 321.904 172.565C323.666 175.365 324.422 178.681 324.048 181.967C323.674 185.253 322.193 188.314 319.848 190.648L315.936 186.29Z" fill="#EFC18F"/>
<path d="M230.932 223.355C227.974 224.907 222.206 229.416 228.375 233.373C238.404 240.085 276.668 235.326 284.641 231.82C292.615 228.314 320.949 189.693 320.949 189.693C320.864 189.023 320.644 188.376 320.302 187.793C319.96 187.21 319.504 186.702 318.961 186.299C318.417 185.897 317.798 185.608 317.14 185.451C316.482 185.294 315.799 185.272 315.132 185.385L278.874 220.449C278.874 220.449 241.112 217.995 230.932 223.355Z" fill="#9991E2"/>
<path d="M227.474 184.886C227.474 184.886 212.43 196.658 241.967 216.043C241.967 216.043 198.639 224.91 202.851 187.642C203.124 183.433 204.83 179.444 207.685 176.337C210.54 173.23 214.373 171.192 218.548 170.56L227.474 184.886Z" fill="#9B4D34"/>
</svg>
