<svg width="85" height="63" viewBox="0 0 85 63" fill="none" xmlns="http://www.w3.org/2000/svg">
<path fill-rule="evenodd" clip-rule="evenodd" d="M78.81 17.498C79.55 18.778 80.57 19.848 81.69 20.798C81.9901 21.058 82.36 21.178 82.74 21.168C83.29 21.168 83.84 20.918 84.18 20.478C84.79 19.688 84.59 18.618 83.86 17.998C83.81 17.958 83.77 17.918 83.72 17.878C83.37 17.548 83.02 17.218 82.69 16.868C82.51 16.648 82.33 16.418 82.16 16.178C81.5865 15.2917 81.064 14.3714 80.5426 13.4531C80.2639 12.9624 79.9856 12.4722 79.7 11.988C78.9986 10.7995 78.2117 9.64893 77.4319 8.50859L77.37 8.41802C77.2811 8.28755 77.1923 8.15682 77.1033 8.02594C76.0811 6.52181 75.046 4.99875 73.85 3.62801C73.21 2.90801 72.56 2.20802 71.84 1.56801L71.8067 1.53889C71.2558 1.05676 70.6564 0.532084 69.98 0.238009C69.32 -0.0419901 68.61 -0.121992 67.97 0.258005C67.69 0.418009 67.44 0.668017 67.3 0.95801C67.2018 1.14759 67.1356 1.3476 67.1014 1.54963C66.8522 1.68292 66.6111 1.83044 66.38 1.998C65.0456 2.92802 63.8355 4.04116 62.6333 5.14702C62.3489 5.40859 62.065 5.66976 61.78 5.928L61.79 5.91799C60.47 7.05799 59.14 8.16799 57.75 9.20799C56.33 10.278 54.88 11.308 53.42 12.318C52.77 12.748 52.11 13.168 51.44 13.578L50.33 14.238C49.73 14.588 49.35 15.168 49.35 15.878C49.35 16.848 50.16 17.638 51.12 17.648C51.58 17.658 51.94 17.508 52.33 17.288C52.51 17.188 52.67 17.058 52.79 16.898C53.89 16.238 54.97 15.558 56.02 14.828C57.34 13.908 58.63 12.978 59.92 12.018C61.16 11.098 62.35 10.118 63.52 9.108C64.4377 8.31429 65.3418 7.50008 66.2435 6.68797C66.4324 6.51782 66.6212 6.34776 66.81 6.178C67.33 5.72799 67.86 5.288 68.42 4.88799C68.4566 4.85868 68.4987 4.83472 68.5382 4.8122C68.5526 4.80401 68.5667 4.796 68.58 4.78799C68.5906 4.80393 68.5984 4.81704 68.6049 4.82884C68.6107 4.83924 68.6153 4.84862 68.62 4.858C68.68 4.98799 68.74 5.11799 68.79 5.248C68.95 5.748 69.07 6.23799 69.18 6.748L69.2148 6.93899C69.5636 8.85658 69.9158 10.7926 70.09 12.738C70.1754 14.0373 70.1294 15.322 70.083 16.617C70.0751 16.837 70.0673 17.0573 70.06 17.278C70.0403 17.5399 70.0217 17.8014 70.003 18.0625C69.9361 18.9979 69.8694 19.9299 69.76 20.868C69.61 22.098 69.42 23.318 69.22 24.548C69.1877 24.7045 69.1557 24.861 69.1237 25.0174C68.9573 25.8307 68.7913 26.6429 68.59 27.448L68.5874 27.458C68.2682 28.6946 67.9491 29.9313 67.61 31.158C67.3506 32.1065 67.0715 33.0549 66.7939 33.9981C66.7291 34.2184 66.6644 34.4384 66.6 34.658C66.4108 35.32 66.1852 35.9683 65.9601 36.6152C65.8519 36.926 65.7438 37.2365 65.64 37.548C65.6515 37.5021 65.6663 37.4594 65.6805 37.4182C65.6912 37.3876 65.7015 37.3578 65.71 37.328L65.6503 37.4852C65.0407 39.0921 64.435 40.6885 63.67 42.238C63.06 43.418 62.37 44.548 61.64 45.648C61.01 46.568 60.33 47.448 59.61 48.288C58.98 48.988 58.31 49.648 57.6 50.278C56.7599 51.008 55.89 51.678 54.98 52.318C54.3 52.768 53.61 53.178 52.89 53.558C52.2 53.898 51.49 54.188 50.76 54.448C50 54.688 49.24 54.898 48.47 55.068C47.5099 55.258 46.55 55.388 45.58 55.458C44.57 55.508 43.55 55.498 42.53 55.438C42.3 55.418 42.08 55.398 41.85 55.378C43.6 53.948 45.24 52.348 46.58 50.528C48.08 48.498 49.49 46.118 49.74 43.548C49.98 41.098 49.43 38.688 48.36 36.488C47.35 34.418 45.87 32.458 44.03 31.048C41.9999 29.488 39.62 28.558 37.07 28.348C34.56 28.138 32.07 28.758 29.96 30.138C27.89 31.488 26.48 33.628 25.89 36.008C25.25 38.578 25.12 41.308 25.36 43.938C25.59 46.448 26.11 49.028 27.32 51.258C28.51 53.448 30.4 55.248 32.59 56.428C32.73 56.498 32.86 56.568 33 56.638C32.64 56.788 32.27 56.928 31.91 57.058C30.77 57.448 29.61 57.768 28.43 58.018C27.4634 58.2016 26.4969 58.3386 25.5123 58.4288C25.4788 58.4298 25.4454 58.4322 25.4119 58.4377C25.4047 58.4379 25.3974 58.438 25.39 58.438C24.22 58.508 23.05 58.508 21.88 58.438H21.87C21.8328 58.438 21.7917 58.4341 21.7492 58.4312C20.3272 58.3105 18.9336 58.113 17.54 57.848L17.129 57.7532C15.6678 57.4167 14.2172 57.0826 12.8 56.598C12.19 56.378 11.58 56.128 10.99 55.858C10.51 55.608 10.05 55.348 9.59998 55.058C9.12 54.718 8.66003 54.358 8.21002 53.978C7.73004 53.528 7.27002 53.058 6.82001 52.568C6.03998 51.678 5.29999 50.748 4.62 49.768C4.38 49.408 4.16003 49.038 3.96002 48.658C3.86005 48.458 3.77002 48.258 3.69 48.048C3.65668 47.9479 3.6322 47.8478 3.60773 47.7477C3.59552 47.6978 3.58331 47.6479 3.57001 47.598C3.56 47.548 3.56 47.488 3.54999 47.438C3.54456 47.3673 3.54205 47.2966 3.54095 47.2244C3.53998 47.1637 3.53998 47.1019 3.53998 47.038C3.53998 46.068 2.73999 45.268 1.77002 45.268C0.800049 45.268 0 46.078 0 47.038V47.148C0.0200195 47.978 0.149963 48.798 0.47998 49.568C0.869995 50.488 1.38 51.358 1.96002 52.158C2.54004 52.958 3.16998 53.728 3.79999 54.498C4.96997 55.948 6.40997 57.258 8 58.238C9.77002 59.328 11.71 60.038 13.7 60.578C16.3 61.288 18.98 61.788 21.67 61.968C22.31 62.008 22.94 62.028 23.56 62.018C27.23 62.018 30.9 61.318 34.3 59.918C35.44 59.448 36.56 58.898 37.64 58.288C38.37 58.458 39.1 58.588 39.84 58.698C45.0099 59.448 50.48 58.948 55.11 56.388C56.33 55.718 57.49 54.938 58.58 54.068C59.55 53.288 60.51 52.468 61.38 51.578C63.12 49.768 64.61 47.718 65.87 45.548C67.35 43.008 68.43 40.278 69.37 37.508C70 35.668 70.55 33.808 71.06 31.928C71.33 30.958 71.59 29.978 71.84 28.998C72.08 28.048 72.29 27.098 72.49 26.138C72.9 24.218 73.15 22.278 73.37 20.328C73.445 19.6378 73.4863 18.9476 73.5275 18.2575C73.5413 18.0276 73.555 17.7978 73.57 17.568C73.66 16.388 73.69 15.188 73.67 14.008C73.641 12.1179 73.3708 10.2436 73.0493 8.38121C73.5869 9.13248 74.1066 9.89637 74.6255 10.6589L74.74 10.828L74.9197 11.1005C75.7906 12.4199 76.6641 13.7433 77.45 15.128C77.9 15.928 78.35 16.708 78.81 17.498ZM25.4143 58.4376C25.447 58.4347 25.4797 58.4318 25.5123 58.4288C25.5381 58.428 25.5641 58.428 25.59 58.428C25.555 58.428 25.5225 58.4305 25.49 58.433C25.4651 58.4349 25.4402 58.4368 25.4143 58.4376ZM25.4143 58.4376L25.41 58.438L25.4119 58.4377L25.4143 58.4376ZM34.47 32.008C34.81 31.948 35.15 31.908 35.5 31.868C35.7 31.858 35.9 31.858 36.11 31.848C36.31 31.848 36.5 31.848 36.7 31.858C37.14 31.898 37.58 31.958 38.02 32.038C38.46 32.138 38.9 32.268 39.33 32.408C39.65 32.538 39.97 32.678 40.29 32.828C40.64 33.018 40.98 33.218 41.32 33.438C41.64 33.658 41.94 33.888 42.24 34.138C42.59 34.448 42.91 34.768 43.23 35.108C43.64 35.588 44.02 36.088 44.38 36.608C44.66 37.048 44.92 37.498 45.16 37.958C45.39 38.428 45.59 38.908 45.76 39.388C45.89 39.798 46 40.218 46.1 40.638C46.17 41.018 46.22 41.418 46.26 41.808C46.28 42.148 46.28 42.478 46.27 42.808C46.24 43.088 46.21 43.358 46.16 43.638C46.08 43.958 45.9999 44.278 45.9 44.598C45.74 45.038 45.55 45.458 45.35 45.878C45.03 46.498 44.68 47.088 44.29 47.668C43.81 48.348 43.3 49.008 42.76 49.638C42.0435 50.4416 41.2894 51.1891 40.4888 51.9074C39.5673 52.7084 38.6168 53.4707 37.61 54.158C37.45 54.268 37.28 54.378 37.11 54.488C36.89 54.418 36.66 54.348 36.44 54.278C35.88 54.078 35.33 53.848 34.78 53.578C34.3199 53.338 33.86 53.068 33.42 52.778C33.04 52.508 32.67 52.218 32.31 51.918C32.03 51.648 31.76 51.378 31.5 51.098C31.27 50.818 31.05 50.528 30.84 50.228C30.7 49.998 30.57 49.778 30.44 49.548C30.19 49.028 29.97 48.508 29.77 47.968C29.55 47.288 29.37 46.608 29.22 45.908C29.05 45.018 28.94 44.128 28.87 43.228C28.82 42.158 28.81 41.088 28.87 40.018C28.93 39.248 29.0099 38.488 29.15 37.718C29.27 37.178 29.41 36.648 29.58 36.128C29.6367 35.9863 29.6934 35.8478 29.7518 35.7107C29.7966 35.6059 29.8423 35.502 29.89 35.398C30.04 35.128 30.19 34.858 30.36 34.598C30.5 34.418 30.64 34.248 30.78 34.078C30.95 33.898 31.11 33.738 31.29 33.578C31.47 33.418 31.66 33.268 31.86 33.128C32.15 32.948 32.44 32.778 32.74 32.618C33.04 32.478 33.34 32.348 33.65 32.238C33.92 32.148 34.1899 32.078 34.47 32.008Z" fill="#F9F8FF"/>
</svg>
