<svg width="139" height="64" viewBox="0 0 139 64" fill="none" xmlns="http://www.w3.org/2000/svg">
<path d="M0 22.9417C0 32.7075 7.9324 40.6445 17.77 40.6445V22.9417H0Z" fill="#A673EF"/>
<path d="M0 40.6099C0 50.3757 7.9324 58.3127 17.77 58.3127V40.6099H0Z" fill="#7B61FF"/>
<path d="M17.8047 22.9417C27.6076 22.9417 35.5747 30.8441 35.5747 40.6445H17.8047V22.9417Z" fill="#7B61FF"/>
<path d="M35.5747 40.6099C35.5747 50.3757 27.6423 58.3127 17.8047 58.3127V40.6099H35.5747Z" fill="#6433C4"/>
<path d="M35.5747 23.3902C35.5747 13.6243 27.6423 5.68738 17.8047 5.68738V23.3902H35.5747Z" fill="#7B61FF"/>
<path d="M0 23.3902C0 13.6243 7.9324 5.68738 17.77 5.68738V23.3902H0Z" fill="#6433C4"/>
<path d="M60.9347 46.56C58.7747 46.56 56.868 46.1733 55.2147 45.4C53.5614 44.6267 52.268 43.52 51.3347 42.08C50.4014 40.64 49.9347 38.9067 49.9347 36.88V35.76H55.1347V36.88C55.1347 38.56 55.6547 39.8267 56.6947 40.68C57.7347 41.5067 59.148 41.92 60.9347 41.92C62.748 41.92 64.0947 41.56 64.9747 40.84C65.8814 40.12 66.3347 39.2 66.3347 38.08C66.3347 37.3067 66.108 36.68 65.6547 36.2C65.228 35.72 64.588 35.3333 63.7347 35.04C62.908 34.72 61.8947 34.4267 60.6947 34.16L59.7747 33.96C57.8547 33.5333 56.2014 33 54.8147 32.36C53.4547 31.6933 52.4014 30.8267 51.6547 29.76C50.9347 28.6933 50.5747 27.3067 50.5747 25.6C50.5747 23.8933 50.9747 22.44 51.7747 21.24C52.6014 20.0133 53.748 19.08 55.2147 18.44C56.708 17.7733 58.4547 17.44 60.4547 17.44C62.4547 17.44 64.228 17.7867 65.7747 18.48C67.348 19.1467 68.5747 20.16 69.4547 21.52C70.3614 22.8533 70.8147 24.5333 70.8147 26.56V27.76H65.6147V26.56C65.6147 25.4933 65.4014 24.64 64.9747 24C64.5747 23.3333 63.988 22.8533 63.2147 22.56C62.4414 22.24 61.5214 22.08 60.4547 22.08C58.8547 22.08 57.668 22.3867 56.8947 23C56.148 23.5867 55.7747 24.4 55.7747 25.44C55.7747 26.1333 55.948 26.72 56.2947 27.2C56.668 27.68 57.2147 28.08 57.9347 28.4C58.6547 28.72 59.5747 29 60.6947 29.24L61.6147 29.44C63.6147 29.8667 65.348 30.4133 66.8147 31.08C68.308 31.7467 69.468 32.6267 70.2947 33.72C71.1214 34.8133 71.5347 36.2133 71.5347 37.92C71.5347 39.6267 71.0947 41.1333 70.2147 42.44C69.3614 43.72 68.1347 44.7333 66.5347 45.48C64.9614 46.2 63.0947 46.56 60.9347 46.56ZM83.2325 46C81.9259 46 80.8592 45.6 80.0325 44.8C79.2325 43.9733 78.8325 42.88 78.8325 41.52V30.32H73.8725V26.16H78.8325V20H83.8725V26.16H89.3125V30.32H83.8725V40.64C83.8725 41.44 84.2459 41.84 84.9925 41.84H88.8325V46H83.2325ZM100.035 46.56C98.6214 46.56 97.3547 46.32 96.2347 45.84C95.1147 45.3333 94.2214 44.6133 93.5547 43.68C92.9147 42.72 92.5947 41.56 92.5947 40.2C92.5947 38.84 92.9147 37.7067 93.5547 36.8C94.2214 35.8667 95.128 35.1733 96.2747 34.72C97.448 34.24 98.7814 34 100.275 34H105.715V32.88C105.715 31.9467 105.421 31.1867 104.835 30.6C104.248 29.9867 103.315 29.68 102.035 29.68C100.781 29.68 99.848 29.9733 99.2347 30.56C98.6214 31.12 98.2214 31.8533 98.0347 32.76L93.3947 31.2C93.7147 30.1867 94.2214 29.2667 94.9147 28.44C95.6347 27.5867 96.5814 26.9067 97.7547 26.4C98.9547 25.8667 100.408 25.6 102.115 25.6C104.728 25.6 106.795 26.2533 108.315 27.56C109.835 28.8667 110.595 30.76 110.595 33.24V40.64C110.595 41.44 110.968 41.84 111.715 41.84H113.315V46H109.955C108.968 46 108.155 45.76 107.515 45.28C106.875 44.8 106.555 44.16 106.555 43.36V43.32H105.795C105.688 43.64 105.448 44.0667 105.075 44.6C104.701 45.1067 104.115 45.56 103.315 45.96C102.515 46.36 101.421 46.56 100.035 46.56ZM100.915 42.48C102.328 42.48 103.475 42.0933 104.355 41.32C105.261 40.52 105.715 39.4667 105.715 38.16V37.76H100.635C99.7014 37.76 98.968 37.96 98.4347 38.36C97.9014 38.76 97.6347 39.32 97.6347 40.04C97.6347 40.76 97.9147 41.3467 98.4747 41.8C99.0347 42.2533 99.848 42.48 100.915 42.48ZM118.613 54V49.6H129.413C130.159 49.6 130.533 49.2 130.533 48.4V43.4H129.813C129.599 43.8533 129.266 44.3067 128.813 44.76C128.359 45.2133 127.746 45.5867 126.973 45.88C126.199 46.1733 125.213 46.32 124.013 46.32C122.466 46.32 121.106 45.9733 119.933 45.28C118.786 44.56 117.893 43.5733 117.253 42.32C116.613 41.0667 116.293 39.6267 116.293 38V26.16H121.333V37.6C121.333 39.0933 121.693 40.2133 122.413 40.96C123.159 41.7067 124.213 42.08 125.573 42.08C127.119 42.08 128.319 41.5733 129.173 40.56C130.026 39.52 130.453 38.08 130.453 36.24V26.16H135.493V49.52C135.493 50.88 135.093 51.96 134.293 52.76C133.493 53.5867 132.426 54 131.093 54H118.613Z" fill="#0F1D40"/>
</svg>
